<svg width="15" height="15" viewBox="0 0 15 15" fill="none" xmlns="http://www.w3.org/2000/svg">
<g id="Icons/Solid/arrow-right">
<g id="vuesax/bold/arrow-right">
<g id="arrow-right">
<path id="Vector" d="M7.50033 1.79163C4.28033 1.79163 1.66699 4.40496 1.66699 7.62496C1.66699 10.845 4.28033 13.4583 7.50033 13.4583C10.7203 13.4583 13.3337 10.845 13.3337 7.62496C13.3337 4.40496 10.7203 1.79163 7.50033 1.79163ZM9.85116 7.93413L8.10116 9.68413C8.01366 9.77163 7.90283 9.81246 7.79199 9.81246C7.68116 9.81246 7.57033 9.77163 7.48283 9.68413C7.31366 9.51496 7.31366 9.23496 7.48283 9.06579L8.48616 8.06246H5.45866C5.21949 8.06246 5.02116 7.86413 5.02116 7.62496C5.02116 7.38579 5.21949 7.18746 5.45866 7.18746H8.48616L7.48283 6.18413C7.31366 6.01496 7.31366 5.73496 7.48283 5.56579C7.65199 5.39663 7.93199 5.39663 8.10116 5.56579L9.85116 7.31579C10.0203 7.48496 10.0203 7.76496 9.85116 7.93413Z" fill="url(#paint0_linear_749_49968)"/>
</g>
</g>
</g>
<defs>
<linearGradient id="paint0_linear_749_49968" x1="1.66699" y1="7.62496" x2="15.2781" y2="7.62496" gradientUnits="userSpaceOnUse">
<stop stop-color="#5F27CD"/>
<stop offset="1" stop-color="#3366FF"/>
</linearGradient>
</defs>
</svg>
