<svg width="33" height="33" viewBox="0 0 33 33" fill="none" xmlns="http://www.w3.org/2000/svg">
<g id="Icons/outline/bubble">
<g id="vuesax/outline/bubble">
<g id="bubble">
<path id="Vector" d="M21.3799 17.6855C16.9755 17.6855 13.3867 14.0967 13.3867 9.69235C13.3867 5.28798 16.9755 1.69922 21.3799 1.69922C25.7842 1.69922 29.373 5.28798 29.373 9.69235C29.373 14.0967 25.7842 17.6855 21.3799 17.6855ZM21.3799 3.73828C18.1038 3.73828 15.4258 6.40266 15.4258 9.69235C15.4258 12.982 18.0902 15.6464 21.3799 15.6464C24.6695 15.6464 27.3339 12.982 27.3339 9.69235C27.3339 6.40266 24.6559 3.73828 21.3799 3.73828Z" fill="url(#paint0_linear_749_49953)"/>
<path id="Vector_2" d="M8.83334 27.4459C5.96506 27.4459 3.62695 25.1078 3.62695 22.2395C3.62695 19.3712 5.96506 17.0331 8.83334 17.0331C11.7016 17.0331 14.0398 19.3712 14.0398 22.2395C14.0398 25.1078 11.7016 27.4459 8.83334 27.4459ZM8.83334 19.0721C7.09334 19.0721 5.66602 20.4859 5.66602 22.2395C5.66602 23.9795 7.07975 25.4068 8.83334 25.4068C10.5733 25.4068 12.0007 23.9931 12.0007 22.2395C12.0007 20.4995 10.5733 19.0721 8.83334 19.0721Z" fill="url(#paint1_linear_749_49953)"/>
<path id="Vector_3" d="M22.7808 30.9258C20.2931 30.9258 18.2812 28.9003 18.2812 26.4263C18.2812 23.9386 20.3067 21.9268 22.7808 21.9268C25.2548 21.9268 27.2803 23.9522 27.2803 26.4263C27.2803 28.9003 25.2548 30.9258 22.7808 30.9258ZM22.7808 23.9522C21.4214 23.9522 20.3203 25.0533 20.3203 26.4127C20.3203 27.7721 21.4214 28.8732 22.7808 28.8732C24.1402 28.8732 25.2412 27.7721 25.2412 26.4127C25.2412 25.0669 24.1402 23.9522 22.7808 23.9522Z" fill="url(#paint2_linear_749_49953)"/>
</g>
</g>
</g>
<defs>
<linearGradient id="paint0_linear_749_49953" x1="13.3867" y1="9.69234" x2="32.0374" y2="9.69234" gradientUnits="userSpaceOnUse">
<stop stop-color="#CDBCF0"/>
<stop offset="1" stop-color="#C0D0FF"/>
</linearGradient>
<linearGradient id="paint1_linear_749_49953" x1="3.62695" y1="22.2395" x2="15.7752" y2="22.2395" gradientUnits="userSpaceOnUse">
<stop stop-color="#CDBCF0"/>
<stop offset="1" stop-color="#C0D0FF"/>
</linearGradient>
<linearGradient id="paint2_linear_749_49953" x1="18.2812" y1="26.4263" x2="28.7801" y2="26.4263" gradientUnits="userSpaceOnUse">
<stop stop-color="#CDBCF0"/>
<stop offset="1" stop-color="#C0D0FF"/>
</linearGradient>
</defs>
</svg>
