<svg width="34" height="33" viewBox="0 0 34 33" fill="none" xmlns="http://www.w3.org/2000/svg">
<g id="Icons/outline/buildings-2">
<g id="vuesax/outline/buildings-2">
<g id="buildings-2">
<path id="Union" fill-rule="evenodd" clip-rule="evenodd" d="M8.77605 23.4492V11.4459C8.77605 8.71357 10.3529 7.13672 13.0852 7.13672H14.0773V5.64144C14.0773 4.25488 13.5608 3.73828 12.1742 3.73828H6.32894C4.94238 3.73828 4.42578 4.25488 4.42578 5.64144V21.5461C4.42578 22.9326 4.94238 23.4492 6.32894 23.4492H8.77605ZM8.77605 25.4883H6.32894C3.82769 25.4883 2.38672 24.0473 2.38672 21.5461V5.64144C2.38672 3.14019 3.82769 1.69922 6.32894 1.69922H12.1742C14.6755 1.69922 16.1164 3.14019 16.1164 5.64144V7.13672H17.8835V5.64144C17.8835 3.14019 19.3243 1.69922 21.8256 1.69922H27.6709C30.1721 1.69922 31.6131 3.14019 31.6131 5.64144V21.5461C31.6131 24.0473 30.1721 25.4883 27.6709 25.4883H25.3196V26.6166C25.3196 29.3489 23.7564 30.9258 21.024 30.9258H17H13.0852C10.3529 30.9258 8.77605 29.3489 8.77605 26.6166V25.4883ZM18.0195 28.8867V25.8281C18.0195 25.2708 17.5573 24.8086 17 24.8086C16.4427 24.8086 15.9805 25.2708 15.9805 25.8281V28.8867H13.0852C11.454 28.8867 10.8151 28.2478 10.8151 26.6166V11.4459C10.8151 9.81466 11.454 9.17578 13.0852 9.17578H15.0968H18.903H21.024C22.6417 9.17578 23.2806 9.81466 23.2806 11.4459V24.4398C23.2803 24.4494 23.2801 24.4591 23.2801 24.4688C23.2801 24.4784 23.2803 24.4881 23.2806 24.4977V26.6166C23.2806 28.2478 22.6417 28.8867 21.024 28.8867H18.0195ZM19.9225 5.64144V7.13672H21.024C23.7564 7.13672 25.3196 8.71357 25.3196 11.4459V23.4492H27.6709C29.0575 23.4492 29.5741 22.9326 29.5741 21.5461V5.64144C29.5741 4.25488 29.0575 3.73828 27.6709 3.73828H21.8256C20.439 3.73828 19.9225 4.25488 19.9225 5.64144ZM14.2812 15.9727H19.7188C20.2761 15.9727 20.7383 15.5105 20.7383 14.9531C20.7383 14.3958 20.2761 13.9336 19.7188 13.9336H14.2812C13.7239 13.9336 13.2617 14.3958 13.2617 14.9531C13.2617 15.5105 13.7239 15.9727 14.2812 15.9727ZM19.7188 20.0508H14.2812C13.7239 20.0508 13.2617 19.5886 13.2617 19.0312C13.2617 18.4739 13.7239 18.0117 14.2812 18.0117H19.7188C20.2761 18.0117 20.7383 18.4739 20.7383 19.0312C20.7383 19.5886 20.2761 20.0508 19.7188 20.0508Z" fill="url(#paint0_linear_759_49921)"/>
</g>
</g>
</g>
<defs>
<linearGradient id="paint0_linear_759_49921" x1="2.38672" y1="16.3125" x2="36.4842" y2="16.3125" gradientUnits="userSpaceOnUse">
<stop stop-color="#CDBCF0"/>
<stop offset="1" stop-color="#C0D0FF"/>
</linearGradient>
</defs>
</svg>
