<svg width="34" height="33" viewBox="0 0 34 33" fill="none" xmlns="http://www.w3.org/2000/svg">
<g id="Icons/outline/moneys">
<g id="vuesax/outline/moneys">
<g id="moneys">
<path id="Vector" d="M20.9292 24.7677H8.98027C8.27339 24.7677 7.60728 24.6998 7.00915 24.5639C6.6965 24.5231 6.31589 24.4143 5.92167 24.2648C4.1137 23.5851 1.97949 21.9131 1.97949 17.7534V10.7526C1.97949 6.30741 4.53511 3.75183 8.98027 3.75183H20.9292C24.6811 3.75183 27.1007 5.54617 27.7532 8.80867C27.8756 9.40679 27.93 10.0457 27.93 10.7526V17.7534C27.93 22.2257 25.3879 24.7677 20.9292 24.7677ZM8.99383 5.81811C5.64977 5.81811 4.03212 7.43571 4.03212 10.7798V17.7806C4.03212 20.2139 4.88854 21.7092 6.64214 22.3753C6.91401 22.4704 7.1723 22.5384 7.41699 22.5791C7.93355 22.6879 8.43649 22.7423 8.99383 22.7423H20.9427C24.2868 22.7423 25.9045 21.1247 25.9045 17.7806V10.7798C25.9045 10.2088 25.8637 9.70586 25.7686 9.24368C25.3064 6.93274 23.7295 5.81811 20.9427 5.81811H8.99383Z" fill="url(#paint0_linear_759_49945)"/>
<path id="Vector_2" d="M25.0068 28.8459H13.0579C11.9024 28.8459 10.8693 28.6828 9.98566 28.3429C7.98738 27.5953 6.68236 26.0184 6.23377 23.7618C6.1658 23.422 6.27458 23.0686 6.51927 22.8375C6.76396 22.5928 7.1174 22.4976 7.45724 22.5792C7.90584 22.6743 8.4088 22.7287 8.97973 22.7287H20.9287C24.2727 22.7287 25.8904 21.1111 25.8904 17.767V10.7662C25.8904 10.1953 25.8496 9.6923 25.7544 9.23011C25.6864 8.89027 25.7952 8.55043 26.0263 8.30575C26.271 8.06106 26.6108 7.95229 26.9507 8.03386C30.2132 8.69995 32.0075 11.1197 32.0075 14.8443V21.8452C32.0075 26.3039 29.4655 28.8459 25.0068 28.8459ZM8.73506 24.7678C9.17006 25.5562 9.82255 26.1136 10.7197 26.4398C11.3722 26.6845 12.1606 26.8068 13.0714 26.8068H25.0203C28.3644 26.8068 29.9821 25.1892 29.9821 21.8452V14.8443C29.9821 12.6965 29.316 11.2692 27.943 10.5215C27.943 10.6031 27.943 10.6847 27.943 10.7662V17.767C27.943 22.2122 25.3874 24.7678 20.9422 24.7678H8.9933C8.89814 24.7678 8.81662 24.7678 8.73506 24.7678Z" fill="url(#paint1_linear_759_49945)"/>
<path id="Vector_3" d="M14.9608 18.8818C12.4188 18.8818 10.3525 16.8155 10.3525 14.2735C10.3525 11.7314 12.4188 9.66516 14.9608 9.66516C17.5029 9.66516 19.5691 11.7314 19.5691 14.2735C19.5691 16.8155 17.5029 18.8818 14.9608 18.8818ZM14.9608 11.7042C13.5471 11.7042 12.3916 12.8597 12.3916 14.2735C12.3916 15.6872 13.5471 16.8427 14.9608 16.8427C16.3746 16.8427 17.5301 15.6872 17.5301 14.2735C17.5301 12.8597 16.3746 11.7042 14.9608 11.7042Z" fill="url(#paint2_linear_759_49945)"/>
<path id="Vector_4" d="M7.18555 18.2837C6.6282 18.2837 6.16602 17.8215 6.16602 17.2641V11.2828C6.16602 10.7255 6.6282 10.2633 7.18555 10.2633C7.74289 10.2633 8.20508 10.7255 8.20508 11.2828V17.2641C8.20508 17.8215 7.75648 18.2837 7.18555 18.2837Z" fill="url(#paint3_linear_759_49945)"/>
<path id="Vector_5" d="M22.7227 18.2837C22.1653 18.2837 21.7031 17.8215 21.7031 17.2641V11.2828C21.7031 10.7255 22.1653 10.2633 22.7227 10.2633C23.28 10.2633 23.7422 10.7255 23.7422 11.2828V17.2641C23.7422 17.8215 23.2936 18.2837 22.7227 18.2837Z" fill="url(#paint4_linear_759_49945)"/>
</g>
</g>
</g>
<defs>
<linearGradient id="paint0_linear_759_49945" x1="1.97949" y1="14.2598" x2="32.255" y2="14.2598" gradientUnits="userSpaceOnUse">
<stop stop-color="#CDBCF0"/>
<stop offset="1" stop-color="#C0D0FF"/>
</linearGradient>
<linearGradient id="paint1_linear_759_49945" x1="6.21387" y1="18.4265" x2="36.3065" y2="18.4265" gradientUnits="userSpaceOnUse">
<stop stop-color="#CDBCF0"/>
<stop offset="1" stop-color="#C0D0FF"/>
</linearGradient>
<linearGradient id="paint2_linear_759_49945" x1="10.3525" y1="14.2735" x2="21.1052" y2="14.2735" gradientUnits="userSpaceOnUse">
<stop stop-color="#CDBCF0"/>
<stop offset="1" stop-color="#C0D0FF"/>
</linearGradient>
<linearGradient id="paint3_linear_759_49945" x1="6.16602" y1="14.2735" x2="8.54492" y2="14.2735" gradientUnits="userSpaceOnUse">
<stop stop-color="#CDBCF0"/>
<stop offset="1" stop-color="#C0D0FF"/>
</linearGradient>
<linearGradient id="paint4_linear_759_49945" x1="21.7031" y1="14.2735" x2="24.082" y2="14.2735" gradientUnits="userSpaceOnUse">
<stop stop-color="#CDBCF0"/>
<stop offset="1" stop-color="#C0D0FF"/>
</linearGradient>
</defs>
</svg>
