<svg width="34" height="34" viewBox="0 0 34 34" fill="none" xmlns="http://www.w3.org/2000/svg">
<g id="Icons/outline/chart">
<g id="vuesax/outline/chart">
<g id="chart">
<path id="Vector" d="M29.2344 31.5508H4.76562C4.20828 31.5508 3.74609 31.0886 3.74609 30.5312C3.74609 29.9739 4.20828 29.5117 4.76562 29.5117H29.2344C29.7917 29.5117 30.2539 29.9739 30.2539 30.5312C30.2539 31.0886 29.7917 31.5508 29.2344 31.5508Z" fill="url(#paint0_linear_759_50010)"/>
<path id="Vector_2" d="M8.29997 27.4727H6.125C4.82 27.4727 3.74609 26.3988 3.74609 25.0938V13.376C3.74609 12.071 4.82 10.9971 6.125 10.9971H8.29997C9.60497 10.9971 10.6789 12.071 10.6789 13.376V25.0938C10.6789 26.3988 9.60497 27.4727 8.29997 27.4727ZM6.125 13.0225C5.93469 13.0225 5.78516 13.1721 5.78516 13.3624V25.0938C5.78516 25.2841 5.93469 25.4336 6.125 25.4336H8.29997C8.49028 25.4336 8.63981 25.2841 8.63981 25.0938V13.376C8.63981 13.1857 8.49028 13.0361 8.29997 13.0361H6.125V13.0225Z" fill="url(#paint1_linear_759_50010)"/>
<path id="Vector_3" d="M18.0881 27.4727H15.9131C14.6081 27.4727 13.5342 26.3988 13.5342 25.0938V9.03955C13.5342 7.73455 14.6081 6.66064 15.9131 6.66064H18.0881C19.3931 6.66064 20.467 7.73455 20.467 9.03955V25.0938C20.467 26.3988 19.3931 27.4727 18.0881 27.4727ZM15.9131 8.69971C15.7228 8.69971 15.5732 8.84924 15.5732 9.03955V25.0938C15.5732 25.2841 15.7228 25.4336 15.9131 25.4336H18.0881C18.2784 25.4336 18.4279 25.2841 18.4279 25.0938V9.03955C18.4279 8.84924 18.2784 8.69971 18.0881 8.69971H15.9131Z" fill="url(#paint2_linear_759_50010)"/>
<path id="Vector_4" d="M27.8752 27.4727H25.7002C24.3952 27.4727 23.3213 26.3988 23.3213 25.0938V4.70312C23.3213 3.39813 24.3952 2.32422 25.7002 2.32422H27.8752C29.1802 2.32422 30.2541 3.39813 30.2541 4.70312V25.0938C30.2541 26.3988 29.1802 27.4727 27.8752 27.4727ZM25.7002 4.36328C25.5099 4.36328 25.3604 4.51281 25.3604 4.70312V25.0938C25.3604 25.2841 25.5099 25.4336 25.7002 25.4336H27.8752C28.0655 25.4336 28.215 25.2841 28.215 25.0938V4.70312C28.215 4.51281 28.0655 4.36328 27.8752 4.36328H25.7002Z" fill="url(#paint3_linear_759_50010)"/>
</g>
</g>
</g>
<defs>
<linearGradient id="paint0_linear_759_50010" x1="3.74609" y1="30.5312" x2="34.6719" y2="30.5312" gradientUnits="userSpaceOnUse">
<stop stop-color="#CDBCF0"/>
<stop offset="1" stop-color="#C0D0FF"/>
</linearGradient>
<linearGradient id="paint1_linear_759_50010" x1="3.74609" y1="19.2349" x2="11.8343" y2="19.2349" gradientUnits="userSpaceOnUse">
<stop stop-color="#CDBCF0"/>
<stop offset="1" stop-color="#C0D0FF"/>
</linearGradient>
<linearGradient id="paint2_linear_759_50010" x1="13.5342" y1="17.0667" x2="21.6224" y2="17.0667" gradientUnits="userSpaceOnUse">
<stop stop-color="#CDBCF0"/>
<stop offset="1" stop-color="#C0D0FF"/>
</linearGradient>
<linearGradient id="paint3_linear_759_50010" x1="23.3213" y1="14.8984" x2="31.4095" y2="14.8984" gradientUnits="userSpaceOnUse">
<stop stop-color="#CDBCF0"/>
<stop offset="1" stop-color="#C0D0FF"/>
</linearGradient>
</defs>
</svg>
