<svg width="34" height="34" viewBox="0 0 34 34" fill="none" xmlns="http://www.w3.org/2000/svg">
<g id="Icons/outline/note-2">
<g id="vuesax/outline/note-2">
<g id="note-2">
<path id="Vector" d="M12.0115 30.8712C8.51795 30.8712 6.28858 28.7777 4.86123 24.3598L3.12123 18.9902C1.19092 13.009 2.91733 9.63775 8.87139 7.70743L11.0192 7.01415C11.7261 6.79665 12.2562 6.64712 12.732 6.56556C13.1262 6.484 13.5069 6.63353 13.738 6.94618C13.969 7.25884 14.0098 7.66665 13.8467 8.02009C13.4933 8.74056 13.1806 9.65134 12.9223 10.7932L11.5901 16.489C10.3803 21.6274 11.7805 23.8704 16.9189 25.0938L19.2026 25.6376C19.9367 25.8143 20.63 25.9231 21.2553 25.9774C21.6903 26.0182 22.0437 26.3173 22.1661 26.7387C22.2748 27.1601 22.1117 27.5951 21.7583 27.8398C20.8611 28.4515 19.7328 28.9681 18.3055 29.4302L16.1576 30.1371C14.5944 30.6265 13.235 30.8712 12.0115 30.8712ZM11.2639 9.0804L9.51029 9.65134C4.65733 11.2146 3.50186 13.4984 5.06514 18.3649L6.80514 23.7345C8.38201 28.5874 10.6658 29.7565 15.5187 28.1932L17.6665 27.4863C17.7481 27.4592 17.8161 27.432 17.8976 27.4048L16.4567 27.0649C10.19 25.5832 8.13733 22.2663 9.60545 16.0132L10.9376 10.3174C11.0328 9.88243 11.1415 9.46103 11.2639 9.0804Z" fill="url(#paint0_linear_759_49989)"/>
<path id="Vector_2" d="M22.1795 28.0572C21.8261 28.0572 21.4591 28.0436 21.0648 28.0028C20.358 27.9484 19.5559 27.8125 18.7267 27.6086L16.443 27.0648C10.1762 25.5831 8.12359 22.2662 9.59172 16.0131L10.9239 10.3173C11.223 9.02592 11.5764 7.9792 12.0114 7.1092C14.3495 2.28342 18.8219 2.71842 22.0028 3.46608L24.273 3.99623C27.4539 4.74389 29.4658 5.92654 30.5941 7.73451C31.7087 9.54248 31.8855 11.867 31.1378 15.048L29.8056 20.7301C28.6366 25.7055 26.2033 28.0572 22.1795 28.0572ZM18.5228 5.04295C16.2527 5.04295 14.8117 5.98092 13.8466 7.99279C13.4931 8.72686 13.1805 9.63764 12.9086 10.7795L11.5764 16.4753C10.3666 21.6137 11.7667 23.8567 16.9052 25.0801L19.1889 25.6239C19.923 25.8006 20.6162 25.9094 21.2416 25.9637C24.9391 26.3308 26.7742 24.7131 27.8073 20.268L29.1395 14.5858C29.7512 11.9622 29.6697 10.127 28.8541 8.80842C28.0384 7.48983 26.4344 6.59264 23.7972 5.98092L21.527 5.45076C20.3987 5.17889 19.3928 5.04295 18.5228 5.04295Z" fill="url(#paint1_linear_759_49989)"/>
<path id="Vector_3" d="M24.4628 14.9121C24.3812 14.9121 24.2997 14.8985 24.2045 14.8849L17.6116 13.2128C17.0678 13.0769 16.7416 12.5196 16.8775 11.9758C17.0134 11.4321 17.5708 11.1058 18.1145 11.2418L24.7075 12.9138C25.2512 13.0497 25.5775 13.6071 25.4416 14.1508C25.3328 14.5994 24.9114 14.9121 24.4628 14.9121Z" fill="url(#paint2_linear_759_49989)"/>
<path id="Vector_4" d="M20.4799 19.5067C20.3984 19.5067 20.3168 19.4931 20.2216 19.4795L16.2659 18.4736C15.7221 18.3376 15.3959 17.7803 15.5318 17.2366C15.6677 16.6928 16.2251 16.3666 16.7688 16.5025L20.7246 17.5084C21.2684 17.6444 21.5946 18.2017 21.4587 18.7455C21.3499 19.2076 20.9421 19.5067 20.4799 19.5067Z" fill="url(#paint3_linear_759_49989)"/>
</g>
</g>
</g>
<defs>
<linearGradient id="paint0_linear_759_49989" x1="2.36719" y1="18.7074" x2="25.5048" y2="18.7074" gradientUnits="userSpaceOnUse">
<stop stop-color="#CDBCF0"/>
<stop offset="1" stop-color="#C0D0FF"/>
</linearGradient>
<linearGradient id="paint1_linear_759_49989" x1="9.13867" y1="15.5315" x2="35.3324" y2="15.5315" gradientUnits="userSpaceOnUse">
<stop stop-color="#CDBCF0"/>
<stop offset="1" stop-color="#C0D0FF"/>
</linearGradient>
<linearGradient id="paint2_linear_759_49989" x1="16.8467" y1="13.0615" x2="26.91" y2="13.0615" gradientUnits="userSpaceOnUse">
<stop stop-color="#CDBCF0"/>
<stop offset="1" stop-color="#C0D0FF"/>
</linearGradient>
<linearGradient id="paint3_linear_759_49989" x1="15.501" y1="17.9892" x2="22.4876" y2="17.9892" gradientUnits="userSpaceOnUse">
<stop stop-color="#CDBCF0"/>
<stop offset="1" stop-color="#C0D0FF"/>
</linearGradient>
</defs>
</svg>
