<svg width="25" height="25" viewBox="0 0 25 25" fill="none" xmlns="http://www.w3.org/2000/svg">
<g id="Icon">
<g id="vuesax/outline/call-calling">
<g id="call-calling">
<path id="Vector" d="M17.95 23.375C16.82 23.375 15.63 23.105 14.4 22.585C13.2 22.075 11.99 21.375 10.81 20.525C9.64 19.665 8.51 18.705 7.44 17.655C6.38 16.585 5.42 15.455 4.57 14.295C3.71 13.095 3.02 11.895 2.53 10.735C2.01 9.495 1.75 8.295 1.75 7.165C1.75 6.385 1.89 5.645 2.16 4.955C2.44 4.245 2.89 3.585 3.5 3.015C4.27 2.255 5.15 1.875 6.09 1.875C6.48 1.875 6.88 1.965 7.22 2.125C7.61 2.305 7.94 2.575 8.18 2.935L10.5 6.205C10.71 6.495 10.87 6.775 10.98 7.055C11.11 7.355 11.18 7.655 11.18 7.945C11.18 8.325 11.07 8.695 10.86 9.045C10.71 9.315 10.48 9.605 10.19 9.895L9.51 10.605C9.52 10.635 9.53 10.655 9.54 10.675C9.66 10.885 9.9 11.245 10.36 11.785C10.85 12.345 11.31 12.855 11.77 13.325C12.36 13.905 12.85 14.365 13.31 14.745C13.88 15.225 14.25 15.465 14.47 15.575L14.45 15.625L15.18 14.905C15.49 14.595 15.79 14.365 16.08 14.215C16.63 13.875 17.33 13.815 18.03 14.105C18.29 14.215 18.57 14.365 18.87 14.575L22.19 16.935C22.56 17.185 22.83 17.505 22.99 17.885C23.14 18.265 23.21 18.615 23.21 18.965C23.21 19.445 23.1 19.925 22.89 20.375C22.68 20.825 22.42 21.215 22.09 21.575C21.52 22.205 20.9 22.655 20.18 22.945C19.49 23.225 18.74 23.375 17.95 23.375ZM6.09 3.375C5.54 3.375 5.03 3.615 4.54 4.095C4.08 4.525 3.76 4.995 3.56 5.505C3.35 6.025 3.25 6.575 3.25 7.165C3.25 8.095 3.47 9.105 3.91 10.145C4.36 11.205 4.99 12.305 5.79 13.405C6.59 14.505 7.5 15.575 8.5 16.585C9.5 17.575 10.58 18.495 11.69 19.305C12.77 20.095 13.88 20.735 14.98 21.195C16.69 21.925 18.29 22.095 19.61 21.545C20.12 21.335 20.57 21.015 20.98 20.555C21.21 20.305 21.39 20.035 21.54 19.715C21.66 19.465 21.72 19.205 21.72 18.945C21.72 18.785 21.69 18.625 21.61 18.445C21.58 18.385 21.52 18.275 21.33 18.145L18.01 15.785C17.81 15.645 17.63 15.545 17.46 15.475C17.24 15.385 17.15 15.295 16.81 15.505C16.61 15.605 16.43 15.755 16.23 15.955L15.47 16.705C15.08 17.085 14.48 17.175 14.02 17.005L13.75 16.885C13.34 16.665 12.86 16.325 12.33 15.875C11.85 15.465 11.33 14.985 10.7 14.365C10.21 13.865 9.72 13.335 9.21 12.745C8.74 12.195 8.4 11.725 8.19 11.335L8.07 11.035C8.01 10.805 7.99 10.675 7.99 10.535C7.99 10.175 8.12 9.855 8.37 9.605L9.12 8.825C9.32 8.625 9.47 8.435 9.57 8.265C9.65 8.135 9.68 8.025 9.68 7.925C9.68 7.845 9.65 7.725 9.6 7.605C9.53 7.445 9.42 7.265 9.28 7.075L6.96 3.795C6.86 3.655 6.74 3.555 6.59 3.485C6.43 3.415 6.26 3.375 6.09 3.375ZM14.45 15.635L14.29 16.315L14.56 15.615C14.51 15.605 14.47 15.615 14.45 15.635Z" fill="white"/>
<path id="Vector_2" d="M19 10.375C18.59 10.375 18.25 10.035 18.25 9.625C18.25 9.265 17.89 8.515 17.29 7.875C16.7 7.245 16.05 6.875 15.5 6.875C15.09 6.875 14.75 6.535 14.75 6.125C14.75 5.715 15.09 5.375 15.5 5.375C16.47 5.375 17.49 5.895 18.38 6.845C19.21 7.735 19.75 8.825 19.75 9.625C19.75 10.035 19.41 10.375 19 10.375Z" fill="white"/>
<path id="Vector_3" d="M22.5 10.375C22.09 10.375 21.75 10.035 21.75 9.625C21.75 6.175 18.95 3.375 15.5 3.375C15.09 3.375 14.75 3.035 14.75 2.625C14.75 2.215 15.09 1.875 15.5 1.875C19.77 1.875 23.25 5.355 23.25 9.625C23.25 10.035 22.91 10.375 22.5 10.375Z" fill="white"/>
</g>
</g>
</g>
</svg>
