<svg width="25" height="25" viewBox="0 0 25 25" fill="none" xmlns="http://www.w3.org/2000/svg">
<g id="Icon">
<g id="vuesax/outline/sms">
<g id="sms">
<path id="Vector" d="M17.5 21.875H7.5C3.85 21.875 1.75 19.775 1.75 16.125V9.125C1.75 5.475 3.85 3.375 7.5 3.375H17.5C21.15 3.375 23.25 5.475 23.25 9.125V16.125C23.25 19.775 21.15 21.875 17.5 21.875ZM7.5 4.875C4.64 4.875 3.25 6.265 3.25 9.125V16.125C3.25 18.985 4.64 20.375 7.5 20.375H17.5C20.36 20.375 21.75 18.985 21.75 16.125V9.125C21.75 6.265 20.36 4.875 17.5 4.875H7.5Z" fill="white"/>
<path id="Vector_2" d="M12.4998 13.495C11.6598 13.495 10.8098 13.235 10.1598 12.705L7.02978 10.205C6.70978 9.94497 6.64978 9.47497 6.90978 9.15497C7.16978 8.83497 7.63978 8.77497 7.95978 9.03497L11.0898 11.535C11.8498 12.145 13.1398 12.145 13.8998 11.535L17.0298 9.03497C17.3498 8.77497 17.8298 8.82497 18.0798 9.15497C18.3398 9.47497 18.2898 9.95497 17.9598 10.205L14.8298 12.705C14.1898 13.235 13.3398 13.495 12.4998 13.495Z" fill="white"/>
</g>
</g>
</g>
</svg>
