<svg width="34" height="34" viewBox="0 0 34 34" fill="none" xmlns="http://www.w3.org/2000/svg">
<g id="Icons/outline/user-add">
<g id="vuesax/outline/user-add">
<g id="user-add">
<path id="Vector" d="M17 17.957C12.6908 17.957 9.18359 14.4498 9.18359 10.1406C9.18359 5.83141 12.6908 2.32422 17 2.32422C21.3092 2.32422 24.8164 5.83141 24.8164 10.1406C24.8164 14.4498 21.3092 17.957 17 17.957ZM17 4.36328C13.8191 4.36328 11.2227 6.95969 11.2227 10.1406C11.2227 13.3216 13.8191 15.918 17 15.918C20.1809 15.918 22.7773 13.3216 22.7773 10.1406C22.7773 6.95969 20.1809 4.36328 17 4.36328Z" fill="url(#paint0_linear_759_49967)"/>
<path id="Vector_2" d="M5.32324 31.5508C4.7659 31.5508 4.30371 31.0886 4.30371 30.5312C4.30371 24.7267 9.99949 19.9961 17.0003 19.9961C18.3732 19.9961 19.719 20.1728 21.024 20.5399C21.5678 20.6894 21.8804 21.2467 21.7309 21.7905C21.5814 22.3342 21.024 22.6469 20.4803 22.4974C19.3656 22.1847 18.1965 22.0352 17.0003 22.0352C11.1278 22.0352 6.34277 25.8414 6.34277 30.5312C6.34277 31.0886 5.88059 31.5508 5.32324 31.5508Z" fill="url(#paint1_linear_759_49967)"/>
<path id="Vector_3" d="M25.1562 31.5508C23.5522 31.5508 22.0297 30.9527 20.847 29.8788C20.3712 29.471 19.9498 28.968 19.6236 28.4106C19.0255 27.4319 18.6992 26.2764 18.6992 25.0938C18.6992 23.3945 19.3517 21.8041 20.5208 20.5942C21.7442 19.33 23.3891 18.6367 25.1562 18.6367C27.005 18.6367 28.7586 19.4252 29.9548 20.7846C31.0152 21.9672 31.6133 23.4897 31.6133 25.0938C31.6133 25.6103 31.5453 26.1269 31.4094 26.6162C31.2734 27.228 31.0151 27.8669 30.6617 28.4242C29.5334 30.3545 27.4128 31.5508 25.1562 31.5508ZM25.1562 20.6758C23.9464 20.6758 22.8317 21.1515 21.9889 22.0079C21.1869 22.8372 20.7383 23.9247 20.7383 25.0938C20.7383 25.8958 20.9558 26.6842 21.3772 27.3639C21.5947 27.7445 21.8801 28.0843 22.2064 28.3698C23.022 29.1175 24.0687 29.5253 25.1562 29.5253C26.6923 29.5253 28.1469 28.7097 28.9353 27.3911C29.1664 27.0105 29.3431 26.5755 29.4383 26.1541C29.5334 25.8007 29.5742 25.4608 29.5742 25.1074C29.5742 24.0199 29.1664 22.9732 28.4323 22.1575C27.6167 21.206 26.4205 20.6758 25.1562 20.6758Z" fill="url(#paint2_linear_759_49967)"/>
<path id="Vector_4" d="M27.1954 26.0861H23.1309C22.5735 26.0861 22.1113 25.6239 22.1113 25.0665C22.1113 24.5092 22.5735 24.047 23.1309 24.047H27.1954C27.7527 24.047 28.2149 24.5092 28.2149 25.0665C28.2149 25.6239 27.7527 26.0861 27.1954 26.0861Z" fill="url(#paint3_linear_759_49967)"/>
<path id="Vector_5" d="M25.1562 28.166C24.5989 28.166 24.1367 27.7038 24.1367 27.1464V23.0819C24.1367 22.5246 24.5989 22.0624 25.1562 22.0624C25.7136 22.0624 26.1758 22.5246 26.1758 23.0819V27.1464C26.1758 27.7174 25.7136 28.166 25.1562 28.166Z" fill="url(#paint4_linear_759_49967)"/>
</g>
</g>
</g>
<defs>
<linearGradient id="paint0_linear_759_49967" x1="9.18359" y1="10.1406" x2="27.4219" y2="10.1406" gradientUnits="userSpaceOnUse">
<stop stop-color="#CDBCF0"/>
<stop offset="1" stop-color="#C0D0FF"/>
</linearGradient>
<linearGradient id="paint1_linear_759_49967" x1="4.30371" y1="25.7734" x2="24.679" y2="25.7734" gradientUnits="userSpaceOnUse">
<stop stop-color="#CDBCF0"/>
<stop offset="1" stop-color="#C0D0FF"/>
</linearGradient>
<linearGradient id="paint2_linear_759_49967" x1="18.6992" y1="25.0937" x2="33.7656" y2="25.0937" gradientUnits="userSpaceOnUse">
<stop stop-color="#CDBCF0"/>
<stop offset="1" stop-color="#C0D0FF"/>
</linearGradient>
<linearGradient id="paint3_linear_759_49967" x1="22.1113" y1="25.0665" x2="29.2322" y2="25.0665" gradientUnits="userSpaceOnUse">
<stop stop-color="#CDBCF0"/>
<stop offset="1" stop-color="#C0D0FF"/>
</linearGradient>
<linearGradient id="paint4_linear_759_49967" x1="24.1367" y1="25.1142" x2="26.5156" y2="25.1142" gradientUnits="userSpaceOnUse">
<stop stop-color="#CDBCF0"/>
<stop offset="1" stop-color="#C0D0FF"/>
</linearGradient>
</defs>
</svg>
