<svg width="16" height="16" viewBox="0 0 16 16" fill="none" xmlns="http://www.w3.org/2000/svg">
<path d="M5.33594 3.83398C5.0626 3.83398 4.83594 3.60732 4.83594 3.33398V1.33398C4.83594 1.06065 5.0626 0.833984 5.33594 0.833984C5.60927 0.833984 5.83594 1.06065 5.83594 1.33398V3.33398C5.83594 3.60732 5.60927 3.83398 5.33594 3.83398Z" fill="#64748B"/>
<path d="M10.6641 3.83398C10.3907 3.83398 10.1641 3.60732 10.1641 3.33398V1.33398C10.1641 1.06065 10.3907 0.833984 10.6641 0.833984C10.9374 0.833984 11.1641 1.06065 11.1641 1.33398V3.33398C11.1641 3.60732 10.9374 3.83398 10.6641 3.83398Z" fill="#64748B"/>
<path d="M5.66667 9.66753C5.58 9.66753 5.49333 9.64753 5.41333 9.6142C5.32667 9.58087 5.26 9.53419 5.19333 9.47419C5.07333 9.34752 5 9.18086 5 9.00086C5 8.91419 5.02 8.82752 5.05333 8.74752C5.08667 8.66752 5.13333 8.5942 5.19333 8.52753C5.26 8.46753 5.32667 8.42085 5.41333 8.38752C5.65333 8.28752 5.95333 8.34086 6.14 8.52753C6.26 8.6542 6.33333 8.82753 6.33333 9.00086C6.33333 9.04086 6.32667 9.08753 6.32 9.1342C6.31333 9.1742 6.3 9.2142 6.28 9.2542C6.26667 9.2942 6.24667 9.33419 6.22 9.37419C6.2 9.40752 6.16667 9.44085 6.14 9.47419C6.01333 9.59419 5.84 9.66753 5.66667 9.66753Z" fill="#64748B"/>
<path d="M8.0026 9.66658C7.91594 9.66658 7.82927 9.64659 7.74927 9.61326C7.6626 9.57992 7.59594 9.53324 7.52927 9.47324C7.40927 9.34658 7.33594 9.17992 7.33594 8.99992C7.33594 8.91325 7.35594 8.82658 7.38927 8.74658C7.42261 8.66658 7.46927 8.59325 7.52927 8.52659C7.59594 8.46659 7.6626 8.41991 7.74927 8.38657C7.98927 8.27991 8.28927 8.33992 8.47594 8.52659C8.59594 8.65325 8.66927 8.82658 8.66927 8.99992C8.66927 9.03992 8.6626 9.08659 8.65594 9.13326C8.64927 9.17326 8.63594 9.21325 8.61594 9.25325C8.6026 9.29325 8.58261 9.33325 8.55594 9.37325C8.53594 9.40658 8.5026 9.43991 8.47594 9.47324C8.34927 9.59324 8.17594 9.66658 8.0026 9.66658Z" fill="#64748B"/>
<path d="M10.3307 9.66658C10.2441 9.66658 10.1574 9.64659 10.0774 9.61326C9.99073 9.57992 9.92406 9.53324 9.8574 9.47324C9.83073 9.43991 9.80406 9.40658 9.77739 9.37325C9.75073 9.33325 9.73073 9.29325 9.7174 9.25325C9.6974 9.21325 9.68406 9.17326 9.6774 9.13326C9.67073 9.08659 9.66406 9.03992 9.66406 8.99992C9.66406 8.82658 9.7374 8.65325 9.8574 8.52659C9.92406 8.46659 9.99073 8.41991 10.0774 8.38657C10.3241 8.27991 10.6174 8.33992 10.8041 8.52659C10.9241 8.65325 10.9974 8.82658 10.9974 8.99992C10.9974 9.03992 10.9907 9.08659 10.9841 9.13326C10.9774 9.17326 10.9641 9.21325 10.9441 9.25325C10.9307 9.29325 10.9107 9.33325 10.8841 9.37325C10.8641 9.40658 10.8307 9.43991 10.8041 9.47324C10.6774 9.59324 10.5041 9.66658 10.3307 9.66658Z" fill="#64748B"/>
<path d="M5.66667 12.0008C5.58 12.0008 5.49333 11.9808 5.41333 11.9475C5.33333 11.9141 5.26 11.8674 5.19333 11.8074C5.07333 11.6808 5 11.5074 5 11.3341C5 11.2474 5.02 11.1608 5.05333 11.0808C5.08667 10.9941 5.13333 10.9208 5.19333 10.8608C5.44 10.6141 5.89333 10.6141 6.14 10.8608C6.26 10.9874 6.33333 11.1608 6.33333 11.3341C6.33333 11.5074 6.26 11.6808 6.14 11.8074C6.01333 11.9274 5.84 12.0008 5.66667 12.0008Z" fill="#64748B"/>
<path d="M8.0026 12.0008C7.82927 12.0008 7.65594 11.9274 7.52927 11.8074C7.40927 11.6808 7.33594 11.5074 7.33594 11.3341C7.33594 11.2474 7.35594 11.1608 7.38927 11.0808C7.42261 10.9941 7.46927 10.9208 7.52927 10.8608C7.77594 10.6141 8.22927 10.6141 8.47594 10.8608C8.53594 10.9208 8.5826 10.9941 8.61594 11.0808C8.64927 11.1608 8.66927 11.2474 8.66927 11.3341C8.66927 11.5074 8.59594 11.6808 8.47594 11.8074C8.34927 11.9274 8.17594 12.0008 8.0026 12.0008Z" fill="#64748B"/>
<path d="M10.3307 11.9999C10.1574 11.9999 9.98406 11.9266 9.8574 11.8066C9.7974 11.7466 9.75073 11.6733 9.7174 11.5866C9.68406 11.5066 9.66406 11.4199 9.66406 11.3333C9.66406 11.2466 9.68406 11.1599 9.7174 11.0799C9.75073 10.9933 9.7974 10.9199 9.8574 10.8599C10.0107 10.7066 10.2441 10.6333 10.4574 10.6799C10.5041 10.6866 10.5441 10.6999 10.5841 10.7199C10.6241 10.7333 10.6641 10.7533 10.7041 10.78C10.7374 10.8 10.7707 10.8333 10.8041 10.8599C10.9241 10.9866 10.9974 11.1599 10.9974 11.3333C10.9974 11.5066 10.9241 11.6799 10.8041 11.8066C10.6774 11.9266 10.5041 11.9999 10.3307 11.9999Z" fill="#64748B"/>
<path d="M13.6693 6.56055H2.33594C2.0626 6.56055 1.83594 6.33388 1.83594 6.06055C1.83594 5.78721 2.0626 5.56055 2.33594 5.56055H13.6693C13.9426 5.56055 14.1693 5.78721 14.1693 6.06055C14.1693 6.33388 13.9426 6.56055 13.6693 6.56055Z" fill="#64748B"/>
<path d="M10.6667 15.1673H5.33333C2.9 15.1673 1.5 13.7673 1.5 11.334V5.66732C1.5 3.23398 2.9 1.83398 5.33333 1.83398H10.6667C13.1 1.83398 14.5 3.23398 14.5 5.66732V11.334C14.5 13.7673 13.1 15.1673 10.6667 15.1673ZM5.33333 2.83398C3.42667 2.83398 2.5 3.76065 2.5 5.66732V11.334C2.5 13.2407 3.42667 14.1673 5.33333 14.1673H10.6667C12.5733 14.1673 13.5 13.2407 13.5 11.334V5.66732C13.5 3.76065 12.5733 2.83398 10.6667 2.83398H5.33333Z" fill="#64748B"/>
</svg>
