<svg width="16" height="16" viewBox="0 0 16 16" fill="none" xmlns="http://www.w3.org/2000/svg">
<path d="M11.6359 15.1673C10.8826 15.1673 10.0893 14.9873 9.26927 14.6407C8.46927 14.3007 7.6626 13.834 6.87594 13.2673C6.09594 12.694 5.3426 12.054 4.62927 11.354C3.9226 10.6407 3.2826 9.88732 2.71594 9.11399C2.1426 8.31398 1.6826 7.51398 1.35594 6.74065C1.00927 5.91398 0.835938 5.11398 0.835938 4.36065C0.835938 3.84065 0.929271 3.34732 1.10927 2.88732C1.29594 2.41398 1.59594 1.97398 2.0026 1.59398C2.51594 1.08732 3.1026 0.833984 3.72927 0.833984C3.98927 0.833984 4.25594 0.893984 4.4826 1.00065C4.7426 1.12065 4.9626 1.30065 5.1226 1.54065L6.66927 3.72065C6.80927 3.91398 6.91594 4.10065 6.98927 4.28732C7.07594 4.48732 7.1226 4.68732 7.1226 4.88065C7.1226 5.13398 7.04927 5.38065 6.90927 5.61398C6.80927 5.79398 6.65594 5.98732 6.4626 6.18065L6.00927 6.65398C6.01594 6.67398 6.0226 6.68732 6.02927 6.70065C6.10927 6.84065 6.26927 7.08065 6.57594 7.44065C6.9026 7.81398 7.20927 8.15398 7.51594 8.46732C7.90927 8.85398 8.23594 9.16065 8.5426 9.41398C8.9226 9.73398 9.16927 9.89398 9.31594 9.96732L9.3026 10.0007L9.78927 9.52065C9.99594 9.31398 10.1959 9.16065 10.3893 9.06065C10.7559 8.83398 11.2226 8.79398 11.6893 8.98732C11.8626 9.06065 12.0493 9.16065 12.2493 9.30065L14.4626 10.874C14.7093 11.0407 14.8893 11.254 14.9959 11.5073C15.0959 11.7607 15.1426 11.994 15.1426 12.2273C15.1426 12.5473 15.0693 12.8673 14.9293 13.1673C14.7893 13.4673 14.6159 13.7273 14.3959 13.9673C14.0159 14.3873 13.6026 14.6873 13.1226 14.8807C12.6626 15.0673 12.1626 15.1673 11.6359 15.1673ZM3.72927 1.83398C3.3626 1.83398 3.0226 1.99398 2.69594 2.31398C2.38927 2.60065 2.17594 2.91398 2.0426 3.25398C1.9026 3.60065 1.83594 3.96732 1.83594 4.36065C1.83594 4.98065 1.9826 5.65399 2.27594 6.34732C2.57594 7.05398 2.99594 7.78732 3.52927 8.52065C4.0626 9.25398 4.66927 9.96732 5.33594 10.6407C6.0026 11.3007 6.7226 11.914 7.4626 12.454C8.1826 12.9807 8.9226 13.4073 9.65594 13.714C10.7959 14.2007 11.8626 14.314 12.7426 13.9473C13.0826 13.8073 13.3826 13.594 13.6559 13.2873C13.8093 13.1207 13.9293 12.9407 14.0293 12.7273C14.1093 12.5607 14.1493 12.3873 14.1493 12.214C14.1493 12.1073 14.1293 12.0007 14.0759 11.8807C14.0559 11.8407 14.0159 11.7673 13.8893 11.6807L11.6759 10.1073C11.5426 10.014 11.4226 9.94732 11.3093 9.90065C11.1626 9.84065 11.1026 9.78065 10.8759 9.92065C10.7426 9.98732 10.6226 10.0873 10.4893 10.2207L9.9826 10.7207C9.7226 10.974 9.32261 11.034 9.01594 10.9207L8.83594 10.8407C8.5626 10.694 8.2426 10.4673 7.88927 10.1673C7.56927 9.89398 7.2226 9.57398 6.8026 9.16065C6.47594 8.82732 6.14927 8.47398 5.80927 8.08065C5.49594 7.71398 5.26927 7.40065 5.12927 7.14065L5.04927 6.94065C5.00927 6.78732 4.99594 6.70065 4.99594 6.60732C4.99594 6.36732 5.0826 6.15398 5.24927 5.98732L5.74927 5.46732C5.8826 5.33398 5.9826 5.20732 6.04927 5.09398C6.1026 5.00732 6.1226 4.93398 6.1226 4.86732C6.1226 4.81398 6.1026 4.73398 6.06927 4.65398C6.0226 4.54732 5.94927 4.42732 5.85594 4.30065L4.30927 2.11398C4.2426 2.02065 4.1626 1.95398 4.0626 1.90732C3.95594 1.86065 3.8426 1.83398 3.72927 1.83398ZM9.3026 10.0073L9.19594 10.4607L9.37594 9.99398C9.3426 9.98732 9.31594 9.99399 9.3026 10.0073Z" fill="#64748B"/>
<path d="M12.3333 6.49935C12.06 6.49935 11.8333 6.27268 11.8333 5.99935C11.8333 5.75935 11.5933 5.25935 11.1933 4.83268C10.8 4.41268 10.3667 4.16602 10 4.16602C9.72667 4.16602 9.5 3.93935 9.5 3.66602C9.5 3.39268 9.72667 3.16602 10 3.16602C10.6467 3.16602 11.3267 3.51268 11.92 4.14602C12.4733 4.73935 12.8333 5.46602 12.8333 5.99935C12.8333 6.27268 12.6067 6.49935 12.3333 6.49935Z" fill="#64748B"/>
<path d="M14.6667 6.50065C14.3933 6.50065 14.1667 6.27398 14.1667 6.00065C14.1667 3.70065 12.3 1.83398 10 1.83398C9.72667 1.83398 9.5 1.60732 9.5 1.33398C9.5 1.06065 9.72667 0.833984 10 0.833984C12.8467 0.833984 15.1667 3.15398 15.1667 6.00065C15.1667 6.27398 14.94 6.50065 14.6667 6.50065Z" fill="#64748B"/>
</svg>
