<svg width="12" height="12" viewBox="0 0 12 12" fill="none" xmlns="http://www.w3.org/2000/svg">
<path d="M2.76902 9.75978C2.46402 9.75978 2.17902 9.65478 1.97402 9.45978C1.71402 9.21478 1.58902 8.84478 1.63402 8.44478L1.81902 6.82478C1.85402 6.51978 2.03902 6.11478 2.25402 5.89478L6.35902 1.54978C7.38402 0.46478 8.45402 0.43478 9.53902 1.45978C10.624 2.48478 10.654 3.55478 9.62902 4.63978L5.52402 8.98478C5.31402 9.20978 4.92402 9.41978 4.61902 9.46978L3.00902 9.74478C2.92402 9.74978 2.84902 9.75978 2.76902 9.75978ZM7.96402 1.45478C7.57902 1.45478 7.24402 1.69478 6.90402 2.05478L2.79902 6.40478C2.69902 6.50978 2.58402 6.75978 2.56402 6.90478L2.37902 8.52478C2.35902 8.68978 2.39902 8.82478 2.48902 8.90978C2.57902 8.99478 2.71402 9.02478 2.87902 8.99978L4.48902 8.72478C4.63402 8.69978 4.87402 8.56978 4.97402 8.46478L9.07902 4.11978C9.69902 3.45978 9.92402 2.84978 9.01902 1.99978C8.61902 1.61478 8.27402 1.45478 7.96402 1.45478Z" fill="white"/>
<path d="M8.67217 5.47444C8.66217 5.47444 8.64717 5.47444 8.63717 5.47444C7.07717 5.31944 5.82217 4.13444 5.58217 2.58444C5.55217 2.37944 5.69217 2.18944 5.89717 2.15444C6.10217 2.12444 6.29217 2.26444 6.32717 2.46944C6.51717 3.67944 7.49717 4.60944 8.71717 4.72944C8.92217 4.74944 9.07217 4.93444 9.05217 5.13944C9.02717 5.32944 8.86217 5.47444 8.67217 5.47444Z" fill="white"/>
<path d="M10.5 11.375L1.5 11.375C1.295 11.375 1.125 11.205 1.125 11C1.125 10.795 1.295 10.625 1.5 10.625L10.5 10.625C10.705 10.625 10.875 10.795 10.875 11C10.875 11.205 10.705 11.375 10.5 11.375Z" fill="white"/>
</svg>
