<svg width="17" height="16" viewBox="0 0 17 16" fill="none" xmlns="http://www.w3.org/2000/svg">
<path d="M7.33073 14.8333C4.20406 14.8333 1.66406 12.2933 1.66406 9.16667C1.66406 6.04 4.20406 3.5 7.33073 3.5C10.4574 3.5 12.9974 6.04 12.9974 9.16667C12.9974 12.2933 10.4574 14.8333 7.33073 14.8333ZM7.33073 4.5C4.7574 4.5 2.66406 6.59333 2.66406 9.16667C2.66406 11.74 4.7574 13.8333 7.33073 13.8333C9.90406 13.8333 11.9974 11.74 11.9974 9.16667C11.9974 6.59333 9.90406 4.5 7.33073 4.5Z" fill="#64748B"/>
<path d="M11.1702 5.83297C11.0435 5.83297 10.9169 5.7863 10.8169 5.6863C10.6235 5.49297 10.6235 5.17297 10.8169 4.97964L14.4835 1.31297C14.6769 1.11964 14.9969 1.11964 15.1902 1.31297C15.3835 1.5063 15.3835 1.8263 15.1902 2.01964L11.5235 5.6863C11.4235 5.7863 11.2969 5.83297 11.1702 5.83297Z" fill="#64748B"/>
<path d="M14.8333 6.49935C14.56 6.49935 14.3333 6.27268 14.3333 5.99935V2.16602H10.5C10.2267 2.16602 10 1.93935 10 1.66602C10 1.39268 10.2267 1.16602 10.5 1.16602H14.8333C15.1067 1.16602 15.3333 1.39268 15.3333 1.66602V5.99935C15.3333 6.27268 15.1067 6.49935 14.8333 6.49935Z" fill="#465468"/>
</svg>
