<svg width="16" height="16" viewBox="0 0 16 16" fill="none" xmlns="http://www.w3.org/2000/svg">
<path d="M8.10573 7.74732C8.08573 7.74732 8.0724 7.74732 8.0524 7.74732C8.01906 7.74065 7.9724 7.74065 7.9324 7.74732C5.99906 7.68732 4.53906 6.16732 4.53906 4.29398C4.53906 2.38732 6.0924 0.833984 7.99906 0.833984C9.90573 0.833984 11.4591 2.38732 11.4591 4.29398C11.4524 6.16732 9.98573 7.68732 8.12573 7.74732C8.11906 7.74732 8.1124 7.74732 8.10573 7.74732ZM7.99906 1.83398C6.64573 1.83398 5.53906 2.94065 5.53906 4.29398C5.53906 5.62732 6.57906 6.70065 7.90573 6.74732C7.93906 6.74065 8.0324 6.74065 8.11906 6.74732C9.42573 6.68732 10.4524 5.61398 10.4591 4.29398C10.4591 2.94065 9.3524 1.83398 7.99906 1.83398Z" fill="#64748B"/>
<path d="M8.10917 15.0327C6.8025 15.0327 5.48917 14.6993 4.49583 14.0327C3.56917 13.4193 3.0625 12.5793 3.0625 11.666C3.0625 10.7527 3.56917 9.90602 4.49583 9.28602C6.49583 7.95935 9.73583 7.95935 11.7225 9.28602C12.6425 9.89935 13.1558 10.7393 13.1558 11.6527C13.1558 12.566 12.6492 13.4127 11.7225 14.0327C10.7225 14.6993 9.41583 15.0327 8.10917 15.0327ZM5.04917 10.126C4.40917 10.5527 4.0625 11.0993 4.0625 11.6727C4.0625 12.2393 4.41583 12.786 5.04917 13.206C6.70917 14.3193 9.50917 14.3193 11.1692 13.206C11.8092 12.7793 12.1558 12.2327 12.1558 11.6593C12.1558 11.0927 11.8025 10.546 11.1692 10.126C9.50917 9.01935 6.70917 9.01935 5.04917 10.126Z" fill="#64748B"/>
</svg>
