<svg width="16" height="16" viewBox="0 0 16 16" fill="none" xmlns="http://www.w3.org/2000/svg">
<path d="M11.3359 14.1673H4.66927C2.23594 14.1673 0.835938 12.7673 0.835938 10.334V5.66732C0.835938 3.23398 2.23594 1.83398 4.66927 1.83398H11.3359C13.7693 1.83398 15.1693 3.23398 15.1693 5.66732V10.334C15.1693 12.7673 13.7693 14.1673 11.3359 14.1673ZM4.66927 2.83398C2.7626 2.83398 1.83594 3.76065 1.83594 5.66732V10.334C1.83594 12.2407 2.7626 13.1673 4.66927 13.1673H11.3359C13.2426 13.1673 14.1693 12.2407 14.1693 10.334V5.66732C14.1693 3.76065 13.2426 2.83398 11.3359 2.83398H4.66927Z" fill="#64748B"/>
<path d="M7.9992 8.57998C7.4392 8.57998 6.87254 8.40665 6.4392 8.05331L4.35253 6.38665C4.1392 6.21331 4.0992 5.89998 4.27254 5.68665C4.44587 5.47331 4.75921 5.43332 4.97254 5.60665L7.0592 7.27332C7.56587 7.67998 8.42586 7.67998 8.93253 7.27332L11.0192 5.60665C11.2325 5.43332 11.5525 5.46665 11.7192 5.68665C11.8925 5.89998 11.8592 6.21998 11.6392 6.38665L9.55254 8.05331C9.12587 8.40665 8.5592 8.57998 7.9992 8.57998Z" fill="#64748B"/>
</svg>
