<svg width="18" height="18" viewBox="0 0 18 18" fill="none" xmlns="http://www.w3.org/2000/svg">
<rect width="18" height="18" rx="9" fill="#F3F4F6"/>
<path d="M8.74148 4.15341C9.13068 4.15625 9.5142 4.22727 9.89205 4.36648C10.2699 4.50568 10.6108 4.73295 10.9148 5.0483C11.2216 5.36364 11.4659 5.78977 11.6477 6.3267C11.8324 6.8608 11.9261 7.52557 11.929 8.32102C11.929 9.08523 11.8523 9.76562 11.6989 10.3622C11.5455 10.956 11.3253 11.4574 11.0384 11.8665C10.7543 12.2756 10.4091 12.5866 10.0028 12.7997C9.59659 13.0128 9.1392 13.1193 8.63068 13.1193C8.1108 13.1193 7.64915 13.017 7.24574 12.8125C6.84233 12.608 6.5142 12.3253 6.26136 11.9645C6.00852 11.6009 5.85085 11.1832 5.78835 10.7116H7.08807C7.1733 11.0866 7.34659 11.3906 7.60795 11.6236C7.87216 11.8537 8.21307 11.9688 8.63068 11.9688C9.26989 11.9688 9.76847 11.6903 10.1264 11.1335C10.4844 10.5739 10.6648 9.79261 10.6676 8.78977H10.5994C10.4517 9.03409 10.267 9.24432 10.0455 9.42045C9.8267 9.59659 9.58097 9.73295 9.30824 9.82955C9.03551 9.92614 8.74432 9.97443 8.43466 9.97443C7.93182 9.97443 7.47443 9.85085 7.0625 9.60369C6.65057 9.35653 6.32244 9.01705 6.07812 8.58523C5.83381 8.15341 5.71165 7.66051 5.71165 7.10653C5.71165 6.5554 5.83665 6.0554 6.08665 5.60653C6.33949 5.15767 6.69176 4.80256 7.14347 4.54119C7.59801 4.27699 8.13068 4.14773 8.74148 4.15341ZM8.74574 5.26136C8.41335 5.26136 8.11364 5.34375 7.84659 5.50852C7.58239 5.67045 7.37358 5.89062 7.22017 6.16903C7.06676 6.4446 6.99006 6.75142 6.99006 7.08949C6.99006 7.42756 7.06392 7.73437 7.21165 8.00994C7.36222 8.28267 7.56676 8.5 7.82528 8.66193C8.08665 8.82102 8.38494 8.90057 8.72017 8.90057C8.97017 8.90057 9.20313 8.85227 9.41903 8.75568C9.63494 8.65909 9.82386 8.52557 9.9858 8.35511C10.1477 8.18182 10.2741 7.9858 10.3651 7.76705C10.456 7.5483 10.5014 7.31818 10.5014 7.0767C10.5014 6.75568 10.4247 6.45739 10.2713 6.18182C10.1207 5.90625 9.91335 5.68466 9.64915 5.51705C9.38494 5.34659 9.08381 5.26136 8.74574 5.26136Z" fill="#798594"/>
</svg>
