<svg width="14" height="14" viewBox="0 0 14 14" fill="none" xmlns="http://www.w3.org/2000/svg">
<path d="M6.70866 12.6873C3.41283 12.6873 0.729492 10.004 0.729492 6.70817C0.729492 3.41234 3.41283 0.729004 6.70866 0.729004C10.0045 0.729004 12.6878 3.41234 12.6878 6.70817C12.6878 10.004 10.0045 12.6873 6.70866 12.6873ZM6.70866 1.604C3.89116 1.604 1.60449 3.8965 1.60449 6.70817C1.60449 9.51984 3.89116 11.8123 6.70866 11.8123C9.52616 11.8123 11.8128 9.51984 11.8128 6.70817C11.8128 3.8965 9.52616 1.604 6.70866 1.604Z" fill="#64748B"/>
<path d="M12.8332 13.2707C12.7223 13.2707 12.6115 13.2298 12.524 13.1423L11.3573 11.9757C11.1882 11.8065 11.1882 11.5265 11.3573 11.3573C11.5265 11.1882 11.8065 11.1882 11.9757 11.3573L13.1423 12.524C13.3115 12.6932 13.3115 12.9732 13.1423 13.1423C13.0548 13.2298 12.944 13.2707 12.8332 13.2707Z" fill="#64748B"/>
</svg>
