<svg width="20" height="20" viewBox="0 0 20 20" fill="none" xmlns="http://www.w3.org/2000/svg">
<path d="M9.99984 1.67944C5.40817 1.67944 1.6665 5.41535 1.6665 9.99996C1.6665 14.5846 5.40817 18.3205 9.99984 18.3205C14.5915 18.3205 18.3332 14.5846 18.3332 9.99996C18.3332 5.41535 14.5915 1.67944 9.99984 1.67944ZM13.9832 8.08624L9.25817 12.804C9.1415 12.9205 8.98317 12.987 8.8165 12.987C8.64984 12.987 8.4915 12.9205 8.37484 12.804L6.0165 10.4493C5.77484 10.208 5.77484 9.80858 6.0165 9.56729C6.25817 9.32599 6.65817 9.32599 6.89984 9.56729L8.8165 11.481L13.0998 7.20426C13.3415 6.96297 13.7415 6.96297 13.9832 7.20426C14.2248 7.44556 14.2248 7.83662 13.9832 8.08624Z" fill="#465468"/>
</svg>
