<svg width="20" height="21" viewBox="0 0 20 21" fill="none" xmlns="http://www.w3.org/2000/svg">
<path d="M10.0002 1.76461C10.0002 1.76461 15.1578 1.53399 17.8922 6.69966H9.56133C9.56133 6.69966 7.98913 6.64917 6.64611 8.54968C6.26031 9.34738 5.84563 10.1691 6.31099 11.7885C5.64061 10.6568 2.75195 5.64493 2.75195 5.64493C2.75195 5.64493 4.78945 1.96883 10.0001 1.76461H10.0002Z" fill="#EF3F36"/>
<path d="M17.6245 14.8783C17.6245 14.8783 15.2446 19.4457 9.39014 19.2198C10.1135 17.9728 13.5567 12.0311 13.5567 12.0311C13.5567 12.0311 14.3886 10.7 13.4072 8.59054C12.9081 7.85774 12.3993 7.0913 10.7597 6.6828C12.0787 6.67086 17.8777 6.6828 17.8777 6.6828C17.8777 6.6828 20.0502 10.2796 17.6245 14.8783Z" fill="#FCD900"/>
<path d="M2.41195 14.9143C2.41195 14.9143 -0.368242 10.5775 2.75672 5.6377C3.47771 6.8847 6.92095 12.8264 6.92095 12.8264C6.92095 12.8264 7.66364 14.2104 9.98565 14.4169C10.8706 14.3521 11.7917 14.2968 12.9685 13.0883C12.3197 14.232 9.40929 19.2295 9.40929 19.2295C9.40929 19.2295 5.19446 19.3064 2.41188 14.9143H2.41195Z" fill="#61BC5B"/>
<path d="M9.3877 19.263L10.5595 14.3905C10.5595 14.3905 11.8472 14.2895 12.9275 13.1099C12.2571 14.2848 9.3877 19.263 9.3877 19.263Z" fill="#5AB055"/>
<path d="M6.07471 10.5678C6.07471 8.41991 7.8229 6.67798 9.97852 6.67798C12.1341 6.67798 13.8823 8.41991 13.8823 10.5678C13.8823 12.7158 12.1341 14.4577 9.97852 14.4577C7.8229 14.4553 6.07471 12.7158 6.07471 10.5678Z" fill="white"/>
<path d="M6.72803 10.5679C6.72803 8.78033 8.18205 7.3291 9.97846 7.3291C11.7724 7.3291 13.2288 8.77794 13.2288 10.5679C13.2288 12.3555 11.7749 13.8067 9.97846 13.8067C8.18445 13.8067 6.72803 12.3555 6.72803 10.5679Z" fill="url(#paint0_linear_331_47963)"/>
<path d="M17.8753 6.68522L13.0504 8.09558C13.0504 8.09558 12.3222 7.03116 10.7573 6.68522C12.1149 6.67799 17.8753 6.68522 17.8753 6.68522Z" fill="#EACA05"/>
<path d="M6.21697 11.6107C5.53933 10.4406 2.75195 5.6449 2.75195 5.6449L6.32543 9.16719C6.32543 9.16719 5.95888 9.91924 6.09638 10.9956L6.2169 11.6107H6.21697Z" fill="#DF3A32"/>
<defs>
<linearGradient id="paint0_linear_331_47963" x1="9.97829" y1="7.37483" x2="9.97829" y2="13.6117" gradientUnits="userSpaceOnUse">
<stop stop-color="#86BBE5"/>
<stop offset="1" stop-color="#1072BA"/>
</linearGradient>
</defs>
</svg>
