<svg width="14" height="14" viewBox="0 0 14 14" fill="none" xmlns="http://www.w3.org/2000/svg">
<path d="M3.60484 13.271C3.5465 13.271 3.48234 13.2651 3.42984 13.2593L2.164 13.0843C1.55734 13.0026 1.009 12.4601 0.915669 11.8418L0.740669 10.5643C0.682336 10.156 0.857336 9.62512 1.149 9.32762L3.70984 6.76679C3.29567 5.11012 3.774 3.36012 4.99317 2.15262C6.88317 0.268451 9.95734 0.262618 11.8532 2.15262C12.769 3.06845 13.2707 4.28762 13.2707 5.58262C13.2707 6.87762 12.769 8.09679 11.8532 9.01262C10.6282 10.226 8.884 10.7043 7.239 10.2843L4.67234 12.8451C4.42734 13.1018 3.98984 13.271 3.60484 13.271ZM8.41734 1.61012C7.3965 1.61012 6.3815 1.99512 5.60567 2.77095C4.55567 3.81512 4.1765 5.34345 4.614 6.76679C4.66067 6.92429 4.61984 7.08762 4.50317 7.20429L1.7615 9.94595C1.66234 10.0451 1.58067 10.3018 1.59817 10.436L1.77317 11.7135C1.80817 11.9351 2.04734 12.186 2.269 12.2151L3.54067 12.3901C3.68067 12.4135 3.93734 12.3318 4.0365 12.2326L6.78984 9.48512C6.9065 9.36845 7.07567 9.33345 7.22734 9.38012C8.63317 9.82345 10.1673 9.44429 11.2173 8.39429C11.964 7.64762 12.3782 6.64429 12.3782 5.58262C12.3782 4.51512 11.964 3.51762 11.2173 2.77095C10.459 2.00095 9.43817 1.61012 8.41734 1.61012Z" fill="white"/>
<path d="M5.36072 11.9816C5.24988 11.9816 5.13905 11.9407 5.05155 11.8532L3.70988 10.5116C3.54072 10.3424 3.54072 10.0624 3.70988 9.89323C3.87905 9.72407 4.15905 9.72407 4.32822 9.89323L5.66988 11.2349C5.83905 11.4041 5.83905 11.6841 5.66988 11.8532C5.58238 11.9407 5.47155 11.9816 5.36072 11.9816Z" fill="white"/>
<path d="M8.45801 6.85425C7.73467 6.85425 7.14551 6.26508 7.14551 5.54175C7.14551 4.81841 7.73467 4.22925 8.45801 4.22925C9.18134 4.22925 9.77051 4.81841 9.77051 5.54175C9.77051 6.26508 9.18134 6.85425 8.45801 6.85425ZM8.45801 5.10425C8.21884 5.10425 8.02051 5.30258 8.02051 5.54175C8.02051 5.78091 8.21884 5.97925 8.45801 5.97925C8.69717 5.97925 8.89551 5.78091 8.89551 5.54175C8.89551 5.30258 8.69717 5.10425 8.45801 5.10425Z" fill="white"/>
</svg>
