<svg width="56" height="56" viewBox="0 0 56 56" fill="none" xmlns="http://www.w3.org/2000/svg">
<rect x="4" y="4" width="48" height="48" rx="24" fill="url(#paint0_linear_331_43687)"/>
<path d="M22.1801 38.7499C22.0801 38.7499 21.9701 38.7399 21.8801 38.7299L19.7101 38.4299C18.6701 38.2899 17.7301 37.3599 17.5701 36.2999L17.2701 34.1099C17.1701 33.4099 17.4701 32.4999 17.9701 31.9899L22.3601 27.5999C21.6501 24.7599 22.4701 21.7599 24.5601 19.6899C27.8001 16.4599 33.0701 16.4499 36.3201 19.6899C37.8901 21.2599 38.7501 23.3499 38.7501 25.5699C38.7501 27.7899 37.8901 29.8799 36.3201 31.4499C34.2201 33.5299 31.2301 34.3499 28.4101 33.6299L24.0101 38.0199C23.5901 38.4599 22.8401 38.7499 22.1801 38.7499ZM30.4301 18.7599C28.6801 18.7599 26.9401 19.4199 25.6101 20.7499C23.8101 22.5399 23.1601 25.1599 23.9101 27.5999C23.9901 27.8699 23.9201 28.1499 23.7201 28.3499L19.0201 33.0499C18.8501 33.2199 18.7101 33.6599 18.7401 33.8899L19.0401 36.0799C19.1001 36.4599 19.5101 36.8899 19.8901 36.9399L22.0701 37.2399C22.3101 37.2799 22.7501 37.1399 22.9201 36.9699L27.6401 32.2599C27.8401 32.0599 28.1301 31.9999 28.3901 32.0799C30.8001 32.8399 33.4301 32.1899 35.2301 30.3899C36.5101 29.1099 37.2201 27.3899 37.2201 25.5699C37.2201 23.7399 36.5101 22.0299 35.2301 20.7499C33.9301 19.4299 32.1801 18.7599 30.4301 18.7599Z" fill="url(#paint1_linear_331_43687)"/>
<path d="M25.1901 36.5399C25.0001 36.5399 24.8101 36.4699 24.6601 36.3199L22.3601 34.0199C22.0701 33.7299 22.0701 33.2499 22.3601 32.9599C22.6501 32.6699 23.1301 32.6699 23.4201 32.9599L25.7201 35.2599C26.0101 35.5499 26.0101 36.0299 25.7201 36.3199C25.5701 36.4699 25.3801 36.5399 25.1901 36.5399Z" fill="url(#paint2_linear_331_43687)"/>
<path d="M30.5 27.75C29.26 27.75 28.25 26.74 28.25 25.5C28.25 24.26 29.26 23.25 30.5 23.25C31.74 23.25 32.75 24.26 32.75 25.5C32.75 26.74 31.74 27.75 30.5 27.75ZM30.5 24.75C30.09 24.75 29.75 25.09 29.75 25.5C29.75 25.91 30.09 26.25 30.5 26.25C30.91 26.25 31.25 25.91 31.25 25.5C31.25 25.09 30.91 24.75 30.5 24.75Z" fill="url(#paint3_linear_331_43687)"/>
<rect x="4" y="4" width="48" height="48" rx="24" stroke="url(#paint4_linear_331_43687)" stroke-width="8"/>
<defs>
<linearGradient id="paint0_linear_331_43687" x1="4" y1="28" x2="60" y2="28" gradientUnits="userSpaceOnUse">
<stop stop-color="#E8DCFF"/>
<stop offset="1" stop-color="#EBF0FF"/>
</linearGradient>
<linearGradient id="paint1_linear_331_43687" x1="17.251" y1="28.0068" x2="42.3333" y2="28.0068" gradientUnits="userSpaceOnUse">
<stop stop-color="#5F27CD"/>
<stop offset="1" stop-color="#3366FF"/>
</linearGradient>
<linearGradient id="paint2_linear_331_43687" x1="22.1426" y1="34.6412" x2="26.5701" y2="34.6412" gradientUnits="userSpaceOnUse">
<stop stop-color="#5F27CD"/>
<stop offset="1" stop-color="#3366FF"/>
</linearGradient>
<linearGradient id="paint3_linear_331_43687" x1="28.25" y1="25.5" x2="33.5" y2="25.5" gradientUnits="userSpaceOnUse">
<stop stop-color="#5F27CD"/>
<stop offset="1" stop-color="#3366FF"/>
</linearGradient>
<linearGradient id="paint4_linear_331_43687" x1="4" y1="28" x2="60" y2="28" gradientUnits="userSpaceOnUse">
<stop stop-color="#CDBCF0"/>
<stop offset="1" stop-color="#C0D0FF"/>
</linearGradient>
</defs>
</svg>
