<svg width="14" height="14" viewBox="0 0 14 14" fill="none" xmlns="http://www.w3.org/2000/svg">
<path d="M8.88997 12.9908H8.81414C6.22413 12.9908 4.9758 11.97 4.75997 9.68332C4.73663 9.44416 4.91163 9.22832 5.15663 9.20499C5.38997 9.18165 5.61163 9.36249 5.63497 9.60166C5.80413 11.4333 6.66747 12.1158 8.81997 12.1158H8.8958C11.27 12.1158 12.11 11.2758 12.11 8.90166V5.09832C12.11 2.72416 11.27 1.88416 8.8958 1.88416H8.81997C6.6558 1.88416 5.79247 2.57832 5.63497 4.44499C5.6058 4.68416 5.40163 4.86499 5.15663 4.84166C4.91163 4.82416 4.73663 4.60832 4.75413 4.36916C4.95247 2.04749 6.20663 1.00916 8.81414 1.00916H8.88997C11.7541 1.00916 12.9791 2.23416 12.9791 5.09832L12.9791 8.90166C12.9791 11.7658 11.7541 12.9908 8.88997 12.9908Z" fill="#64748B"/>
<path d="M8.74966 7.4375L2.11133 7.4375C1.87216 7.4375 1.67383 7.23917 1.67383 7C1.67383 6.76083 1.87216 6.5625 2.11133 6.5625L8.74966 6.5625C8.98883 6.5625 9.18716 6.76083 9.18716 7C9.18716 7.23917 8.98883 7.4375 8.74966 7.4375Z" fill="#64748B"/>
<path d="M3.41267 9.39162C3.30184 9.39162 3.191 9.35078 3.1035 9.26328L1.14934 7.30912C0.980169 7.13995 0.980169 6.85995 1.14934 6.69078L3.1035 4.73662C3.27267 4.56745 3.55267 4.56745 3.72184 4.73662C3.891 4.90578 3.891 5.18578 3.72184 5.35495L2.07684 6.99995L3.72184 8.64495C3.891 8.81412 3.891 9.09412 3.72184 9.26328C3.64017 9.35078 3.5235 9.39162 3.41267 9.39162Z" fill="#64748B"/>
</svg>
