<svg width="20" height="21" viewBox="0 0 20 21" fill="none" xmlns="http://www.w3.org/2000/svg">
<path d="M10 19.254C14.8325 19.254 18.75 15.3365 18.75 10.504C18.75 5.67154 14.8325 1.75403 10 1.75403C5.16751 1.75403 1.25 5.67154 1.25 10.504C1.25 15.3365 5.16751 19.254 10 19.254Z" fill="url(#paint0_linear_331_47794)"/>
<path d="M10 18.5978C14.4701 18.5978 18.0938 14.9741 18.0938 10.504C18.0938 6.03397 14.4701 2.41028 10 2.41028C5.52995 2.41028 1.90625 6.03397 1.90625 10.504C1.90625 14.9741 5.52995 18.5978 10 18.5978Z" fill="url(#paint1_radial_331_47794)"/>
<path d="M10.0137 4.37901C9.95897 4.37901 9.91113 4.33801 9.91113 4.28333V2.8546C9.91113 2.79991 9.95897 2.75891 10.0137 2.75891C10.0683 2.75891 10.1162 2.79991 10.1162 2.8546V4.28333C10.1093 4.33801 10.0683 4.37901 10.0137 4.37901Z" fill="#F3F3F3"/>
<path d="M10.0137 4.38585C9.95214 4.38585 9.9043 4.338 9.9043 4.28332V2.8546C9.9043 2.79992 9.95214 2.75208 10.0137 2.75208C10.0752 2.75208 10.123 2.79992 10.123 2.8546V4.28332C10.123 4.338 10.0684 4.38585 10.0137 4.38585ZM10.0137 2.76569C9.96583 2.76569 9.91799 2.80676 9.91799 2.8546V4.28332C9.91799 4.33116 9.95898 4.37223 10.0137 4.37223C10.0615 4.37223 10.1093 4.33116 10.1093 4.28332V2.8546C10.1026 2.80676 10.0615 2.76569 10.0137 2.76569Z" fill="white"/>
<path d="M10.6972 3.61344C10.6426 3.6066 10.6016 3.5656 10.6016 3.51091L10.6494 2.87511C10.6562 2.82049 10.7041 2.77942 10.7588 2.78627C10.8135 2.79311 10.8545 2.83418 10.8545 2.88887L10.8066 3.5246C10.7998 3.57929 10.7519 3.62029 10.6972 3.61351V3.61344Z" fill="#F3F3F3"/>
<path d="M10.6973 3.6203C10.6357 3.61346 10.5947 3.56561 10.5947 3.51093L10.6426 2.87514C10.6494 2.82052 10.6973 2.77268 10.7588 2.77945C10.8203 2.7863 10.8613 2.83421 10.8613 2.88883L10.8135 3.52462C10.8066 3.58615 10.7588 3.62715 10.6973 3.6203ZM10.7588 2.79314C10.7109 2.79314 10.663 2.82736 10.663 2.87521L10.6152 3.511C10.6152 3.55877 10.6494 3.59984 10.7041 3.60661C10.7519 3.60661 10.7998 3.57246 10.7998 3.52462L10.8476 2.88883C10.8476 2.84098 10.8066 2.79999 10.7587 2.79314H10.7588Z" fill="white"/>
<path d="M11.2099 4.50206C11.1551 4.48837 11.121 4.44053 11.1278 4.38584L11.4081 2.98442C11.4218 2.9298 11.4696 2.89558 11.5243 2.90927C11.579 2.92296 11.6131 2.9708 11.6063 3.02549L11.326 4.42691C11.3192 4.47468 11.2645 4.50891 11.2098 4.50206H11.2099Z" fill="#F3F3F3"/>
<path d="M11.2099 4.5089C11.1483 4.49521 11.1141 4.44052 11.121 4.38583L11.4012 2.98443C11.4149 2.92981 11.4696 2.88874 11.5311 2.90243C11.5926 2.91612 11.6268 2.97081 11.62 3.0255L11.3397 4.4269C11.326 4.48152 11.2713 4.51574 11.2099 4.5089ZM11.5311 2.91612C11.4832 2.90928 11.4354 2.93659 11.4217 2.9845L11.1415 4.3859C11.1347 4.43367 11.162 4.48152 11.2167 4.49528C11.2645 4.50205 11.3123 4.47467 11.326 4.42683L11.6063 3.0255C11.6131 2.97081 11.579 2.92981 11.5311 2.91612Z" fill="white"/>
<path d="M12.0302 3.88689C12.0172 3.88376 12.0049 3.87808 11.9941 3.8702C11.9832 3.86231 11.9741 3.85237 11.9671 3.84094C11.9601 3.82951 11.9554 3.81682 11.9534 3.80359C11.9513 3.79035 11.9519 3.77685 11.955 3.76383L12.1259 3.14865C12.1395 3.09396 12.1942 3.06658 12.2489 3.08027C12.3036 3.09396 12.3378 3.14865 12.3242 3.20334L12.1532 3.81859C12.1395 3.8732 12.0849 3.90058 12.0302 3.88689Z" fill="#F3F3F3"/>
<path d="M12.0302 3.89376C11.9756 3.88007 11.9346 3.81854 11.9551 3.76392L12.126 3.1486C12.1396 3.09399 12.2011 3.05976 12.2558 3.07345C12.3105 3.08714 12.3515 3.14867 12.331 3.20329L12.1601 3.81861C12.1464 3.87322 12.0918 3.90745 12.0303 3.89376H12.0302ZM12.2558 3.09399C12.208 3.0803 12.1533 3.10768 12.1396 3.15552L11.9688 3.77069C11.9551 3.81854 11.9824 3.86645 12.0371 3.88007C12.0849 3.89376 12.1396 3.86645 12.1533 3.81861L12.3242 3.20329C12.331 3.15552 12.3037 3.10768 12.2558 3.09392V3.09399Z" fill="white"/>
<path d="M12.3652 4.85074C12.3105 4.8302 12.2901 4.76867 12.3105 4.72083L12.8574 3.40149C12.8778 3.35365 12.9394 3.32627 12.9872 3.35365C13.042 3.37411 13.0625 3.43572 13.042 3.48349L12.4951 4.80283C12.4746 4.85074 12.413 4.87805 12.3653 4.85074H12.3652Z" fill="#F3F3F3"/>
<path d="M12.3653 4.8576C12.339 4.84759 12.3178 4.82757 12.3062 4.80194C12.2947 4.7763 12.2938 4.74714 12.3037 4.72084L12.8506 3.40149C12.8711 3.3468 12.9327 3.32627 12.9942 3.3468C13.0205 3.35681 13.0417 3.37683 13.0532 3.40246C13.0648 3.4281 13.0657 3.45726 13.0557 3.48356L12.5089 4.80291C12.4815 4.8576 12.4199 4.88491 12.3653 4.8576ZM12.9874 3.36049C12.9395 3.34003 12.8848 3.36049 12.8643 3.40833L12.3174 4.72769C12.2969 4.77553 12.3243 4.82337 12.3721 4.84391C12.4199 4.86437 12.4746 4.84391 12.4952 4.79606L13.0421 3.47671C13.0557 3.43564 13.0352 3.38095 12.9874 3.36049Z" fill="white"/>
<path d="M13.2883 4.41329C13.2403 4.38591 13.2198 4.33122 13.2403 4.28338L13.5274 3.71605C13.5547 3.66814 13.6094 3.6476 13.6642 3.67498C13.712 3.70236 13.7325 3.75705 13.712 3.80482L13.4249 4.37222C13.3975 4.42006 13.3429 4.44066 13.2882 4.41329H13.2883Z" fill="#F3F3F3"/>
<path d="M13.288 4.42006C13.2332 4.39268 13.2128 4.33115 13.2401 4.27646L13.5272 3.70913C13.5545 3.65437 13.6161 3.6339 13.6707 3.66121C13.7254 3.68859 13.746 3.75012 13.7186 3.80481L13.4315 4.37215C13.4041 4.42683 13.3426 4.44737 13.2879 4.41999L13.288 4.42006ZM13.664 3.6749C13.6161 3.65444 13.5614 3.66806 13.5409 3.7159L13.2538 4.28331C13.2333 4.3243 13.2538 4.37899 13.2948 4.40637C13.3426 4.42683 13.3973 4.41321 13.4178 4.36537L13.705 3.79797C13.7254 3.75697 13.705 3.70228 13.664 3.6749Z" fill="white"/>
<path d="M13.4248 5.42494C13.3769 5.39078 13.3632 5.32925 13.3974 5.28825L14.1904 4.10558C14.2177 4.05774 14.2793 4.05089 14.3271 4.07827C14.375 4.11243 14.3886 4.17396 14.3544 4.21496L13.5614 5.39763C13.5341 5.44547 13.4726 5.45916 13.4248 5.42494Z" fill="#F3F3F3"/>
<path d="M13.4251 5.43182C13.3772 5.39767 13.3635 5.32929 13.3909 5.28145L14.1839 4.09881C14.218 4.05097 14.2795 4.03728 14.3342 4.0715C14.3821 4.10566 14.3958 4.17403 14.3685 4.22187L13.5754 5.40451C13.5413 5.45235 13.4729 5.46597 13.4251 5.43182ZM14.3274 4.08519C14.2865 4.05782 14.2249 4.06466 14.1975 4.10566L13.4045 5.28829C13.3772 5.32922 13.3908 5.38398 13.4319 5.41129C13.4729 5.43866 13.5344 5.43182 13.5617 5.39082L14.3548 4.21503C14.3821 4.17403 14.3685 4.1125 14.3274 4.08519Z" fill="white"/>
<path d="M14.4226 5.17203C14.3817 5.13781 14.368 5.07628 14.4022 5.03528L14.7986 4.53625C14.8328 4.49532 14.8943 4.4884 14.9353 4.52263C14.9764 4.55678 14.99 4.61831 14.9558 4.65931L14.5594 5.15834C14.5252 5.19934 14.4637 5.20619 14.4227 5.17203H14.4226Z" fill="#F3F3F3"/>
<path d="M14.4159 5.17885C14.368 5.14463 14.3612 5.07625 14.3954 5.0284L14.7918 4.52943C14.826 4.48151 14.8944 4.47467 14.9422 4.51574C14.99 4.54989 14.9969 4.61827 14.9627 4.66611L14.5662 5.16516C14.5321 5.213 14.4637 5.21985 14.4159 5.17885ZM14.9285 4.52936C14.8876 4.4952 14.8328 4.50205 14.7987 4.54305L14.4022 5.04209C14.3749 5.08309 14.3817 5.13778 14.4227 5.17193C14.4637 5.20616 14.5184 5.19931 14.5526 5.15832L14.949 4.65927C14.9764 4.61827 14.9695 4.55674 14.9286 4.52943L14.9285 4.52936Z" fill="white"/>
<path d="M14.3545 6.19743C14.3135 6.15643 14.3135 6.0949 14.3545 6.06067L15.3661 5.05585C15.4072 5.01486 15.4686 5.02163 15.5029 5.05585C15.537 5.09001 15.5439 5.15838 15.5029 5.19253L14.4981 6.19743C14.457 6.23842 14.3955 6.23842 14.3545 6.19743Z" fill="#F3F3F3"/>
<path d="M14.3477 6.20426C14.3279 6.1842 14.3169 6.1572 14.3169 6.12907C14.3169 6.10095 14.3279 6.07395 14.3477 6.05389L15.3594 5.04899C15.3794 5.02925 15.4064 5.01819 15.4346 5.01819C15.4627 5.01819 15.4898 5.02925 15.5098 5.04899C15.5295 5.06905 15.5406 5.09605 15.5406 5.12417C15.5406 5.1523 15.5295 5.1793 15.5098 5.19936L14.498 6.20419C14.478 6.22391 14.451 6.23495 14.4228 6.23495C14.3947 6.23495 14.3677 6.22391 14.3477 6.20419V6.20426ZM15.503 5.05583C15.4688 5.02161 15.4073 5.02161 15.3731 5.05583L14.3613 6.06066C14.3271 6.09489 14.3271 6.15642 14.3613 6.19057C14.3955 6.22479 14.457 6.22479 14.4912 6.19057L15.503 5.18574C15.5371 5.15152 15.5371 5.09683 15.503 5.05583Z" fill="white"/>
<path d="M15.3798 6.14271C15.3456 6.10172 15.3456 6.04019 15.3866 6.00596L15.872 5.59586C15.9129 5.56171 15.9745 5.56848 16.0087 5.60955C16.0428 5.65054 16.0428 5.71207 16.0019 5.74623L15.5165 6.1564C15.4755 6.19056 15.4139 6.18371 15.3798 6.14271Z" fill="#F3F3F3"/>
<path d="M15.3732 6.14961C15.3322 6.10177 15.3391 6.03339 15.3801 5.99924L15.8654 5.58905C15.9064 5.54805 15.9748 5.55489 16.0158 5.60274C16.0568 5.65058 16.05 5.71896 16.009 5.75311L15.5236 6.1633C15.4827 6.20422 15.4142 6.19745 15.3733 6.14961H15.3732ZM16.0021 5.60958C15.9679 5.56858 15.9132 5.56858 15.8723 5.59589L15.3869 6.00608C15.3528 6.04023 15.3459 6.09492 15.3801 6.13592C15.4142 6.17692 15.469 6.17692 15.5099 6.14961L15.9953 5.73942C16.0363 5.70527 16.0363 5.65058 16.0021 5.60958Z" fill="white"/>
<path d="M15.1064 7.12705C15.0722 7.0792 15.0859 7.01767 15.1337 6.99029L16.3231 6.19735C16.371 6.16997 16.4325 6.18366 16.4598 6.22473C16.494 6.27257 16.4803 6.33411 16.4325 6.36141L15.2431 7.15436C15.202 7.18173 15.1405 7.16805 15.1064 7.12705Z" fill="#F3F3F3"/>
<path d="M15.0995 7.12714C15.0654 7.0793 15.0791 7.01092 15.1269 6.97677L16.3163 6.18377C16.3642 6.14962 16.4326 6.16331 16.4667 6.21799C16.5009 6.26584 16.4872 6.33421 16.4394 6.36829L15.25 7.16136C15.2021 7.19559 15.1338 7.1819 15.0995 7.12721V7.12714ZM16.453 6.23168C16.4257 6.19062 16.371 6.17693 16.33 6.2043L15.1405 6.99723C15.0996 7.02461 15.0858 7.0793 15.1201 7.12714C15.1474 7.16814 15.2021 7.18183 15.2431 7.15452L16.4326 6.36152C16.4736 6.32737 16.4804 6.27261 16.453 6.23168Z" fill="white"/>
<path d="M16.1253 7.27069C16.0979 7.22278 16.1116 7.16132 16.1594 7.13394L16.7132 6.81952C16.761 6.79214 16.8225 6.81267 16.8499 6.86044C16.8772 6.90836 16.8635 6.96982 16.8157 6.99719L16.262 7.31169C16.2141 7.339 16.1526 7.31854 16.1252 7.27062L16.1253 7.27069Z" fill="#F3F3F3"/>
<path d="M16.1184 7.2775C16.0911 7.22281 16.1048 7.16128 16.1526 7.13397L16.7063 6.81952C16.7542 6.79214 16.8226 6.81267 16.8499 6.86045C16.8772 6.91521 16.8636 6.97674 16.8157 7.00405L16.262 7.31857C16.2141 7.34588 16.1458 7.32534 16.1184 7.2775ZM16.843 6.86736C16.8157 6.81952 16.761 6.80583 16.72 6.83314L16.1663 7.14766C16.1253 7.17497 16.1116 7.22965 16.1321 7.27065C16.1594 7.3185 16.2141 7.33219 16.2551 7.30488L16.8089 6.99036C16.8499 6.9699 16.8636 6.91521 16.843 6.86736Z" fill="white"/>
<path d="M15.667 8.17982C15.6465 8.12514 15.667 8.07045 15.7216 8.04999L17.041 7.50312C17.0888 7.48259 17.1504 7.5099 17.1708 7.55774C17.1913 7.61243 17.1708 7.66711 17.1161 7.68758L15.7969 8.23444C15.749 8.25497 15.6875 8.23444 15.667 8.17982Z" fill="#F3F3F3"/>
<path d="M15.6601 8.18658C15.6397 8.13196 15.6601 8.07043 15.7148 8.04305L17.0341 7.4962C17.0604 7.4863 17.0896 7.48721 17.1152 7.49874C17.1408 7.51027 17.1608 7.53148 17.1708 7.55773C17.1914 7.61242 17.1708 7.67395 17.1161 7.70126L15.7969 8.24811C15.7706 8.25804 15.7414 8.25715 15.7158 8.24563C15.6902 8.23411 15.6701 8.2129 15.6601 8.18665V8.18658ZM17.1572 7.56458C17.1367 7.51674 17.082 7.4962 17.041 7.50989L15.7217 8.05674C15.6738 8.07721 15.6533 8.13196 15.6738 8.1798C15.6943 8.22764 15.749 8.24818 15.79 8.23449L17.1093 7.68764C17.1572 7.66717 17.1777 7.61242 17.1572 7.56458Z" fill="white"/>
<path d="M16.6308 8.52163C16.6104 8.46687 16.6377 8.41225 16.6923 8.39172L17.2938 8.19343C17.3417 8.17297 17.4032 8.20712 17.4169 8.25496C17.4374 8.30965 17.4101 8.36434 17.3554 8.38487L16.7539 8.58316C16.706 8.60362 16.6513 8.57631 16.6308 8.52155V8.52163Z" fill="#F3F3F3"/>
<path d="M16.6239 8.52848C16.6034 8.47379 16.6307 8.41225 16.6923 8.39179L17.2938 8.1935C17.3485 8.17303 17.41 8.20719 17.4305 8.26195C17.451 8.31656 17.4237 8.3781 17.3621 8.39863L16.7606 8.59693C16.706 8.61054 16.6444 8.58316 16.6239 8.52848ZM17.4168 8.26879C17.4031 8.22088 17.3485 8.1935 17.3006 8.20719L16.6991 8.40548C16.6513 8.4191 16.6307 8.47379 16.6444 8.5217C16.6581 8.56955 16.7128 8.59685 16.7606 8.58316L17.3621 8.38494C17.41 8.36448 17.4305 8.31656 17.4168 8.26872V8.26879Z" fill="white"/>
<path d="M16.0157 9.33515C16.002 9.28047 16.0362 9.22578 16.0909 9.21894L17.4922 8.94553C17.5468 8.93184 17.5947 8.97283 17.6083 9.02752C17.622 9.0822 17.5879 9.13688 17.5332 9.14373L16.1319 9.41714C16.0772 9.42398 16.0225 9.38983 16.0156 9.33515H16.0157Z" fill="#F3F3F3"/>
<path d="M16.0017 9.33522C15.988 9.27368 16.029 9.21899 16.0837 9.2053L17.4851 8.93184C17.5398 8.91815 17.5945 8.95922 17.6081 9.02076C17.6218 9.08222 17.5808 9.13691 17.5261 9.1506L16.1247 9.42406C16.0701 9.43775 16.0153 9.39675 16.0017 9.33515V9.33522ZM17.5945 9.02753C17.5876 8.97968 17.5398 8.94553 17.4919 8.95237L16.0905 9.22583C16.0427 9.23268 16.0085 9.2873 16.0221 9.33522C16.029 9.38306 16.0768 9.41722 16.1247 9.41037L17.5261 9.13691C17.5739 9.12322 17.6081 9.07538 17.5945 9.02753Z" fill="white"/>
<path d="M16.8905 9.8615C16.8837 9.80681 16.9178 9.75896 16.9725 9.75211L17.6014 9.67688C17.6561 9.67011 17.704 9.71111 17.7108 9.7658C17.7176 9.8205 17.6834 9.86835 17.6288 9.8752L16.9998 9.95036C16.952 9.9572 16.8973 9.9162 16.8904 9.8615H16.8905Z" fill="#F3F3F3"/>
<path d="M16.884 9.86142C16.8772 9.7999 16.9182 9.74521 16.9729 9.73837L17.6017 9.66322C17.6564 9.65638 17.7111 9.69737 17.7179 9.7589C17.7248 9.82043 17.6838 9.87511 17.6291 9.88196L17.0002 9.9571C16.9456 9.96395 16.8908 9.92295 16.884 9.86142ZM17.7111 9.76574C17.7043 9.7179 17.6565 9.67684 17.6086 9.68368L16.9797 9.7589C16.9319 9.76574 16.8977 9.81358 16.9045 9.86142C16.9114 9.90926 16.9592 9.95033 17.007 9.94348L17.6359 9.86827C17.6838 9.86142 17.7179 9.81358 17.7112 9.76574H17.7111Z" fill="white"/>
<path d="M16.125 10.5245C16.125 10.4698 16.1659 10.422 16.2207 10.422H17.6494C17.7041 10.422 17.7451 10.4698 17.7451 10.5245C17.7451 10.5792 17.7041 10.627 17.6494 10.627H16.2207C16.166 10.627 16.125 10.5792 16.125 10.5245Z" fill="#F3F3F3"/>
<path d="M16.1182 10.5245C16.1182 10.463 16.166 10.4152 16.2207 10.4152H17.6494C17.7041 10.4152 17.7519 10.463 17.7519 10.5245C17.7519 10.5861 17.7041 10.6339 17.6494 10.6339H16.2207C16.166 10.6339 16.1182 10.5861 16.1182 10.5245ZM17.7383 10.5314C17.7383 10.4835 17.6973 10.4357 17.6493 10.4357H16.2208C16.1729 10.4357 16.1319 10.4766 16.1319 10.5314C16.1319 10.5792 16.1729 10.6271 16.2208 10.6271H17.6495C17.6973 10.6202 17.7383 10.5792 17.7383 10.5314H17.7383Z" fill="white"/>
<path d="M16.8839 11.2149C16.8906 11.1603 16.9317 11.1193 16.9864 11.1193L17.6221 11.1671C17.6767 11.1739 17.7177 11.2218 17.7109 11.2765C17.7041 11.3312 17.6631 11.3722 17.6084 11.3722L16.9727 11.3243C16.9249 11.3175 16.8838 11.2696 16.8838 11.2149H16.8839Z" fill="#F3F3F3"/>
<path d="M16.877 11.215C16.8838 11.1534 16.9316 11.1124 16.9863 11.1124L17.6222 11.1603C17.6768 11.1671 17.7247 11.215 17.7178 11.2765C17.711 11.338 17.6631 11.379 17.6084 11.379L16.9726 11.3312C16.918 11.3243 16.877 11.2696 16.877 11.215ZM17.711 11.2765C17.7178 11.2286 17.6768 11.1808 17.629 11.1808L16.9931 11.133C16.9453 11.133 16.9043 11.1671 16.8974 11.2219C16.8906 11.2696 16.9316 11.3175 16.9795 11.3175L17.6153 11.3653C17.6631 11.3653 17.7042 11.3244 17.711 11.2765Z" fill="white"/>
<path d="M16.0019 11.714C16.0155 11.6593 16.0634 11.6251 16.1181 11.632L17.5194 11.9123C17.5741 11.9259 17.6083 11.9737 17.5947 12.0284C17.581 12.0831 17.5331 12.1173 17.4784 12.1105L16.077 11.8302C16.0292 11.8234 15.995 11.7687 16.0019 11.714Z" fill="#F3F3F3"/>
<path d="M15.995 11.714C16.0087 11.6525 16.0634 11.6183 16.1181 11.6251L17.5195 11.9054C17.5742 11.9191 17.6152 11.9737 17.6015 12.0353C17.5879 12.0968 17.5332 12.131 17.4785 12.1242L16.077 11.8439C16.0223 11.8302 15.9882 11.7755 15.995 11.7141V11.714ZM17.5879 12.0353C17.5948 11.9874 17.5674 11.9396 17.5195 11.9259L16.118 11.6456C16.0702 11.6389 16.0223 11.6662 16.0086 11.7209C16.0019 11.7687 16.0292 11.8165 16.0771 11.8302L17.4785 12.1105C17.5332 12.1173 17.5742 12.0831 17.5879 12.0353Z" fill="white"/>
<path d="M16.6173 12.5343C16.6204 12.5213 16.6261 12.509 16.634 12.4982C16.6419 12.4874 16.6518 12.4782 16.6632 12.4712C16.6747 12.4643 16.6873 12.4596 16.7006 12.4575C16.7138 12.4555 16.7273 12.456 16.7403 12.4592L17.3555 12.63C17.4102 12.6437 17.4375 12.6985 17.4239 12.7531C17.4208 12.7661 17.4151 12.7784 17.4072 12.7892C17.3994 12.8001 17.3894 12.8092 17.378 12.8162C17.3666 12.8232 17.3539 12.8279 17.3406 12.8299C17.3274 12.832 17.3139 12.8315 17.3009 12.8283L16.6856 12.6574C16.6309 12.6437 16.6036 12.589 16.6172 12.5343H16.6173Z" fill="#F3F3F3"/>
<path d="M16.6104 12.5343C16.6241 12.4796 16.6856 12.4386 16.7403 12.4591L17.3555 12.6299C17.4102 12.6436 17.4445 12.7051 17.4308 12.7598C17.4171 12.8145 17.3555 12.8555 17.3009 12.835L16.6856 12.6641C16.6309 12.6505 16.5967 12.5958 16.6105 12.5343L16.6104 12.5343ZM17.4102 12.7598C17.4239 12.712 17.3965 12.6573 17.3487 12.6436L16.7335 12.4727C16.6856 12.4591 16.6378 12.4864 16.6241 12.5411C16.6105 12.5889 16.6378 12.6436 16.6856 12.6573L17.3009 12.8282C17.3487 12.835 17.3965 12.8077 17.4102 12.7598Z" fill="white"/>
<path d="M15.6533 12.8624C15.6738 12.8077 15.7354 12.7872 15.7832 12.8077L17.1025 13.3546C17.1504 13.3751 17.1777 13.4367 17.1572 13.4844C17.1367 13.5392 17.0751 13.5596 17.0273 13.5392L15.708 12.9923C15.6533 12.9719 15.6328 12.9103 15.6533 12.8625V12.8624Z" fill="#F3F3F3"/>
<path d="M15.6465 12.8556C15.6565 12.8293 15.6765 12.8081 15.7021 12.7966C15.7277 12.785 15.7569 12.7841 15.7832 12.7941L17.1025 13.341C17.1572 13.3615 17.1777 13.423 17.1572 13.4846C17.1472 13.5108 17.1272 13.5321 17.1015 13.5436C17.0759 13.5551 17.0467 13.556 17.0204 13.5461L15.7011 12.9992C15.6465 12.9718 15.626 12.9103 15.6465 12.8556ZM17.1435 13.4777C17.164 13.4299 17.1435 13.3752 17.0957 13.3547L15.7764 12.8078C15.7285 12.7873 15.6807 12.8146 15.6601 12.8625C15.6397 12.9103 15.6601 12.965 15.708 12.9855L17.0273 13.5324C17.0751 13.5461 17.1298 13.5256 17.1435 13.4777Z" fill="white"/>
<path d="M16.0977 13.7853C16.1251 13.7374 16.1797 13.7169 16.2275 13.7374L16.7949 14.0246C16.8427 14.045 16.8632 14.1066 16.8359 14.1613C16.8085 14.2091 16.7539 14.2297 16.706 14.2091L16.1388 13.922C16.0909 13.8946 16.0703 13.8331 16.0977 13.7853Z" fill="#F3F3F3"/>
<path d="M16.0907 13.7784C16.118 13.7237 16.1796 13.7032 16.2343 13.7306L16.8016 14.0177C16.8563 14.0451 16.8768 14.1066 16.8495 14.1612C16.8221 14.2159 16.7605 14.2364 16.7059 14.2091L16.1386 13.922C16.0838 13.9015 16.0633 13.8331 16.0907 13.7784ZM16.829 14.1544C16.8495 14.1065 16.8358 14.0518 16.7879 14.0314L16.2206 13.7442C16.1795 13.7238 16.1249 13.7442 16.0975 13.7852C16.077 13.8331 16.0907 13.8878 16.1385 13.9083L16.7059 14.1954C16.7538 14.2159 16.8085 14.2023 16.829 14.1544Z" fill="white"/>
<path d="M15.0927 13.9152C15.1269 13.8674 15.1816 13.8537 15.2294 13.8879L16.4189 14.6809C16.4668 14.7082 16.4736 14.7698 16.4463 14.8175C16.4121 14.8655 16.3574 14.8791 16.3095 14.8449L15.1201 14.0519C15.0722 14.0178 15.0585 13.9562 15.0927 13.9152Z" fill="#F3F3F3"/>
<path d="M15.0858 13.9083C15.12 13.8605 15.1884 13.8468 15.2363 13.8742L16.4257 14.6671C16.4736 14.7013 16.4873 14.7628 16.4531 14.8175C16.4189 14.8654 16.3505 14.879 16.3027 14.8517L15.1132 14.0587C15.0585 14.0246 15.0517 13.9562 15.0858 13.9083ZM16.4326 14.8106C16.4599 14.7697 16.4531 14.7081 16.4121 14.6808L15.2226 13.8878C15.1816 13.8605 15.1269 13.8742 15.0995 13.9152C15.0722 13.9562 15.079 14.0177 15.12 14.045L16.3095 14.838C16.3505 14.8654 16.4052 14.8517 16.4326 14.8107V14.8106Z" fill="white"/>
<path d="M15.3456 14.9065C15.3798 14.8654 15.4413 14.8518 15.4823 14.886L15.9814 15.2756C16.0224 15.3097 16.0292 15.3713 15.995 15.4124C15.9609 15.4533 15.8994 15.467 15.8583 15.4328L15.3592 15.0431C15.3183 15.009 15.3114 14.9475 15.3456 14.9065Z" fill="#F3F3F3"/>
<path d="M15.3387 14.8995C15.3729 14.8517 15.4413 14.8448 15.4891 14.8791L15.9881 15.2687C16.036 15.3028 16.0428 15.3712 16.0086 15.419C15.9744 15.4669 15.9061 15.4737 15.8583 15.4396L15.3592 15.0499C15.3114 15.0157 15.3046 14.9474 15.3387 14.8995ZM15.995 15.4123C16.0291 15.3712 16.0223 15.3165 15.9813 15.2823L15.4823 14.8927C15.4413 14.8654 15.3866 14.8722 15.3524 14.9131C15.3182 14.9542 15.3251 15.0089 15.3661 15.0431L15.8651 15.4327C15.9061 15.4601 15.9607 15.4532 15.9949 15.4123H15.995Z" fill="white"/>
<path d="M14.3274 14.838C14.3684 14.797 14.43 14.797 14.4641 14.838L15.4758 15.8428C15.5169 15.8839 15.5101 15.9454 15.4758 15.9796C15.4349 16.0206 15.3733 16.0206 15.3392 15.9796L14.3274 14.9748C14.2932 14.9405 14.2932 14.8722 14.3274 14.838Z" fill="#F3F3F3"/>
<path d="M14.3269 14.8312C14.347 14.8115 14.374 14.8004 14.4021 14.8004C14.4303 14.8004 14.4573 14.8115 14.4773 14.8312L15.4891 15.836C15.5088 15.8561 15.5199 15.8831 15.5199 15.9112C15.5199 15.9394 15.5088 15.9664 15.4891 15.9865C15.469 16.0062 15.442 16.0172 15.4139 16.0172C15.3858 16.0172 15.3588 16.0062 15.3387 15.9865L14.3269 14.9817C14.2791 14.9406 14.2791 14.8723 14.3269 14.8312ZM15.4754 15.9728C15.5096 15.9386 15.5096 15.8771 15.4754 15.8429L14.4637 14.8381C14.4295 14.8039 14.368 14.8039 14.3338 14.8381C14.2996 14.8722 14.2996 14.9337 14.3338 14.9679L15.3455 15.9728C15.3797 16.0138 15.4345 16.0138 15.4754 15.9728Z" fill="white"/>
<path d="M14.3886 15.8566C14.4296 15.8225 14.4911 15.8225 14.5253 15.8635L14.9424 16.342C14.9765 16.383 14.9697 16.4446 14.9286 16.4787C14.8877 16.5129 14.8261 16.5129 14.7919 16.4719L14.3749 15.9934C14.3407 15.9592 14.3476 15.8977 14.3886 15.8566Z" fill="#F3F3F3"/>
<path d="M14.3821 15.8566C14.43 15.8157 14.4915 15.8225 14.5324 15.8635L14.9495 16.342C14.9905 16.383 14.9836 16.4513 14.9358 16.4924C14.8879 16.5334 14.8264 16.5265 14.7854 16.4855L14.3684 16.0071C14.3342 15.9592 14.3342 15.8908 14.382 15.8566H14.3821ZM14.929 16.4787C14.9699 16.4446 14.9699 16.3898 14.9426 16.3489L14.5256 15.8703C14.4914 15.8361 14.4367 15.8293 14.3957 15.8635C14.3547 15.8977 14.3547 15.9524 14.382 15.9933L14.7991 16.4719C14.8332 16.5129 14.888 16.5129 14.9289 16.4787H14.929Z" fill="white"/>
<path d="M13.4044 15.5968C13.4523 15.5627 13.5138 15.5764 13.5412 15.6242L14.3341 16.8068C14.3615 16.8546 14.3478 16.9162 14.3068 16.9435C14.2589 16.9777 14.1974 16.964 14.17 16.9162L13.377 15.7335C13.3497 15.6858 13.3634 15.6241 13.4044 15.5968H13.4044Z" fill="#F3F3F3"/>
<path d="M13.4043 15.59C13.4522 15.5559 13.5205 15.5695 13.5547 15.6174L14.3476 16.8C14.3818 16.8477 14.3681 16.9161 14.3135 16.9503C14.2656 16.9845 14.1973 16.9708 14.163 16.923L13.3702 15.7404C13.336 15.6858 13.3497 15.6242 13.4043 15.5901V15.59ZM14.3066 16.9366C14.3476 16.9093 14.3613 16.8546 14.3339 16.8136L13.5411 15.631C13.5137 15.5901 13.459 15.5832 13.4112 15.6105C13.3702 15.6378 13.3565 15.6925 13.3839 15.7336L14.1767 16.9161C14.2041 16.9503 14.2656 16.9639 14.3066 16.9366L14.3066 16.9366Z" fill="white"/>
<path d="M13.2607 16.6085C13.3085 16.5812 13.3701 16.5949 13.3974 16.6427L13.7119 17.1965C13.7392 17.2443 13.7186 17.3058 13.6708 17.3331C13.623 17.3605 13.5614 17.3468 13.5341 17.299L13.2197 16.7453C13.1992 16.6974 13.2128 16.6359 13.2606 16.6086L13.2607 16.6085Z" fill="#F3F3F3"/>
<path d="M13.2607 16.6017C13.3154 16.5743 13.377 16.588 13.4043 16.6359L13.7187 17.1897C13.7461 17.2375 13.7324 17.3059 13.6778 17.3332C13.623 17.3606 13.5615 17.3469 13.5342 17.299L13.2197 16.7453C13.1924 16.6974 13.2061 16.6359 13.2607 16.6017H13.2607ZM13.6709 17.3264C13.7119 17.299 13.7324 17.2444 13.7051 17.2034L13.3907 16.6496C13.3633 16.6086 13.3086 16.5949 13.2676 16.6153C13.2265 16.6427 13.2061 16.6974 13.2334 16.7384L13.5479 17.2922C13.5683 17.3332 13.6299 17.3537 13.6709 17.3264V17.3264Z" fill="white"/>
<path d="M12.3516 16.1574C12.4063 16.137 12.4609 16.1574 12.4815 16.2053L13.0352 17.5246C13.0557 17.5724 13.0284 17.634 12.9805 17.6544C12.9327 17.675 12.8711 17.6544 12.8507 17.6066L12.2969 16.2873C12.2764 16.2394 12.3037 16.178 12.3516 16.1574Z" fill="#F3F3F3"/>
<path d="M12.3515 16.1505C12.4062 16.13 12.4677 16.1505 12.4951 16.2052L13.0488 17.5245C13.0587 17.5508 13.0578 17.5799 13.0462 17.6056C13.0347 17.6312 13.0135 17.6512 12.9872 17.6612C12.9326 17.6817 12.871 17.6612 12.8437 17.6065L12.29 16.2872C12.2695 16.2393 12.2969 16.1779 12.3515 16.1505ZM12.9736 17.6476C13.0214 17.627 13.0419 17.5724 13.0214 17.5314L12.4677 16.212C12.4472 16.1642 12.3925 16.1436 12.3447 16.1642C12.2969 16.1846 12.2763 16.2393 12.2969 16.2804L12.8505 17.5997C12.8779 17.6476 12.9257 17.668 12.9736 17.6476Z" fill="white"/>
<path d="M12.0165 17.1281C12.0713 17.1077 12.1259 17.135 12.1464 17.1897L12.3447 17.7912C12.3652 17.8391 12.331 17.9006 12.2832 17.9143C12.2285 17.9348 12.1738 17.9075 12.1533 17.8528L11.955 17.2512C11.9346 17.2034 11.9619 17.1487 12.0166 17.1281H12.0165Z" fill="#F3F3F3"/>
<path d="M12.0099 17.1213C12.0362 17.1114 12.0653 17.1123 12.0909 17.1239C12.1165 17.1354 12.1366 17.1566 12.1466 17.1829L12.3449 17.7844C12.3653 17.8391 12.3312 17.9006 12.2764 17.9211C12.2501 17.931 12.221 17.9301 12.1954 17.9186C12.1697 17.9071 12.1497 17.8859 12.1397 17.8596L11.9415 17.2581C11.9278 17.2034 11.9552 17.1419 12.0099 17.1213ZM12.2765 17.9074C12.3243 17.8938 12.3517 17.8391 12.338 17.7912L12.1397 17.1897C12.1261 17.1419 12.0714 17.1213 12.0236 17.135C11.9756 17.1487 11.9483 17.2034 11.962 17.2512L12.1603 17.8528C12.1637 17.8644 12.1696 17.8751 12.1775 17.8843C12.1855 17.8935 12.1952 17.9009 12.2062 17.906C12.2171 17.9112 12.2291 17.914 12.2412 17.9142C12.2533 17.9145 12.2653 17.9122 12.2765 17.9074V17.9074Z" fill="white"/>
<path d="M11.21 16.5061C11.2646 16.4924 11.3193 16.5265 11.3261 16.5812L11.6133 17.9827C11.627 18.0373 11.5859 18.0852 11.5312 18.0988C11.4766 18.1125 11.4218 18.0784 11.415 18.0237L11.1278 16.6222C11.121 16.5744 11.1552 16.5197 11.2099 16.506L11.21 16.5061Z" fill="#F3F3F3"/>
<path d="M11.2101 16.4991C11.2715 16.4855 11.3262 16.5265 11.3399 16.5812L11.627 17.9827C11.6407 18.0373 11.5996 18.0989 11.5449 18.1057C11.4834 18.1194 11.4287 18.0784 11.4151 18.0237L11.128 16.6222C11.1144 16.5675 11.1486 16.5128 11.21 16.4992L11.2101 16.4991ZM11.5313 18.092C11.5792 18.0852 11.6133 18.0373 11.6065 17.9826L11.3194 16.5812C11.3126 16.5333 11.2579 16.4992 11.21 16.5128C11.1622 16.5196 11.128 16.5675 11.1349 16.6222L11.422 18.0237C11.4356 18.0715 11.4834 18.0989 11.5313 18.0921L11.5313 18.092Z" fill="white"/>
<path d="M10.6907 17.3947C10.7453 17.3878 10.7932 17.422 10.8069 17.4767L10.8889 18.1056C10.8957 18.1603 10.8547 18.2081 10.8 18.2149C10.7453 18.2218 10.6975 18.1876 10.6838 18.133L10.6018 17.504C10.595 17.4494 10.636 17.4015 10.6907 17.3947Z" fill="#F3F3F3"/>
<path d="M10.6902 17.3878C10.7518 17.381 10.8065 17.422 10.8133 17.4767L10.8954 18.1056C10.9022 18.1603 10.8612 18.215 10.7997 18.2219C10.7381 18.2287 10.6834 18.1877 10.6765 18.1329L10.5945 17.504C10.5876 17.4494 10.6287 17.3947 10.6902 17.3878ZM10.7928 18.2082C10.8407 18.2014 10.8818 18.1535 10.8749 18.1056L10.7928 17.4767C10.786 17.4289 10.7381 17.3947 10.6902 17.4015C10.6424 17.4084 10.6013 17.4562 10.6081 17.504L10.6902 18.133C10.6971 18.1809 10.7449 18.215 10.7928 18.2082Z" fill="white"/>
<path d="M9.98631 16.6289C10.041 16.6289 10.0888 16.67 10.0888 16.7247V18.1533C10.0888 18.208 10.041 18.2491 9.98631 18.2491C9.93163 18.2491 9.88379 18.208 9.88379 18.1533V16.7247C9.89063 16.67 9.93163 16.6289 9.98631 16.6289Z" fill="#F3F3F3"/>
<path d="M9.98632 16.6221C10.0479 16.6221 10.0957 16.6699 10.0957 16.7246V18.1533C10.0957 18.208 10.0479 18.2558 9.98632 18.2558C9.92479 18.2558 9.87695 18.208 9.87695 18.1533V16.7247C9.87695 16.67 9.93164 16.6221 9.98632 16.6221ZM9.98632 18.2422C10.0342 18.2422 10.082 18.2012 10.082 18.1533V16.7247C10.082 16.6768 10.041 16.6358 9.98632 16.6358C9.93848 16.6358 9.89064 16.6768 9.89064 16.7247V18.1533C9.89742 18.2012 9.93848 18.2422 9.98632 18.2422Z" fill="white"/>
<path d="M9.30272 17.3947C9.35741 17.4015 9.39841 17.4425 9.39841 17.4972L9.35057 18.133C9.34379 18.1877 9.29588 18.2287 9.24119 18.2219C9.18651 18.215 9.14551 18.174 9.14551 18.1193L9.19335 17.4835C9.20019 17.4289 9.24804 17.3878 9.30272 17.3947Z" fill="#F3F3F3"/>
<path d="M9.30273 17.3878C9.36427 17.3947 9.40526 17.4425 9.40526 17.4972L9.35742 18.133C9.35058 18.1877 9.30273 18.2355 9.2412 18.2287C9.17974 18.2219 9.13867 18.174 9.13867 18.1193L9.18651 17.4835C9.19336 17.422 9.2412 17.381 9.30273 17.3878ZM9.2412 18.215C9.28904 18.215 9.33696 18.1809 9.33696 18.133L9.3848 17.4972C9.3848 17.4494 9.35058 17.4084 9.29589 17.4015C9.24805 17.4015 9.2002 17.4357 9.2002 17.4836L9.15236 18.1193C9.15236 18.1672 9.19336 18.2082 9.24127 18.215H9.2412Z" fill="white"/>
<path d="M8.78993 16.506C8.84461 16.5196 8.87877 16.5675 8.87192 16.6222L8.59165 18.0237C8.57796 18.0784 8.53012 18.1126 8.47544 18.0989C8.42075 18.0852 8.3866 18.0374 8.39345 17.9826L8.67372 16.5812C8.68056 16.5333 8.73524 16.4992 8.78993 16.506Z" fill="#F3F3F3"/>
<path d="M8.78996 16.4991C8.85142 16.5128 8.88565 16.5676 8.8788 16.6222L8.59852 18.0236C8.58483 18.0783 8.53014 18.1193 8.46868 18.1056C8.40715 18.0919 8.37293 18.0373 8.37977 17.9826L8.66005 16.5812C8.67374 16.5265 8.72843 16.4923 8.78989 16.4992L8.78996 16.4991ZM8.46868 18.0919C8.51652 18.0988 8.56437 18.0715 8.57806 18.0236L8.85827 16.6222C8.86511 16.5743 8.8378 16.5265 8.78312 16.5128C8.73527 16.506 8.68743 16.5333 8.67374 16.5812L8.39346 17.9826C8.38661 18.0373 8.42077 18.0783 8.46868 18.0919Z" fill="white"/>
<path d="M7.96962 17.1213C8.02438 17.1349 8.05853 17.1896 8.04484 17.2443L7.87393 17.8595C7.86031 17.9142 7.80563 17.9415 7.75094 17.9279C7.73791 17.9247 7.72563 17.9191 7.7148 17.9112C7.70397 17.9033 7.69479 17.8934 7.68781 17.8819C7.68082 17.8705 7.67616 17.8578 7.67408 17.8446C7.67201 17.8313 7.67256 17.8178 7.67572 17.8048L7.84663 17.1896C7.86031 17.1349 7.915 17.1076 7.96969 17.1213H7.96962Z" fill="#F3F3F3"/>
<path d="M7.96967 17.1145C8.02442 17.1282 8.06542 17.1897 8.04488 17.2444L7.87398 17.8596C7.86036 17.9143 7.79883 17.9485 7.74415 17.9348C7.68946 17.9211 7.64847 17.8596 7.66893 17.8049L7.83983 17.1897C7.85352 17.135 7.90821 17.1008 7.96967 17.1145V17.1145ZM7.74415 17.9143C7.79199 17.928 7.84668 17.9006 7.86036 17.8528L8.0312 17.2375C8.04488 17.1897 8.01758 17.1418 7.96289 17.1282C7.91505 17.1145 7.86036 17.1418 7.84668 17.1897L7.67577 17.8049C7.66893 17.8528 7.69624 17.9006 7.74415 17.9143Z" fill="white"/>
<path d="M7.63484 16.1574C7.68952 16.1778 7.70999 16.2394 7.68952 16.2872L7.14266 17.6066C7.1222 17.6545 7.0606 17.6818 7.01283 17.6545C6.96491 17.6271 6.93754 17.5724 6.95807 17.5246L7.50493 16.2052C7.52539 16.1574 7.58699 16.13 7.63477 16.1574H7.63484Z" fill="#F3F3F3"/>
<path d="M7.63481 16.1505C7.66108 16.1605 7.68231 16.1805 7.69384 16.2061C7.70537 16.2318 7.70627 16.2609 7.69634 16.2872L7.14946 17.6065C7.12892 17.6612 7.06739 17.6817 7.00586 17.6612C6.97961 17.6512 6.95839 17.6312 6.94686 17.6055C6.93533 17.5799 6.93442 17.5508 6.94432 17.5245L7.49121 16.2052C7.51859 16.1505 7.58012 16.1232 7.63481 16.1505ZM7.0127 17.6476C7.06055 17.668 7.11523 17.6476 7.13577 17.5997L7.68265 16.2804C7.70312 16.2325 7.67581 16.1846 7.62797 16.1642C7.58012 16.1437 7.52543 16.1642 7.5049 16.212L6.95801 17.5313C6.94432 17.5723 6.96486 17.627 7.0127 17.6476Z" fill="white"/>
<path d="M6.71205 16.5949C6.75989 16.6222 6.78035 16.6769 6.75989 16.7247L6.47277 17.292C6.44539 17.3399 6.3907 17.3604 6.33602 17.333C6.28817 17.3057 6.26771 17.251 6.28817 17.2032L6.57536 16.636C6.60267 16.5881 6.65736 16.5675 6.71205 16.5949Z" fill="#F3F3F3"/>
<path d="M6.71226 16.5881C6.76695 16.6154 6.78741 16.677 6.7601 16.7316L6.47298 17.299C6.4456 17.3537 6.38407 17.3742 6.32945 17.3468C6.27476 17.3195 6.25423 17.2579 6.28161 17.2033L6.56866 16.636C6.59604 16.5812 6.65757 16.5608 6.71226 16.5881ZM6.33629 17.3332C6.38414 17.3537 6.43882 17.34 6.45929 17.2921L6.74641 16.7248C6.76687 16.6838 6.74641 16.6291 6.70541 16.6018C6.65757 16.5813 6.60288 16.5949 6.58235 16.6428L6.29523 17.2101C6.27476 17.2511 6.29523 17.3058 6.33629 17.3331V17.3332Z" fill="white"/>
<path d="M6.5751 15.5832C6.62295 15.6174 6.63664 15.6789 6.60248 15.7199L5.80949 16.9027C5.78218 16.9505 5.72058 16.9573 5.6728 16.93C5.62496 16.8958 5.61127 16.8343 5.64543 16.7932L6.43842 15.6105C6.46573 15.5627 6.52726 15.549 6.5751 15.5832V15.5832Z" fill="#F3F3F3"/>
<path d="M6.57499 15.5763C6.62283 15.6106 6.63652 15.6789 6.60914 15.7268L5.81618 16.9095C5.78203 16.9572 5.7205 16.9709 5.66581 16.9368C5.61796 16.9025 5.60427 16.8342 5.63158 16.7863L6.42461 15.6037C6.45876 15.5559 6.52714 15.5422 6.57499 15.5763ZM5.67265 16.9231C5.71358 16.9504 5.77519 16.9435 5.8025 16.9026L6.59552 15.7199C6.62283 15.6789 6.60921 15.6242 6.56814 15.5969C6.52714 15.5696 6.46561 15.5764 6.4383 15.6173L5.64527 16.7932C5.61796 16.8342 5.63158 16.8957 5.67265 16.923V16.9231Z" fill="white"/>
<path d="M5.57692 15.8361C5.61799 15.8703 5.63161 15.9318 5.59746 15.9728L5.20096 16.4718C5.16681 16.5128 5.10528 16.5196 5.06428 16.4855C5.02328 16.4513 5.00959 16.3898 5.04381 16.3487L5.44024 15.8497C5.47439 15.8088 5.53592 15.8019 5.57692 15.8361Z" fill="#F3F3F3"/>
<path d="M5.58383 15.8293C5.63168 15.8635 5.63852 15.9318 5.6043 15.9797L5.20786 16.4787C5.17371 16.5266 5.10533 16.5334 5.05748 16.4924C5.00964 16.4582 5.0028 16.3899 5.03702 16.342L5.43346 15.843C5.46761 15.7951 5.53599 15.7883 5.58383 15.8293ZM5.07117 16.4787C5.1121 16.5129 5.16686 16.5061 5.20101 16.465L5.59752 15.966C5.6249 15.9251 5.61799 15.8703 5.57706 15.8362C5.53599 15.8019 5.4813 15.8088 5.44715 15.8498L5.05064 16.3488C5.02333 16.3899 5.03018 16.4514 5.0711 16.4787H5.07117Z" fill="white"/>
<path d="M5.64539 14.8107C5.68639 14.8516 5.68639 14.9132 5.64539 14.9474L4.63374 15.9522C4.59267 15.9933 4.53121 15.9865 4.49699 15.9522C4.46284 15.9181 4.45599 15.8497 4.49699 15.8155L5.5018 14.8107C5.54286 14.7696 5.60439 14.7696 5.64539 14.8107Z" fill="#F3F3F3"/>
<path d="M5.65229 14.8038C5.67198 14.8239 5.68302 14.8509 5.68302 14.879C5.68302 14.9071 5.67198 14.9341 5.65229 14.9541L4.64057 15.9591C4.62051 15.9788 4.59353 15.9899 4.56542 15.9899C4.53731 15.9899 4.51033 15.9788 4.49027 15.9591C4.47053 15.9391 4.45947 15.9121 4.45947 15.8839C4.45947 15.8558 4.47053 15.8288 4.49027 15.8087L5.50192 14.8038C5.52198 14.7841 5.54898 14.7731 5.57711 14.7731C5.60523 14.7731 5.63223 14.7841 5.65229 14.8038ZM4.49704 15.9522C4.5312 15.9864 4.59273 15.9864 4.62688 15.9522L5.6386 14.9473C5.67282 14.9131 5.67282 14.8516 5.6386 14.8175C5.60445 14.7832 5.54292 14.7832 5.50877 14.8175L4.49704 15.8223C4.46289 15.8565 4.46289 15.9112 4.49704 15.9522V15.9522Z" fill="white"/>
<path d="M4.62007 14.8654C4.65422 14.9064 4.65422 14.968 4.61322 15.0021L4.12788 15.4124C4.08688 15.4465 4.02535 15.4397 3.99113 15.3987C3.95697 15.3576 3.95697 15.2961 3.99797 15.2619L4.48331 14.8517C4.52438 14.8175 4.58584 14.8244 4.62007 14.8654Z" fill="#F3F3F3"/>
<path d="M4.62671 14.8585C4.6677 14.9064 4.66086 14.9747 4.61986 15.009L4.13452 15.419C4.09352 15.4601 4.02514 15.4533 3.98414 15.4054C3.94307 15.3575 3.94992 15.2892 3.99092 15.255L4.47633 14.8449C4.51726 14.8039 4.58571 14.8108 4.62664 14.8586L4.62671 14.8585ZM3.99776 15.3986C4.03199 15.4396 4.08667 15.4396 4.1276 15.4123L4.61302 15.0021C4.64717 14.968 4.65402 14.9132 4.61986 14.8723C4.58564 14.8312 4.53095 14.8312 4.49002 14.8586L4.00461 15.2687C3.96361 15.3028 3.96361 15.3576 3.99776 15.3985V15.3986Z" fill="white"/>
<path d="M4.8935 13.881C4.92765 13.9289 4.91396 13.9904 4.86612 14.0177L3.67669 14.8107C3.62885 14.838 3.56732 14.8243 3.54001 14.7833C3.50579 14.7355 3.51948 14.674 3.56732 14.6466L4.75682 13.8537C4.79788 13.8264 4.85935 13.84 4.89357 13.881H4.8935Z" fill="#F3F3F3"/>
<path d="M4.90031 13.881C4.93447 13.9289 4.92078 13.9972 4.87294 14.0315L3.68353 14.8244C3.63568 14.8586 3.56731 14.8448 3.53316 14.7902C3.49893 14.7424 3.51269 14.674 3.56046 14.6398L4.74994 13.8469C4.79779 13.8127 4.86609 13.8264 4.90024 13.881H4.90031ZM3.54685 14.7765C3.57415 14.8175 3.62884 14.8312 3.66984 14.8039L4.85925 14.0109C4.90032 13.9836 4.91393 13.9289 4.87978 13.8811C4.85247 13.84 4.79779 13.8264 4.75672 13.8537L3.56731 14.6467C3.52631 14.6808 3.51947 14.7355 3.54685 14.7765Z" fill="white"/>
<path d="M3.87524 13.7375C3.90262 13.7853 3.88893 13.8468 3.84109 13.8742L3.28736 14.1886C3.23952 14.2159 3.17798 14.1955 3.15068 14.1476C3.1233 14.0998 3.13699 14.0382 3.18483 14.0109L3.73856 13.6965C3.7864 13.6691 3.84793 13.6896 3.87531 13.7375H3.87524Z" fill="#F3F3F3"/>
<path d="M3.88214 13.7306C3.90945 13.7853 3.89576 13.8468 3.84791 13.8742L3.2942 14.1886C3.24636 14.2159 3.17798 14.1955 3.15068 14.1476C3.1233 14.0929 3.13699 14.0314 3.18483 14.004L3.73854 13.6896C3.78638 13.6623 3.85476 13.6828 3.88207 13.7306H3.88214ZM3.15745 14.1408C3.18483 14.1886 3.23952 14.2023 3.28051 14.1749L3.83423 13.8605C3.87522 13.8331 3.88891 13.7785 3.86845 13.7375C3.84107 13.6896 3.78638 13.6759 3.74539 13.7033L3.19167 14.0177C3.15068 14.0382 3.13699 14.0929 3.15752 14.1408H3.15745Z" fill="white"/>
<path d="M4.33297 12.8283C4.35344 12.883 4.33297 12.9377 4.27828 12.9582L2.95894 13.5051C2.9111 13.5256 2.84956 13.4983 2.8291 13.4504C2.80857 13.3957 2.8291 13.341 2.88379 13.3205L4.20313 12.7737C4.25098 12.7532 4.31251 12.7737 4.33297 12.8283Z" fill="#F3F3F3"/>
<path d="M4.33982 12.8214C4.36028 12.8761 4.33982 12.9376 4.28513 12.9649L2.96578 13.5118C2.9395 13.5217 2.91035 13.5208 2.88473 13.5093C2.85912 13.4977 2.83911 13.4765 2.8291 13.4503C2.80857 13.3956 2.8291 13.3341 2.88379 13.3067L4.20313 12.7599C4.22942 12.75 4.25857 12.7509 4.28418 12.7624C4.3098 12.7739 4.32981 12.7952 4.33982 12.8214ZM2.84272 13.4434C2.86325 13.4913 2.91794 13.5119 2.95894 13.4981L4.27828 12.9512C4.32613 12.9308 4.34666 12.8761 4.32613 12.8283C4.30566 12.7804 4.25098 12.7599 4.20991 12.7736L2.89056 13.3204C2.84272 13.3409 2.82226 13.3956 2.84272 13.4435V13.4434Z" fill="white"/>
<path d="M3.36913 12.4864C3.38959 12.5411 3.36228 12.5958 3.30759 12.6162L2.70603 12.8145C2.65818 12.835 2.59665 12.8008 2.58296 12.753C2.5625 12.6983 2.58981 12.6436 2.64449 12.6232L3.24606 12.4249C3.2939 12.4044 3.34859 12.4317 3.36913 12.4864Z" fill="#F3F3F3"/>
<path d="M3.37583 12.4797C3.39636 12.5344 3.36905 12.5959 3.30752 12.6165L2.70597 12.8147C2.65128 12.8352 2.58975 12.801 2.56921 12.7463C2.54875 12.6916 2.57606 12.6301 2.63766 12.6096L3.23914 12.4113C3.29383 12.3977 3.35536 12.425 3.3759 12.4798L3.37583 12.4797ZM2.58297 12.7395C2.59666 12.7874 2.65135 12.8148 2.69919 12.8011L3.30075 12.6028C3.34859 12.5891 3.36912 12.5344 3.35543 12.4866C3.34174 12.4388 3.28706 12.4114 3.23921 12.4251L2.63766 12.6234C2.58982 12.6438 2.56928 12.6917 2.58297 12.7395Z" fill="white"/>
<path d="M3.98447 11.673C3.99809 11.7277 3.96393 11.7824 3.90925 11.7892L2.50784 12.0627C2.45316 12.0763 2.40531 12.0353 2.39169 11.9806C2.37801 11.9259 2.41216 11.8712 2.46685 11.8644L3.86825 11.5909C3.92294 11.5842 3.97762 11.6183 3.9844 11.673H3.98447Z" fill="#F3F3F3"/>
<path d="M3.99822 11.673C4.01191 11.7346 3.97091 11.7892 3.91622 11.8029L2.51481 12.0763C2.46012 12.09 2.40544 12.049 2.39182 11.9875C2.37813 11.9259 2.41913 11.8712 2.47381 11.8576L3.87522 11.5842C3.92984 11.5705 3.9846 11.6115 3.99822 11.673ZM2.40544 11.9807C2.41228 12.0285 2.46012 12.0627 2.50797 12.0558L3.90938 11.7824C3.95722 11.7756 3.99137 11.7209 3.97775 11.673C3.97091 11.6252 3.92307 11.591 3.87515 11.5978L2.47381 11.8712C2.42597 11.8849 2.39182 11.9328 2.40544 11.9806V11.9807Z" fill="white"/>
<path d="M3.10927 11.1467C3.11604 11.2013 3.08189 11.2492 3.0272 11.2561L2.39833 11.3313C2.34357 11.3381 2.29573 11.2971 2.28896 11.2423C2.28211 11.1877 2.31626 11.1398 2.37095 11.1329L2.99989 11.0578C3.04774 11.0509 3.10242 11.0919 3.10927 11.1467Z" fill="#F3F3F3"/>
<path d="M3.11649 11.1467C3.12326 11.2081 3.08226 11.2628 3.02758 11.2696L2.39871 11.3448C2.34395 11.3517 2.28933 11.3107 2.28249 11.2492C2.27564 11.1877 2.31664 11.133 2.37133 11.1261L3.00027 11.0509C3.05489 11.0441 3.10964 11.0851 3.11642 11.1466L3.11649 11.1467ZM2.28926 11.2423C2.2961 11.2902 2.34402 11.3312 2.39186 11.3243L3.02073 11.2492C3.06857 11.2423 3.1028 11.1945 3.09595 11.1467C3.08911 11.0988 3.04127 11.0578 2.99342 11.0646L2.36448 11.1398C2.31664 11.1467 2.28249 11.1945 2.28926 11.2423Z" fill="white"/>
<path d="M3.87489 10.4835C3.87489 10.5383 3.83397 10.5861 3.77921 10.5861H2.35057C2.29588 10.5861 2.25488 10.5383 2.25488 10.4836C2.25488 10.4289 2.29588 10.381 2.35057 10.381H3.77928C3.83397 10.381 3.87503 10.4289 3.87503 10.4836L3.87489 10.4835Z" fill="#F3F3F3"/>
<path d="M3.88183 10.4835C3.88183 10.5451 3.83391 10.5929 3.77923 10.5929H2.35058C2.29589 10.5929 2.24805 10.545 2.24805 10.4835C2.24805 10.4221 2.29589 10.3741 2.35058 10.3741H3.7793C3.83398 10.3741 3.88183 10.4221 3.88183 10.4835ZM2.26167 10.4767C2.26167 10.5246 2.30266 10.5724 2.35058 10.5724H3.77923C3.82707 10.5724 3.86814 10.5314 3.86814 10.4767C3.86814 10.4289 3.82707 10.381 3.77923 10.381H2.35058C2.30273 10.3878 2.26174 10.4289 2.26174 10.4767H2.26167Z" fill="white"/>
<path d="M3.11655 9.79308C3.10963 9.84777 3.06863 9.88877 3.01394 9.88877L2.37815 9.84092C2.32353 9.83408 2.28253 9.78624 2.28931 9.73155C2.29615 9.67686 2.33722 9.63586 2.39191 9.63586L3.02763 9.68371C3.07548 9.69055 3.11655 9.73839 3.11655 9.79308Z" fill="#E2E2E2"/>
<path d="M3.12316 9.79309C3.11632 9.85462 3.06848 9.89562 3.01379 9.89562L2.37801 9.84778C2.32339 9.84093 2.27555 9.79309 2.28239 9.73156C2.28917 9.6701 2.33708 9.62903 2.39177 9.62903L3.02748 9.67687C3.08217 9.68372 3.12316 9.7384 3.12316 9.79309ZM2.28917 9.73156C2.28239 9.7794 2.32339 9.82732 2.37123 9.82732L3.00702 9.87516C3.05479 9.87516 3.09586 9.84093 3.1027 9.78625C3.10955 9.7384 3.06848 9.69056 3.02063 9.69056L2.38485 9.64272C2.33708 9.64272 2.29601 9.68372 2.28917 9.73163V9.73156Z" fill="white"/>
<path d="M3.99814 9.29403C3.98446 9.34871 3.93661 9.38294 3.88192 9.37609L2.48058 9.08898C2.4259 9.07529 2.39167 9.02745 2.40536 8.97277C2.41905 8.91808 2.46689 8.88386 2.52158 8.89078L3.92299 9.17104C3.97084 9.18466 4.00499 9.23935 3.99814 9.29403Z" fill="#F3F3F3"/>
<path d="M4.00504 9.29404C3.99135 9.35557 3.93667 9.38979 3.88198 9.38295L2.48065 9.10267C2.42596 9.08898 2.38496 9.03429 2.39865 8.97283C2.41227 8.91123 2.46696 8.87708 2.52165 8.88392L3.92305 9.1642C3.97774 9.17789 4.01189 9.23258 4.00504 9.29404ZM2.41227 8.97276C2.40543 9.0206 2.43274 9.06845 2.48065 9.08214L3.88205 9.36242C3.92989 9.36926 3.97774 9.34195 3.99143 9.28719C3.9982 9.23935 3.97089 9.19151 3.92298 9.17782L2.52172 8.89761C2.46703 8.89077 2.42603 8.92492 2.41234 8.97276H2.41227Z" fill="white"/>
<path d="M3.38292 8.47382C3.37978 8.48684 3.37411 8.49912 3.36622 8.50994C3.35834 8.52076 3.3484 8.52993 3.33697 8.53691C3.32554 8.54389 3.31284 8.54854 3.29961 8.55061C3.28638 8.55268 3.27287 8.55213 3.25986 8.54897L2.6446 8.37807C2.58991 8.36439 2.5626 8.3097 2.57622 8.25502C2.57936 8.242 2.58503 8.22973 2.59292 8.2189C2.6008 8.20808 2.61074 8.19891 2.62217 8.19193C2.6336 8.18495 2.6463 8.1803 2.65953 8.17823C2.67276 8.17616 2.68627 8.17672 2.69928 8.17987L3.31454 8.35077C3.36923 8.36439 3.39654 8.41907 3.38292 8.47375V8.47382Z" fill="#F3F3F3"/>
<path d="M3.38975 8.47379C3.37613 8.5284 3.3146 8.56946 3.25991 8.54893L2.64465 8.37804C2.58996 8.36435 2.55574 8.30282 2.56943 8.24821C2.58311 8.19345 2.64465 8.15246 2.69934 8.17299L3.3146 8.34388C3.36929 8.35757 3.40351 8.41226 3.38975 8.47372V8.47379ZM2.58996 8.24806C2.57627 8.29597 2.60365 8.35066 2.65149 8.36428L3.26676 8.53517C3.3146 8.54886 3.36244 8.52148 3.37613 8.4668C3.38975 8.41896 3.36244 8.36428 3.3146 8.35066L2.69934 8.17976C2.65149 8.17292 2.60365 8.20022 2.58996 8.24813V8.24806Z" fill="white"/>
<path d="M4.34675 8.14564C4.32629 8.20026 4.26468 8.22079 4.21691 8.20026L2.8975 7.65339C2.84965 7.63293 2.82234 7.5714 2.84281 7.52356C2.86334 7.46887 2.92487 7.44834 2.97272 7.46887L4.29206 8.01574C4.34675 8.0362 4.36728 8.09773 4.34675 8.14557V8.14564Z" fill="#F3F3F3"/>
<path d="M4.35354 8.15244C4.34353 8.1787 4.32351 8.19993 4.29788 8.21146C4.27224 8.223 4.24308 8.2239 4.21678 8.21397L2.89743 7.6671C2.84274 7.64664 2.82228 7.58511 2.84274 7.52358C2.85275 7.49731 2.87277 7.47609 2.8984 7.46455C2.92404 7.45302 2.9532 7.45212 2.9795 7.46205L4.29885 8.00891C4.35354 8.03622 4.374 8.09782 4.35354 8.15244ZM2.85643 7.53042C2.83597 7.57827 2.85643 7.63295 2.90428 7.65342L4.22363 8.20028C4.27147 8.22081 4.31931 8.19344 4.33985 8.14559C4.36031 8.09775 4.33985 8.04306 4.29201 8.0226L2.97265 7.47574C2.92481 7.46205 2.87012 7.48258 2.85643 7.53042Z" fill="white"/>
<path d="M3.90237 7.22278C3.87506 7.27063 3.82037 7.29116 3.77253 7.27063L3.20512 6.98355C3.15728 6.96302 3.13674 6.90148 3.16412 6.84679C3.19143 6.79895 3.24612 6.77841 3.29396 6.79895L3.8613 7.08609C3.90921 7.1134 3.92975 7.17501 3.90237 7.22278Z" fill="#F3F3F3"/>
<path d="M3.90952 7.22961C3.88214 7.28429 3.82061 7.30483 3.76593 7.27745L3.19859 6.99032C3.1439 6.96301 3.12337 6.90147 3.15075 6.84679C3.17806 6.7921 3.23966 6.77156 3.29428 6.79894L3.86161 7.08607C3.91637 7.10654 3.93683 7.17499 3.90952 7.22961ZM3.17121 6.85363C3.15075 6.90147 3.16444 6.95616 3.21228 6.9767L3.77962 7.26383C3.82068 7.28429 3.87537 7.26383 3.90268 7.22276C3.92314 7.17492 3.90952 7.12023 3.86168 7.09969L3.28736 6.8127C3.24636 6.79224 3.19168 6.80586 3.17114 6.8537L3.17121 6.85363Z" fill="white"/>
<path d="M4.90708 7.09293C4.87293 7.14084 4.81824 7.15453 4.7704 7.12031L3.58771 6.33422C3.53994 6.30684 3.53309 6.24531 3.5604 6.19746C3.58778 6.14962 3.64931 6.13593 3.69716 6.17008L4.88662 6.96309C4.92762 6.99047 4.94131 7.052 4.90708 7.09293Z" fill="#F3F3F3"/>
<path d="M4.91396 7.09972C4.87981 7.14763 4.81143 7.16125 4.76366 7.13394L3.58101 6.34094C3.53317 6.30678 3.51948 6.24525 3.55363 6.19063C3.58785 6.14272 3.65623 6.12903 3.70407 6.15641L4.88665 6.94934C4.94134 6.98357 4.94819 7.05187 4.91396 7.09972ZM3.56732 6.19741C3.54001 6.23841 3.54686 6.29994 3.58778 6.32725L4.77728 7.12032C4.81828 7.1477 4.87296 7.13401 4.90034 7.09301C4.92765 7.05194 4.92081 6.99041 4.87988 6.9631L3.69031 6.1701C3.64931 6.14272 3.59463 6.15641 3.56725 6.19741H3.56732Z" fill="white"/>
<path d="M4.65419 6.10164C4.62003 6.14263 4.5585 6.15632 4.5175 6.1221L4.01846 5.73252C3.97746 5.6983 3.97062 5.63677 4.00477 5.59577C4.03892 5.55478 4.10046 5.54109 4.14153 5.57531L4.6405 5.96489C4.68156 5.99911 4.68841 6.06057 4.65419 6.10164Z" fill="#F3F3F3"/>
<path d="M4.66098 6.10851C4.62682 6.15642 4.55845 6.16327 4.51061 6.12904L4.01158 5.73946C3.96374 5.70531 3.9569 5.63694 3.99112 5.58916C4.02527 5.54125 4.09365 5.53441 4.14142 5.56863L4.64044 5.95821C4.68835 5.99243 4.6952 6.06074 4.66098 6.10865V6.10851ZM4.00474 5.59587C3.97059 5.63687 3.97743 5.69155 4.01843 5.7257L4.51745 6.11543C4.55845 6.14273 4.61313 6.13589 4.64729 6.09489C4.68151 6.05389 4.67467 5.99921 4.63367 5.96506L4.13465 5.57533C4.09365 5.54803 4.03889 5.55487 4.00481 5.59587H4.00474Z" fill="white"/>
<path d="M5.67269 6.1701C5.63176 6.21117 5.57016 6.21117 5.53601 6.1701L4.51752 5.16525C4.47652 5.12426 4.4833 5.06272 4.51752 5.0285C4.55852 4.98757 4.62006 4.98757 4.65421 5.0285L5.66599 6.03342C5.70699 6.06757 5.70699 6.13595 5.67283 6.17017L5.67269 6.1701Z" fill="#F3F3F3"/>
<path d="M5.6729 6.1769C5.65284 6.1966 5.62586 6.20763 5.59775 6.20763C5.56964 6.20763 5.54265 6.1966 5.5226 6.1769L4.51078 5.17193C4.49104 5.15187 4.47998 5.12485 4.47998 5.09671C4.47998 5.06856 4.49104 5.04155 4.51078 5.02149C4.53084 5.00177 4.55784 4.99072 4.58597 4.99072C4.61409 4.99072 4.64109 5.00177 4.66115 5.02149L5.6729 6.02639C5.72074 6.06739 5.72074 6.13576 5.6729 6.17676V6.1769ZM4.52461 5.03518C4.49039 5.0694 4.49039 5.13093 4.52461 5.16501L5.53629 6.16991C5.57051 6.20414 5.63197 6.20414 5.66612 6.16991C5.70035 6.13576 5.70035 6.07423 5.66612 6.04008L4.65445 5.0284C4.62029 4.99425 4.56554 4.99425 4.52461 5.03525V5.03518Z" fill="white"/>
<path d="M5.61125 5.15154C5.57025 5.18577 5.50872 5.18577 5.4745 5.1447L5.05747 4.6662C5.02339 4.6252 5.03016 4.56367 5.07123 4.52952C5.11216 4.49529 5.17376 4.49529 5.20791 4.53629L5.62494 5.01486C5.65909 5.04901 5.65225 5.11055 5.61125 5.15154Z" fill="#F3F3F3"/>
<path d="M5.61825 5.15147C5.57041 5.19247 5.50887 5.1857 5.46781 5.14463L5.05084 4.66613C5.00984 4.62513 5.01669 4.55675 5.06453 4.51575C5.11237 4.47468 5.1739 4.48153 5.2149 4.5226L5.63194 5.00103C5.66609 5.04894 5.66609 5.11732 5.61825 5.15147ZM5.07137 4.52944C5.03031 4.56359 5.03031 4.61828 5.05768 4.65928L5.47472 5.13778C5.50887 5.17201 5.56356 5.17885 5.60456 5.14463C5.64556 5.11047 5.64556 5.05571 5.61825 5.01479L5.20121 4.53622C5.16706 4.49529 5.1123 4.49529 5.07137 4.52944Z" fill="white"/>
<path d="M6.59579 5.41133C6.54795 5.44548 6.48642 5.43179 6.45904 5.38395L5.65927 4.2013C5.63189 4.15346 5.64558 4.09192 5.68657 4.06462C5.73442 4.03046 5.79595 4.04415 5.82333 4.09199L6.61625 5.27458C6.65048 5.32242 6.63679 5.38395 6.59579 5.41126V5.41133Z" fill="#F3F3F3"/>
<path d="M6.59573 5.41811C6.54789 5.45234 6.47952 5.43858 6.4453 5.39081L5.6524 4.20814C5.61825 4.16029 5.63194 4.09199 5.68655 4.05783C5.73439 4.02361 5.80277 4.0373 5.83699 4.08514L6.62988 5.26774C6.66404 5.32243 6.65035 5.38396 6.59573 5.41811ZM5.69333 4.07145C5.65233 4.09876 5.63864 4.15345 5.66602 4.19452L6.45891 5.37712C6.48629 5.41811 6.54098 5.42496 6.58875 5.39758C6.62981 5.37027 6.6435 5.31558 6.61612 5.27459L5.8233 4.09876C5.79592 4.05783 5.73439 4.04407 5.69347 4.07145H5.69333Z" fill="white"/>
<path d="M6.73927 4.39956C6.69143 4.42687 6.62991 4.41325 6.6026 4.36541L6.28811 3.81169C6.2608 3.76384 6.28127 3.70231 6.32918 3.67493C6.37702 3.64763 6.43854 3.66124 6.46585 3.70916L6.78027 4.26281C6.8008 4.31065 6.78711 4.37218 6.73934 4.39956H6.73927Z" fill="#F3F3F3"/>
<path d="M6.73925 4.40641C6.68456 4.43372 6.62303 4.4201 6.59572 4.37219L6.28122 3.81853C6.25391 3.77062 6.2676 3.70231 6.32229 3.67493C6.37698 3.64763 6.43851 3.66124 6.46582 3.70916L6.78025 4.26281C6.80763 4.31065 6.79394 4.37219 6.73932 4.40641H6.73925ZM6.32913 3.68178C6.28807 3.70909 6.2676 3.76377 6.29491 3.80484L6.60941 4.35857C6.63672 4.39949 6.69141 4.41325 6.73241 4.39272C6.77347 4.36541 6.79394 4.31065 6.76663 4.26966L6.45213 3.71593C6.43166 3.675 6.37013 3.6544 6.32913 3.68178Z" fill="white"/>
<path d="M7.6484 4.85077C7.59379 4.87123 7.53903 4.85077 7.51857 4.80293L6.96488 3.48351C6.94441 3.43567 6.97172 3.37414 7.01956 3.3536C7.07425 3.33314 7.12893 3.3536 7.1494 3.40145L7.70309 4.72079C7.72362 4.76863 7.69632 4.83017 7.6484 4.85063V4.85077Z" fill="#F3F3F3"/>
<path d="M7.64844 4.85767C7.59382 4.87813 7.53229 4.85767 7.50491 4.80291L6.95118 3.48365C6.94125 3.45735 6.94215 3.42819 6.95369 3.40255C6.96522 3.37692 6.98645 3.3569 7.01272 3.34689C7.0674 3.32643 7.12894 3.34689 7.15632 3.40158L7.70997 4.72092C7.73051 4.76876 7.7032 4.83029 7.64851 4.85767H7.64844ZM7.02641 3.36058C6.97856 3.38105 6.95803 3.4358 6.97856 3.4768L7.53222 4.79607C7.55268 4.84391 7.60737 4.86437 7.65521 4.84391C7.70306 4.82345 7.72366 4.76869 7.70306 4.72769L7.1494 3.40835C7.12202 3.36051 7.07418 3.33998 7.02634 3.36051L7.02641 3.36058Z" fill="white"/>
<path d="M7.98307 3.8801C7.92839 3.90056 7.87371 3.87319 7.85324 3.81857L7.65498 3.21694C7.63452 3.1691 7.66867 3.10757 7.7165 3.09395C7.76434 3.08026 7.82587 3.1008 7.84633 3.15548L8.0446 3.75704C8.06506 3.80488 8.03775 3.85957 7.98307 3.88003V3.8801Z" fill="#F3F3F3"/>
<path d="M7.9904 3.88692C7.96411 3.89683 7.93496 3.89592 7.90934 3.88439C7.88372 3.87286 7.86372 3.85164 7.85371 3.82539L7.65541 3.22383C7.63495 3.16914 7.6691 3.10768 7.72386 3.08715C7.75015 3.07724 7.7793 3.07815 7.80492 3.08968C7.83053 3.10122 7.85054 3.12243 7.86055 3.14868L8.05878 3.75024C8.07247 3.80493 8.04509 3.86646 7.9904 3.88692ZM7.72379 3.10084C7.67595 3.11445 7.64857 3.16914 7.66226 3.21699L7.86055 3.81862C7.87417 3.86646 7.92886 3.88692 7.97678 3.87324C8.02462 3.85962 8.05193 3.80493 8.03824 3.75709L7.84002 3.15545C7.83653 3.14385 7.83064 3.13311 7.82273 3.12393C7.81482 3.11475 7.80507 3.10734 7.7941 3.10218C7.78314 3.09703 7.77121 3.09423 7.7591 3.09399C7.74698 3.09374 7.73495 3.09605 7.72379 3.10077V3.10084Z" fill="white"/>
<path d="M8.78977 4.50205C8.73508 4.51574 8.6804 4.48158 8.67355 4.42682L8.38644 3.02549C8.37275 2.9708 8.41382 2.92296 8.46843 2.90927C8.52319 2.89558 8.5778 2.92974 8.58465 2.98449L8.87183 4.3859C8.87861 4.43367 8.84445 4.48836 8.78977 4.50205Z" fill="#F3F3F3"/>
<path d="M8.78981 4.50891C8.72828 4.52259 8.67359 4.48153 8.6599 4.42684L8.37277 3.0255C8.35908 2.97081 8.40015 2.90928 8.45484 2.90243C8.51637 2.88874 8.57106 2.92981 8.58468 2.9845L8.87188 4.38591C8.8855 4.44053 8.85134 4.49529 8.78981 4.50891ZM8.46853 2.91612C8.42061 2.92297 8.38646 2.97081 8.39331 3.0255L8.68043 4.42691C8.68728 4.47468 8.7419 4.50891 8.78981 4.49522C8.83765 4.48837 8.87181 4.44053 8.86496 4.38584L8.57783 2.98443C8.56421 2.93666 8.51637 2.90928 8.46846 2.91612H8.46853Z" fill="white"/>
<path d="M9.30979 3.61343C9.25511 3.62027 9.20727 3.58612 9.19358 3.53143L9.11159 2.90248C9.10474 2.84779 9.14574 2.79995 9.20049 2.7931C9.25511 2.78626 9.30295 2.82048 9.31664 2.87517L9.39863 3.50405C9.40547 3.55874 9.36448 3.60658 9.30979 3.61343Z" fill="#F3F3F3"/>
<path d="M9.3098 3.62026C9.24827 3.62711 9.19358 3.58611 9.18674 3.53135L9.10475 2.90248C9.0979 2.84779 9.1389 2.7931 9.20043 2.78626C9.26196 2.77948 9.31664 2.82048 9.32349 2.87517L9.40548 3.50404C9.41232 3.55873 9.37133 3.61342 9.3098 3.62026ZM9.20727 2.79995C9.15943 2.80679 9.11837 2.85463 9.12521 2.90248L9.20727 3.53142C9.21412 3.57926 9.26196 3.61342 9.3098 3.60657C9.35764 3.5998 9.3987 3.55189 9.39186 3.50404L9.3098 2.87517C9.30295 2.82732 9.25511 2.7931 9.20727 2.79995Z" fill="white"/>
<path d="M10.0479 18.5909C14.5179 18.5909 18.1416 14.9672 18.1416 10.4972C18.1416 6.02714 14.5179 2.40344 10.0479 2.40344C5.5778 2.40344 1.9541 6.02714 1.9541 10.4972C1.9541 14.9672 5.5778 18.5909 10.0479 18.5909Z" fill="url(#paint2_linear_331_47794)" fill-opacity="0.2"/>
<path d="M15.6533 5.3634L9.12491 9.54703H9.11807V9.55381L9.11122 9.56065L5.03711 16.2804L11.0254 11.4611L11.0322 11.4543V11.4475L15.6533 5.36347L15.6533 5.3634Z" fill="black" fill-opacity="0.05"/>
<path d="M15.5303 4.97375L9.07715 9.56065L10.9912 11.461L15.5303 4.97375Z" fill="#CD151E"/>
<path d="M9.08398 9.54703L10.0479 10.4972L15.5302 4.97375L9.08398 9.54703Z" fill="#FA5153"/>
<path d="M9.08398 9.54707L10.998 11.4474L4.54492 16.0343L9.08398 9.547V9.54707Z" fill="#ACACAC"/>
<path d="M4.54492 16.0343L10.0478 10.4972L9.08391 9.547L4.54492 16.0343Z" fill="#EEEEEE"/>
<defs>
<linearGradient id="paint0_linear_331_47794" x1="10" y1="19.254" x2="10" y2="1.75403" gradientUnits="userSpaceOnUse">
<stop offset="0.25" stop-color="#DBDBDA"/>
<stop offset="1" stop-color="white"/>
</linearGradient>
<radialGradient id="paint1_radial_331_47794" cx="0" cy="0" r="1" gradientUnits="userSpaceOnUse" gradientTransform="translate(11.1372 8.72616) scale(9.87956)">
<stop stop-color="#2ABCE1"/>
<stop offset="0.11363" stop-color="#2ABBE1"/>
<stop offset="1" stop-color="#3375F8"/>
</radialGradient>
<linearGradient id="paint2_linear_331_47794" x1="9.89407" y1="8.18287" x2="6.11639" y2="14.9604" gradientUnits="userSpaceOnUse">
<stop stop-opacity="0"/>
<stop offset="1"/>
</linearGradient>
</defs>
</svg>
