<svg width="16" height="16" viewBox="0 0 16 16" fill="none" xmlns="http://www.w3.org/2000/svg">
<g id="vuesax/bold/filter-square">
<g id="filter-square">
<path id="Vector" d="M13.9654 2.75331C13.772 2.47331 13.5254 2.22665 13.2454 2.03331C12.612 1.57331 11.7854 1.33331 10.792 1.33331H5.20536C5.07203 1.33331 4.9387 1.33998 4.81203 1.35331C2.62536 1.49331 1.33203 2.91331 1.33203 5.20665V10.7933C1.33203 11.7866 1.57203 12.6133 2.03203 13.2466C2.22536 13.5266 2.47203 13.7733 2.75203 13.9666C3.2987 14.3666 3.99203 14.6 4.81203 14.6533C4.9387 14.66 5.07203 14.6666 5.20536 14.6666H10.792C13.2187 14.6666 14.6654 13.22 14.6654 10.7933V5.20665C14.6654 4.21331 14.4254 3.38665 13.9654 2.75331ZM5.6387 7.11998L5.31203 6.77998C5.1387 6.60665 4.9987 6.29331 4.9987 6.07998V5.27998C4.9987 4.85998 5.31203 4.54665 5.6987 4.54665H7.12536C7.3987 4.54665 7.56536 4.84665 7.4187 5.07998L6.18536 7.06665C6.06536 7.25998 5.79203 7.28665 5.6387 7.11998ZM10.9987 6.01331C10.9987 6.29331 10.8254 6.63998 10.652 6.81331L9.15203 8.13998C8.94536 8.31331 8.80536 8.65998 8.80536 8.93998V10.44C8.80536 10.6466 8.66536 10.9266 8.49203 11.0333L7.9987 11.3466C7.54536 11.6266 6.9187 11.3133 6.9187 10.7533V8.90665C6.9187 8.65998 6.7787 8.34665 6.6387 8.17331L6.4787 7.99998C6.37203 7.88665 6.35203 7.71331 6.43203 7.57331L8.2187 4.70665C8.28536 4.60665 8.39203 4.53998 8.51203 4.53998H10.2987C10.6854 4.53998 10.9987 4.85331 10.9987 5.23998V6.01331Z" fill="url(#paint0_linear_1626_11677)"/>
</g>
</g>
<defs>
<linearGradient id="paint0_linear_1626_11677" x1="1.33203" y1="7.99998" x2="16.8876" y2="7.99998" gradientUnits="userSpaceOnUse">
<stop stop-color="#5F27CD"/>
<stop offset="1" stop-color="#3366FF"/>
</linearGradient>
</defs>
</svg>
