<svg width="25" height="24" viewBox="0 0 25 24" fill="none" xmlns="http://www.w3.org/2000/svg">
<g id="more-vertical">
<g id="Icon">
<path d="M13.4688 12C13.4688 11.4477 13.021 11 12.4688 11C11.9165 11 11.4688 11.4477 11.4688 12C11.4688 12.5523 11.9165 13 12.4688 13C13.021 13 13.4688 12.5523 13.4688 12Z" stroke="#94A2B8" stroke-width="2" stroke-linecap="round" stroke-linejoin="round"/>
<path d="M6.46875 12C6.46875 11.4477 6.02103 11 5.46875 11C4.91647 11 4.46875 11.4477 4.46875 12C4.46875 12.5523 4.91647 13 5.46875 13C6.02103 13 6.46875 12.5523 6.46875 12Z" stroke="#94A2B8" stroke-width="2" stroke-linecap="round" stroke-linejoin="round"/>
<path d="M20.4688 12C20.4688 11.4477 20.021 11 19.4688 11C18.9165 11 18.4688 11.4477 18.4688 12C18.4688 12.5523 18.9165 13 19.4688 13C20.021 13 20.4688 12.5523 20.4688 12Z" stroke="#94A2B8" stroke-width="2" stroke-linecap="round" stroke-linejoin="round"/>
</g>
</g>
</svg>
