<svg width="16" height="17" viewBox="0 0 16 17" fill="none" xmlns="http://www.w3.org/2000/svg">
<path d="M4.46928 12.8483H2.76929C1.54262 12.8483 0.835938 12.1416 0.835938 10.915V3.11499C0.835938 1.88832 1.54262 1.18164 2.76929 1.18164H5.63595C6.86261 1.18164 7.56925 1.88832 7.56925 3.11499V4.34831C7.56925 4.62164 7.34259 4.84831 7.06925 4.84831C6.79592 4.84831 6.56925 4.62164 6.56925 4.34831V3.11499C6.56925 2.43499 6.31595 2.18164 5.63595 2.18164H2.76929C2.08929 2.18164 1.83594 2.43499 1.83594 3.11499V10.915C1.83594 11.595 2.08929 11.8483 2.76929 11.8483H4.46928C4.74261 11.8483 4.96928 12.075 4.96928 12.3483C4.96928 12.6216 4.74261 12.8483 4.46928 12.8483Z" fill="#64748B"/>
<path d="M9.97542 15.5143H6.08207C4.74207 15.5143 3.96875 14.741 3.96875 13.401V5.96098C3.96875 4.62098 4.74207 3.84766 6.08207 3.84766H9.97542C11.3154 3.84766 12.0821 4.62098 12.0821 5.96098V13.401C12.0821 14.741 11.3154 15.5143 9.97542 15.5143ZM6.08207 4.84766C5.28207 4.84766 4.96875 5.16098 4.96875 5.96098V13.401C4.96875 14.201 5.28207 14.5143 6.08207 14.5143H9.97542C10.7688 14.5143 11.0821 14.201 11.0821 13.401V5.96098C11.0821 5.16098 10.7688 4.84766 9.97542 4.84766H6.08207Z" fill="#64748B"/>
<path d="M13.2297 12.8483H11.5763C11.303 12.8483 11.0763 12.6216 11.0763 12.3483C11.0763 12.075 11.303 11.8483 11.5763 11.8483H13.2297C13.9097 11.8483 14.163 11.595 14.163 10.915V3.11499C14.163 2.43499 13.9097 2.18164 13.2297 2.18164H10.363C9.683 2.18164 9.42969 2.43499 9.42969 3.11499V4.34831C9.42969 4.62164 9.20302 4.84831 8.92969 4.84831C8.65635 4.84831 8.42969 4.62164 8.42969 4.34831V3.11499C8.42969 1.88832 9.13633 1.18164 10.363 1.18164H13.2297C14.4563 1.18164 15.163 1.88832 15.163 3.11499V10.915C15.163 12.1416 14.4563 12.8483 13.2297 12.8483Z" fill="#64748B"/>
<path d="M9.33073 8.18164H6.66406C6.39073 8.18164 6.16406 7.95497 6.16406 7.68164C6.16406 7.40831 6.39073 7.18164 6.66406 7.18164H9.33073C9.60406 7.18164 9.83073 7.40831 9.83073 7.68164C9.83073 7.95497 9.60406 8.18164 9.33073 8.18164Z" fill="#64748B"/>
<path d="M9.33073 10.1816H6.66406C6.39073 10.1816 6.16406 9.95497 6.16406 9.68164C6.16406 9.40831 6.39073 9.18164 6.66406 9.18164H9.33073C9.60406 9.18164 9.83073 9.40831 9.83073 9.68164C9.83073 9.95497 9.60406 10.1816 9.33073 10.1816Z" fill="#64748B"/>
<path d="M8 15.5137C7.72667 15.5137 7.5 15.287 7.5 15.0137V13.0137C7.5 12.7403 7.72667 12.5137 8 12.5137C8.27333 12.5137 8.5 12.7403 8.5 13.0137V15.0137C8.5 15.287 8.27333 15.5137 8 15.5137Z" fill="#64748B"/>
</svg>
