<svg width="16" height="17" viewBox="0 0 16 17" fill="none" xmlns="http://www.w3.org/2000/svg">
<path d="M4.12204 15.5136C4.05538 15.5136 3.98204 15.507 3.92204 15.5003L2.47538 15.3003C1.78204 15.207 1.15538 14.587 1.04871 13.8803L0.848711 12.4203C0.782044 11.9536 0.982044 11.347 1.31538 11.007L4.24204 8.08029C3.76871 6.18695 4.31538 4.18695 5.70871 2.80695C7.86871 0.653621 11.382 0.646954 13.5487 2.80695C14.5954 3.85362 15.1687 5.24695 15.1687 6.72695C15.1687 8.20695 14.5954 9.60029 13.5487 10.647C12.1487 12.0336 10.1554 12.5803 8.27538 12.1003L5.34204 15.027C5.06204 15.3203 4.56204 15.5136 4.12204 15.5136ZM9.62204 2.18695C8.45538 2.18695 7.29538 2.62695 6.40871 3.51362C5.20871 4.70695 4.77538 6.45362 5.27538 8.08029C5.32871 8.26029 5.28204 8.44695 5.14871 8.58029L2.01538 11.7136C1.90204 11.827 1.80871 12.1203 1.82871 12.2736L2.02871 13.7336C2.06871 13.987 2.34204 14.2736 2.59538 14.307L4.04871 14.507C4.20871 14.5336 4.50204 14.4403 4.61538 14.327L7.76204 11.187C7.89538 11.0536 8.08871 11.0136 8.26204 11.067C9.86871 11.5736 11.622 11.1403 12.822 9.94029C13.6754 9.08695 14.1487 7.94029 14.1487 6.72695C14.1487 5.50695 13.6754 4.36695 12.822 3.51362C11.9554 2.63362 10.7887 2.18695 9.62204 2.18695Z" fill="#465468"/>
<path d="M6.12542 14.0414C5.99875 14.0414 5.87208 13.9948 5.77208 13.8948L4.23875 12.3614C4.04542 12.1681 4.04542 11.8481 4.23875 11.6548C4.43208 11.4614 4.75208 11.4614 4.94542 11.6548L6.47875 13.1881C6.67208 13.3814 6.67208 13.7014 6.47875 13.8948C6.37875 13.9948 6.25208 14.0414 6.12542 14.0414Z" fill="#465468"/>
<path d="M9.66406 8.18164C8.8374 8.18164 8.16406 7.50831 8.16406 6.68164C8.16406 5.85497 8.8374 5.18164 9.66406 5.18164C10.4907 5.18164 11.1641 5.85497 11.1641 6.68164C11.1641 7.50831 10.4907 8.18164 9.66406 8.18164ZM9.66406 6.18164C9.39073 6.18164 9.16406 6.40831 9.16406 6.68164C9.16406 6.95497 9.39073 7.18164 9.66406 7.18164C9.9374 7.18164 10.1641 6.95497 10.1641 6.68164C10.1641 6.40831 9.9374 6.18164 9.66406 6.18164Z" fill="#465468"/>
</svg>
