<svg width="16" height="17" viewBox="0 0 16 17" fill="none" xmlns="http://www.w3.org/2000/svg">
<path d="M9.9974 15.515H5.9974C3.0574 15.515 2.16406 14.6216 2.16406 11.6816V5.01497C2.16406 2.07497 3.0574 1.18164 5.9974 1.18164H9.9974C12.9374 1.18164 13.8307 2.07497 13.8307 5.01497V11.6816C13.8307 14.6216 12.9374 15.515 9.9974 15.515ZM5.9974 2.18164C3.61073 2.18164 3.16406 2.63497 3.16406 5.01497V11.6816C3.16406 14.0616 3.61073 14.515 5.9974 14.515H9.9974C12.3841 14.515 12.8307 14.0616 12.8307 11.6816V5.01497C12.8307 2.63497 12.3841 2.18164 9.9974 2.18164H5.9974Z" fill="#64748B"/>
<path d="M9.33073 4.51367H6.66406C6.39073 4.51367 6.16406 4.28701 6.16406 4.01367C6.16406 3.74034 6.39073 3.51367 6.66406 3.51367H9.33073C9.60406 3.51367 9.83073 3.74034 9.83073 4.01367C9.83073 4.28701 9.60406 4.51367 9.33073 4.51367Z" fill="#64748B"/>
<path d="M8.00208 13.5882C7.15542 13.5882 6.46875 12.9015 6.46875 12.0548C6.46875 11.2082 7.15542 10.5215 8.00208 10.5215C8.84875 10.5215 9.53542 11.2082 9.53542 12.0548C9.53542 12.9015 8.84875 13.5882 8.00208 13.5882ZM8.00208 11.5148C7.70875 11.5148 7.46875 11.7548 7.46875 12.0482C7.46875 12.3415 7.70875 12.5815 8.00208 12.5815C8.29542 12.5815 8.53542 12.3415 8.53542 12.0482C8.53542 11.7548 8.29542 11.5148 8.00208 11.5148Z" fill="#64748B"/>
</svg>
