<svg width="16" height="17" viewBox="0 0 16 17" fill="none" xmlns="http://www.w3.org/2000/svg">
<path d="M11.3359 14.515H4.66927C2.23594 14.515 0.835938 13.115 0.835938 10.6816V6.01497C0.835938 3.58164 2.23594 2.18164 4.66927 2.18164H11.3359C13.7693 2.18164 15.1693 3.58164 15.1693 6.01497V10.6816C15.1693 13.115 13.7693 14.515 11.3359 14.515ZM4.66927 3.18164C2.7626 3.18164 1.83594 4.10831 1.83594 6.01497V10.6816C1.83594 12.5883 2.7626 13.515 4.66927 13.515H11.3359C13.2426 13.515 14.1693 12.5883 14.1693 10.6816V6.01497C14.1693 4.10831 13.2426 3.18164 11.3359 3.18164H4.66927Z" fill="#64748B"/>
<path d="M7.9992 8.92763C7.4392 8.92763 6.87254 8.7543 6.4392 8.40097L4.35253 6.7343C4.1392 6.56097 4.0992 6.24764 4.27254 6.0343C4.44587 5.82097 4.75921 5.78097 4.97254 5.95431L7.0592 7.62097C7.56587 8.02764 8.42586 8.02764 8.93253 7.62097L11.0192 5.95431C11.2325 5.78097 11.5525 5.8143 11.7192 6.0343C11.8925 6.24764 11.8592 6.56764 11.6392 6.7343L9.55254 8.40097C9.12587 8.7543 8.5592 8.92763 7.9992 8.92763Z" fill="#64748B"/>
</svg>
