<svg width="16" height="17" viewBox="0 0 16 17" fill="none" xmlns="http://www.w3.org/2000/svg">
<path d="M7.9974 8.84831C5.88406 8.84831 4.16406 7.12831 4.16406 5.01497C4.16406 2.90164 5.88406 1.18164 7.9974 1.18164C10.1107 1.18164 11.8307 2.90164 11.8307 5.01497C11.8307 7.12831 10.1107 8.84831 7.9974 8.84831ZM7.9974 2.18164C6.4374 2.18164 5.16406 3.45497 5.16406 5.01497C5.16406 6.57497 6.4374 7.84831 7.9974 7.84831C9.5574 7.84831 10.8307 6.57497 10.8307 5.01497C10.8307 3.45497 9.5574 2.18164 7.9974 2.18164Z" fill="#64748B"/>
<path d="M13.7268 15.5143C13.4534 15.5143 13.2268 15.2877 13.2268 15.0143C13.2268 12.7143 10.8801 10.8477 8.0001 10.8477C5.1201 10.8477 2.77344 12.7143 2.77344 15.0143C2.77344 15.2877 2.54677 15.5143 2.27344 15.5143C2.0001 15.5143 1.77344 15.2877 1.77344 15.0143C1.77344 12.1677 4.56677 9.84766 8.0001 9.84766C11.4334 9.84766 14.2268 12.1677 14.2268 15.0143C14.2268 15.2877 14.0001 15.5143 13.7268 15.5143Z" fill="#64748B"/>
</svg>
