<svg width="153" height="33" viewBox="0 0 153 33" fill="none" xmlns="http://www.w3.org/2000/svg">
<path d="M39.5312 18.5849C39.5312 16.7227 40.1067 15.1863 41.2503 13.9819C42.3975 12.7775 43.9447 12.1737 45.8888 12.1737C47.5863 12.2345 48.8479 12.6739 49.6664 13.4925V12.0881H52.7114V24.8748H49.738V23.6096C49.2985 23.9887 48.8195 24.2958 48.3049 24.5245C47.7866 24.7569 46.9825 24.8925 45.8888 24.9284C44.109 24.9248 42.6655 24.4282 41.561 23.4309C40.2102 22.1945 39.5312 20.5823 39.5312 18.5849ZM42.5759 18.674C42.5759 19.7677 42.951 20.6538 43.698 21.3292C44.3054 21.8759 45.2203 22.1654 46.4427 22.201C47.4148 22.0938 48.1829 21.7651 48.7479 21.2145C49.3125 20.6607 49.6377 19.8637 49.72 18.8165C49.7664 17.7836 49.57 16.9651 49.1306 16.3576C48.3944 15.4107 47.3795 14.9353 46.0856 14.9353C44.9455 15.0425 44.0666 15.414 43.4516 16.0574C42.8334 16.6971 42.5403 17.5693 42.5759 18.6733V18.674ZM66.1768 20.2072C65.9981 21.6687 65.3835 22.8195 64.3326 23.6629C63.2818 24.5062 61.9954 24.9101 60.4766 24.8745C58.6824 24.8601 57.3316 24.4634 56.4239 23.6808C55.5162 22.8947 54.93 21.7439 54.6693 20.2251V11.9806H57.6995V19.1567C57.6995 20.1644 58.0106 20.8433 58.6324 21.1936C59.2578 21.5439 59.876 21.7047 60.4942 21.6691C61.2304 21.6906 61.8594 21.4759 62.3812 21.0257C62.9031 20.5754 63.1638 19.8464 63.1638 18.8352V12.0165H66.1764L66.1768 20.2072ZM69.972 8.3997L72.9811 6.92017V11.8198L75.7402 11.8378L75.7222 14.7576H72.9811V20.0468C72.9562 21.0437 73.1418 21.7262 73.5317 22.0945C73.8424 22.4164 74.393 22.6771 75.1899 22.8774L75.9189 23.0738L74.5645 25.7649L73.4245 25.4254C72.4776 25.1179 71.6878 24.6249 71.0585 23.9459C70.6546 23.4849 70.3583 22.9562 70.1651 22.3628C70.0364 21.8769 69.972 21.23 69.972 20.4222V14.8652L68.153 14.8832V11.8025L69.972 11.8205V8.40041V8.3997ZM76.9158 18.4989C76.9158 16.6227 77.4912 15.0752 78.6417 13.8568C79.7925 12.6416 81.354 12.0341 83.327 12.0341C85.5571 12.0341 87.2509 12.7455 88.4018 14.1711C89.3167 15.3219 89.7741 16.7335 89.7741 18.4094C89.7741 20.3071 89.2023 21.8615 88.0623 23.0659C86.9258 24.2703 85.3463 24.8741 83.3273 24.8741C81.5331 24.8741 80.0788 24.3739 78.9639 23.377C77.5987 22.1298 76.9158 20.5035 76.9158 18.4989ZM79.8353 18.5849C79.8353 19.6889 80.2144 20.5862 80.9753 21.276C81.5828 21.8226 82.5012 22.1121 83.7377 22.1477C84.7098 22.0298 85.4815 21.6975 86.0497 21.1508C86.6216 20.6042 86.9467 19.8033 87.029 18.7456C87.079 17.7023 86.8827 16.8766 86.4428 16.2728C85.7067 15.3079 84.6846 14.8288 83.3802 14.8288C82.2294 14.936 81.3396 15.3115 80.7178 15.9581C80.0924 16.6047 79.7997 17.4804 79.8353 18.5849ZM91.7143 17.1089C91.7035 15.5898 91.9823 14.4358 92.5505 13.6532C93.1223 12.8706 93.8013 12.3524 94.591 12.1021C95.3808 11.8558 96.3065 11.7806 97.3714 11.8806C98.4326 11.9806 99.4371 12.5308 100.388 13.5281C101.564 12.5204 102.725 11.9806 103.868 11.909C105.016 11.8374 105.937 11.923 106.631 12.1661C107.324 12.4092 107.924 12.8451 108.428 13.4741C108.932 14.1031 109.161 15.2396 109.114 16.8762V24.8205H106.159V17.6232C106.159 16.6759 106.012 16.0185 105.723 15.6574C105.43 15.2928 104.923 15.1 104.19 15.068C103.461 15.0392 102.875 15.2288 102.435 15.6398C101.996 16.0473 101.789 16.7619 101.814 17.784V24.8921H98.9117V17.8375C98.9329 16.8298 98.7613 16.1401 98.3934 15.7718C98.0255 15.4039 97.5073 15.2212 96.8355 15.2212C96.1637 15.2212 95.6563 15.4035 95.3132 15.7718C94.9701 16.1397 94.7557 16.8331 94.6734 17.8552V24.8917H91.7143V17.1082V17.1089ZM110.934 18.4993C110.934 16.6231 111.509 15.0756 112.66 13.8571C113.811 12.6419 115.372 12.0345 117.345 12.0345C119.575 12.0345 121.269 12.7459 122.42 14.1714C123.335 15.3223 123.792 16.7338 123.792 18.4097C123.792 20.3075 123.22 21.8618 122.08 23.0662C120.944 24.2706 119.364 24.8745 117.345 24.8745C115.551 24.8745 114.097 24.3742 112.982 23.3773C111.617 22.1301 110.934 20.5039 110.934 18.4993ZM113.853 18.5852C113.853 19.6893 114.232 20.5866 114.993 21.2763C115.601 21.823 116.519 22.1125 117.756 22.1481C118.728 22.0301 119.5 21.6978 120.068 21.1512C120.64 20.6046 120.965 19.8037 121.047 18.746C121.097 17.7027 120.901 16.877 120.461 16.2731C119.725 15.3082 118.703 14.8292 117.398 14.8292C116.247 14.9364 115.358 15.3118 114.736 15.9585C114.11 16.6051 113.818 17.4808 113.853 18.5852ZM125.715 18.5136C125.715 16.6162 126.29 15.0543 127.434 13.8323C128.581 12.6099 130.128 11.9989 132.072 11.9989C133.773 12.0705 135.031 12.5207 135.85 13.3497V6.99173H138.913V24.8925H135.939V23.6276C135.499 24.0063 135.021 24.3138 134.506 24.5425C133.988 24.7749 133.184 24.914 132.09 24.9644C130.299 24.9644 128.856 24.4569 127.762 23.4492C126.397 22.1913 125.715 20.5474 125.715 18.5136ZM128.831 18.4457C128.831 19.5498 129.206 20.4434 129.953 21.1329C130.56 21.6903 131.468 21.9942 132.68 22.0406C133.666 21.9226 134.438 21.5831 134.995 21.0257C135.553 20.4683 135.878 19.6605 135.975 18.6028C136.011 17.5344 135.807 16.6979 135.367 16.094C134.645 15.1184 133.634 14.6325 132.34 14.6325C131.2 14.7397 130.321 15.1223 129.706 15.7833C129.088 16.4407 128.799 17.3272 128.831 18.4457ZM153 19.5857H143.151C143.222 20.3539 143.526 20.9901 144.059 21.4903C144.723 22.1405 145.581 22.4408 146.625 22.3801C147.421 22.3801 148.058 22.2657 148.54 22.0406C149.019 21.8154 149.451 21.458 149.83 20.9721L152.589 21.8262C151.914 22.8947 151.138 23.6844 150.266 24.1883C149.394 24.6921 148.222 24.946 146.75 24.946C145.442 24.9676 144.352 24.7389 143.473 24.2599C142.593 23.7772 141.814 23.027 141.139 22.0046C140.464 20.9861 140.124 19.7853 140.124 18.4094C140.124 16.3436 140.75 14.689 142.004 13.4489C143.255 12.2089 144.723 11.6155 146.41 11.6763C147.729 11.6403 148.891 11.9014 149.902 12.4589C150.91 13.0163 151.678 13.8097 152.207 14.8353C152.736 15.8646 153 17.2618 153 19.0308V19.5846L153 19.5857ZM149.937 17.3056C149.891 16.4371 149.558 15.7261 148.94 15.1683C148.322 14.6073 147.521 14.3286 146.535 14.3286C145.527 14.3534 144.72 14.6429 144.112 15.2043C143.508 15.7617 143.197 16.4623 143.186 17.3056H149.937Z" fill="#131F44"/>
<path fill-rule="evenodd" clip-rule="evenodd" d="M13.3888 0.013701C8.61648 -0.163958 3.92436 1.38858 0.224453 4.52925L2.99902 7.60447C3.64204 6.72661 4.35196 5.89837 5.12193 5.1284C7.45667 2.79294 10.2855 1.04765 13.3888 0.013701ZM32.4715 4.52924L26.8968 10.7085C22.3852 7.02869 15.7457 7.50053 11.6214 11.6259C7.49784 15.7505 7.02276 22.3861 10.7083 26.9016C8.64866 28.7606 6.58976 30.6192 4.53051 32.4781C-2.08026 24.6985 -1.30777 13.0709 5.87733 5.88362C13.0642 -1.30508 24.6994 -2.07038 32.4715 4.52924ZM21.0753 11.6256C20.1838 10.734 19.1595 9.99644 18.0393 9.43721H18.0396C21.0818 8.90747 24.2386 9.73858 26.5888 11.8496L26.9851 12.2053L29.5817 9.32716C31.8039 12.8228 32.8925 16.9453 32.6681 21.0915C32.4408 25.2902 30.8832 29.2771 28.1662 32.4778C26.1066 30.6189 24.0477 28.7603 21.9884 26.9013C25.6739 22.3858 25.1989 15.7502 21.0753 11.6256ZM9.53228 22.1006C9.0403 19.9198 9.27622 17.6278 10.1742 15.5909C11.4729 17.6753 13.8669 18.8941 16.3477 18.8941C18.8288 18.8941 21.2229 17.6753 22.5211 15.5909C23.4195 17.6278 23.6554 19.9198 23.1631 22.1006C21.0999 23.3169 18.7428 23.9336 16.3477 23.9336C13.9525 23.9336 11.5955 23.3169 9.53228 22.1006Z" fill="url(#paint0_linear_561_63419)"/>
<defs>
<linearGradient id="paint0_linear_561_63419" x1="16.3485" y1="0" x2="16.3485" y2="32.4781" gradientUnits="userSpaceOnUse">
<stop stop-color="#5F27CD"/>
<stop offset="1" stop-color="#64B2FD"/>
</linearGradient>
</defs>
</svg>
