<svg width="14" height="14" viewBox="0 0 14 14" fill="none" xmlns="http://www.w3.org/2000/svg">
<path d="M8.74935 13.2708L5.24935 13.2708C2.08185 13.2708 0.728516 11.9175 0.728516 8.74996L0.728516 5.24996C0.728516 2.08246 2.08185 0.729126 5.24935 0.729126L8.74935 0.729126C11.9169 0.729126 13.2702 2.08246 13.2702 5.24996L13.2702 8.74996C13.2702 11.9175 11.9169 13.2708 8.74935 13.2708ZM5.24935 1.60413C2.56018 1.60413 1.60352 2.56079 1.60352 5.24996L1.60352 8.74996C1.60352 11.4391 2.56018 12.3958 5.24935 12.3958L8.74935 12.3958C11.4385 12.3958 12.3952 11.4391 12.3952 8.74996L12.3952 5.24996C12.3952 2.56079 11.4385 1.60413 8.74935 1.60413L5.24935 1.60413Z" fill="#5E6874"/>
<path d="M4.8125 12.9792C4.57333 12.9792 4.375 12.7808 4.375 12.5417L4.375 7C4.375 6.76083 4.57333 6.5625 4.8125 6.5625C5.05167 6.5625 5.25 6.76083 5.25 7L5.25 12.5417C5.25 12.7808 5.05167 12.9792 4.8125 12.9792Z" fill="#5E6874"/>
<path d="M9.1875 13.2708C8.94833 13.2708 8.75 13.0725 8.75 12.8333L8.75 7C8.75 6.76083 8.94833 6.5625 9.1875 6.5625C9.42667 6.5625 9.625 6.76083 9.625 7L9.625 12.8333C9.625 13.0725 9.42667 13.2708 9.1875 13.2708Z" fill="#5E6874"/>
<path d="M4.8125 7.43746C4.57333 7.43746 4.375 7.23913 4.375 6.99996L4.375 1.16663C4.375 0.927459 4.57333 0.729126 4.8125 0.729126C5.05167 0.729126 5.25 0.927459 5.25 1.16663L5.25 6.99996C5.25 7.23913 5.05167 7.43746 4.8125 7.43746Z" fill="#5E6874"/>
<path d="M9.1875 7.43752C8.94833 7.43752 8.75 7.23919 8.75 7.00002L8.75 1.48169C8.75 1.24252 8.94833 1.04419 9.1875 1.04419C9.42667 1.04419 9.625 1.24252 9.625 1.48169L9.625 7.00002C9.625 7.23919 9.42667 7.43752 9.1875 7.43752Z" fill="#5E6874"/>
</svg>
