<svg width="14" height="14" viewBox="0 0 14 14" fill="none" xmlns="http://www.w3.org/2000/svg">
<path d="M12.834 4.22913L9.33398 4.22913C9.09482 4.22913 8.89648 4.03079 8.89648 3.79163C8.89648 3.55246 9.09482 3.35413 9.33398 3.35413L12.834 3.35413C13.0732 3.35413 13.2715 3.55246 13.2715 3.79163C13.2715 4.03079 13.0732 4.22913 12.834 4.22913Z" fill="#5E6874"/>
<path d="M3.49935 4.22913H1.16602C0.926849 4.22913 0.728516 4.03079 0.728516 3.79163C0.728516 3.55246 0.926849 3.35413 1.16602 3.35413L3.49935 3.35413C3.73852 3.35413 3.93685 3.55246 3.93685 3.79163C3.93685 4.03079 3.73852 4.22913 3.49935 4.22913Z" fill="#5E6874"/>
<path d="M5.83268 6.27083C4.46768 6.27083 3.35352 5.15667 3.35352 3.79167C3.35352 2.42667 4.46768 1.3125 5.83268 1.3125C7.19768 1.3125 8.31185 2.42667 8.31185 3.79167C8.31185 5.15667 7.19768 6.27083 5.83268 6.27083ZM5.83268 2.1875C4.94602 2.1875 4.22852 2.905 4.22852 3.79167C4.22852 4.67833 4.94602 5.39583 5.83268 5.39583C6.71935 5.39583 7.43685 4.67833 7.43685 3.79167C7.43685 2.905 6.71935 2.1875 5.83268 2.1875Z" fill="#5E6874"/>
<path d="M12.8333 10.6459H10.5C10.2608 10.6459 10.0625 10.4475 10.0625 10.2084C10.0625 9.96921 10.2608 9.77087 10.5 9.77087H12.8333C13.0725 9.77087 13.2708 9.96921 13.2708 10.2084C13.2708 10.4475 13.0725 10.6459 12.8333 10.6459Z" fill="#5E6874"/>
<path d="M4.66602 10.6459H1.16602C0.926849 10.6459 0.728516 10.4475 0.728516 10.2084C0.728516 9.96921 0.926849 9.77087 1.16602 9.77087H4.66602C4.90518 9.77087 5.10352 9.96921 5.10352 10.2084C5.10352 10.4475 4.90518 10.6459 4.66602 10.6459Z" fill="#5E6874"/>
<path d="M8.16667 12.6875C6.80167 12.6875 5.6875 11.5733 5.6875 10.2083C5.6875 8.84329 6.80167 7.72913 8.16667 7.72913C9.53167 7.72913 10.6458 8.84329 10.6458 10.2083C10.6458 11.5733 9.53167 12.6875 8.16667 12.6875ZM8.16667 8.60413C7.28 8.60413 6.5625 9.32163 6.5625 10.2083C6.5625 11.095 7.28 11.8125 8.16667 11.8125C9.05333 11.8125 9.77083 11.095 9.77083 10.2083C9.77083 9.32163 9.05333 8.60413 8.16667 8.60413Z" fill="#5E6874"/>
</svg>
