<svg width="16" height="16" viewBox="0 0 16 16" fill="none" xmlns="http://www.w3.org/2000/svg">
<path d="M6.00065 8.6665C6.36884 8.6665 6.66732 8.36803 6.66732 7.99984C6.66732 7.63165 6.36884 7.33317 6.00065 7.33317C5.63246 7.33317 5.33398 7.63165 5.33398 7.99984C5.33398 8.36803 5.63246 8.6665 6.00065 8.6665Z" stroke="#465468" stroke-width="1.33333" stroke-linecap="round" stroke-linejoin="round"/>
<path d="M6.00065 3.99984C6.36884 3.99984 6.66732 3.70136 6.66732 3.33317C6.66732 2.96498 6.36884 2.6665 6.00065 2.6665C5.63246 2.6665 5.33398 2.96498 5.33398 3.33317C5.33398 3.70136 5.63246 3.99984 6.00065 3.99984Z" stroke="#465468" stroke-width="1.33333" stroke-linecap="round" stroke-linejoin="round"/>
<path d="M6.00065 13.3332C6.36884 13.3332 6.66732 13.0347 6.66732 12.6665C6.66732 12.2983 6.36884 11.9998 6.00065 11.9998C5.63246 11.9998 5.33398 12.2983 5.33398 12.6665C5.33398 13.0347 5.63246 13.3332 6.00065 13.3332Z" stroke="#465468" stroke-width="1.33333" stroke-linecap="round" stroke-linejoin="round"/>
<path d="M10.0007 8.6665C10.3688 8.6665 10.6673 8.36803 10.6673 7.99984C10.6673 7.63165 10.3688 7.33317 10.0007 7.33317C9.63246 7.33317 9.33398 7.63165 9.33398 7.99984C9.33398 8.36803 9.63246 8.6665 10.0007 8.6665Z" stroke="#465468" stroke-width="1.33333" stroke-linecap="round" stroke-linejoin="round"/>
<path d="M10.0007 3.99984C10.3688 3.99984 10.6673 3.70136 10.6673 3.33317C10.6673 2.96498 10.3688 2.6665 10.0007 2.6665C9.63246 2.6665 9.33398 2.96498 9.33398 3.33317C9.33398 3.70136 9.63246 3.99984 10.0007 3.99984Z" stroke="#465468" stroke-width="1.33333" stroke-linecap="round" stroke-linejoin="round"/>
<path d="M10.0007 13.3332C10.3688 13.3332 10.6673 13.0347 10.6673 12.6665C10.6673 12.2983 10.3688 11.9998 10.0007 11.9998C9.63246 11.9998 9.33398 12.2983 9.33398 12.6665C9.33398 13.0347 9.63246 13.3332 10.0007 13.3332Z" stroke="#465468" stroke-width="1.33333" stroke-linecap="round" stroke-linejoin="round"/>
</svg>
