<svg width="14" height="14" viewBox="0 0 14 14" fill="none" xmlns="http://www.w3.org/2000/svg">
<path d="M9.33464 7.4375L4.66797 7.4375C4.4288 7.4375 4.23047 7.23917 4.23047 7C4.23047 6.76083 4.4288 6.5625 4.66797 6.5625L9.33464 6.5625C9.5738 6.5625 9.77214 6.76083 9.77214 7C9.77214 7.23917 9.5738 7.4375 9.33464 7.4375Z" fill="url(#paint0_linear_3012_47220)"/>
<path d="M7 9.77085C6.76083 9.77085 6.5625 9.57252 6.5625 9.33335L6.5625 4.66669C6.5625 4.42752 6.76083 4.22919 7 4.22919C7.23917 4.22919 7.4375 4.42752 7.4375 4.66669L7.4375 9.33335C7.4375 9.57252 7.23917 9.77085 7 9.77085Z" fill="url(#paint1_linear_3012_47220)"/>
<path d="M8.7513 13.2709L5.2513 13.2709C2.0838 13.2709 0.730469 11.9175 0.730469 8.75002L0.730469 5.25002C0.730469 2.08252 2.0838 0.729187 5.2513 0.729187L8.7513 0.729187C11.9188 0.729187 13.2721 2.08252 13.2721 5.25002L13.2721 8.75002C13.2721 11.9175 11.9188 13.2709 8.7513 13.2709ZM5.2513 1.60419C2.56214 1.60419 1.60547 2.56085 1.60547 5.25002L1.60547 8.75002C1.60547 11.4392 2.56214 12.3959 5.2513 12.3959L8.7513 12.3959C11.4405 12.3959 12.3971 11.4392 12.3971 8.75002L12.3971 5.25002C12.3971 2.56085 11.4405 1.60419 8.7513 1.60419L5.2513 1.60419Z" fill="url(#paint2_linear_3012_47220)"/>
<defs>
<linearGradient id="paint0_linear_3012_47220" x1="4.23047" y1="7" x2="10.6957" y2="7" gradientUnits="userSpaceOnUse">
<stop stop-color="#5F27CD"/>
<stop offset="1" stop-color="#3366FF"/>
</linearGradient>
<linearGradient id="paint1_linear_3012_47220" x1="6.5625" y1="7.00002" x2="7.58333" y2="7.00002" gradientUnits="userSpaceOnUse">
<stop stop-color="#5F27CD"/>
<stop offset="1" stop-color="#3366FF"/>
</linearGradient>
<linearGradient id="paint2_linear_3012_47220" x1="0.730469" y1="7.00002" x2="15.3624" y2="7.00002" gradientUnits="userSpaceOnUse">
<stop stop-color="#5F27CD"/>
<stop offset="1" stop-color="#3366FF"/>
</linearGradient>
</defs>
</svg>
