<svg width="16" height="16" viewBox="0 0 16 16" fill="none" xmlns="http://www.w3.org/2000/svg">
<path d="M8.3325 15.1665H2.71917C1.6725 15.1665 0.8125 14.3265 0.8125 13.2865V3.39313C0.8125 2.37313 1.1925 1.5798 1.88583 1.14647C2.58583 0.706466 3.4925 0.719799 4.4325 1.18647L7.3925 2.6398C8.19917 3.0398 8.8325 4.04647 8.8325 4.9398V14.6665C8.8325 14.9398 8.60583 15.1665 8.3325 15.1665ZM3.03917 1.83313C2.80583 1.83313 2.5925 1.88647 2.4125 1.9998C2.02583 2.2398 1.8125 2.7398 1.8125 3.39313V13.2865C1.8125 13.7731 2.21917 14.1665 2.71917 14.1665H7.8325V4.9398C7.8325 4.42647 7.41917 3.76647 6.94583 3.5398L3.98583 2.08647C3.64583 1.9198 3.32583 1.83313 3.03917 1.83313Z" fill="#64748B"/>
<path d="M12.5387 15.1665H8.33203C8.0587 15.1665 7.83203 14.9399 7.83203 14.6665V6.94652C7.83203 6.79319 7.8987 6.65319 8.0187 6.55985C8.1387 6.46652 8.28536 6.42652 8.4387 6.45985L8.75203 6.52652L13.112 7.49985C14.4387 7.79319 15.1054 8.57319 15.1454 9.89985C15.152 9.89985 15.152 9.96652 15.152 10.0399V12.5599C15.1454 14.2665 14.2454 15.1665 12.5387 15.1665ZM8.83203 14.1665H12.5387C13.712 14.1665 14.1454 13.7332 14.1454 12.5599V9.98652C14.112 9.07319 13.7654 8.66652 12.892 8.47319L8.83203 7.56652V14.1665Z" fill="#64748B"/>
<path d="M5.9813 6.5H3.66797C3.39464 6.5 3.16797 6.27333 3.16797 6C3.16797 5.72667 3.39464 5.5 3.66797 5.5H5.9813C6.25464 5.5 6.4813 5.72667 6.4813 6C6.4813 6.27333 6.2613 6.5 5.9813 6.5Z" fill="#64748B"/>
<path d="M5.9813 9.16699H3.66797C3.39464 9.16699 3.16797 8.94033 3.16797 8.66699C3.16797 8.39366 3.39464 8.16699 3.66797 8.16699H5.9813C6.25464 8.16699 6.4813 8.39366 6.4813 8.66699C6.4813 8.94033 6.2613 9.16699 5.9813 9.16699Z" fill="#64748B"/>
<path d="M10.1484 11.8336C9.04844 11.8336 8.14844 10.9336 8.14844 9.83365V7.01365C8.14844 6.86031 8.2151 6.72031 8.3351 6.62031C8.4551 6.52031 8.60844 6.48698 8.7551 6.52031L11.7551 7.19365C11.9818 7.24698 12.1484 7.44698 12.1484 7.68031V9.82698C12.1484 10.9336 11.2551 11.8336 10.1484 11.8336ZM9.14844 7.64031V9.83365C9.14844 10.387 9.5951 10.8336 10.1484 10.8336C10.7018 10.8336 11.1484 10.387 11.1484 9.83365V8.08698L9.14844 7.64031Z" fill="#64748B"/>
<path d="M13.1484 11.8334C12.0484 11.8334 11.1484 10.9334 11.1484 9.83342V7.68675C11.1484 7.53342 11.2151 7.39342 11.3351 7.30009C11.4551 7.20675 11.6084 7.16675 11.7551 7.20009L13.1084 7.50009C14.4351 7.79342 15.1018 8.57342 15.1418 9.90009C15.1418 9.91342 15.1418 9.92675 15.1418 9.94009C15.0884 11.0001 14.2151 11.8334 13.1484 11.8334ZM12.1484 8.30675V9.83342C12.1484 10.3868 12.5951 10.8334 13.1484 10.8334C13.6751 10.8334 14.1084 10.4268 14.1418 9.90675C14.1084 9.06675 13.7618 8.66675 12.8951 8.47342L12.1484 8.30675Z" fill="#64748B"/>
</svg>
