<svg width="16" height="16" viewBox="0 0 16 16" fill="none" xmlns="http://www.w3.org/2000/svg">
<g id="vuesax/outline/buildings-2">
<g id="buildings-2">
<path id="Union" fill-rule="evenodd" clip-rule="evenodd" d="M3.96745 11.4999V5.61324C3.96745 4.27324 4.74077 3.49992 6.08077 3.49992H6.5673V2.7666C6.5673 2.0866 6.31399 1.83325 5.63399 1.83325H2.76733C2.08733 1.83325 1.83398 2.0866 1.83398 2.7666V10.5666C1.83398 11.2466 2.08733 11.4999 2.76733 11.4999H3.96745ZM3.96745 12.4999H2.76733C1.54067 12.4999 0.833984 11.7932 0.833984 10.5666V2.7666C0.833984 1.53993 1.54067 0.833252 2.76733 0.833252H5.63399C6.86066 0.833252 7.5673 1.53993 7.5673 2.7666V3.49992H8.43392V2.7666C8.43392 1.53993 9.14056 0.833252 10.3672 0.833252H13.2339C14.4606 0.833252 15.1672 1.53993 15.1672 2.7666V10.5666C15.1672 11.7932 14.4606 12.4999 13.2339 12.4999H12.0808V13.0533C12.0808 14.3933 11.3141 15.1666 9.97412 15.1666H8.00065H6.08077C4.74077 15.1666 3.96745 14.3933 3.96745 13.0533V12.4999ZM8.50065 14.1666V12.6666C8.50065 12.3933 8.27398 12.1666 8.00065 12.1666C7.72732 12.1666 7.50065 12.3933 7.50065 12.6666V14.1666H6.08077C5.28077 14.1666 4.96745 13.8533 4.96745 13.0533V5.61324C4.96745 4.81324 5.28077 4.49992 6.08077 4.49992H7.0673H8.93392H9.97412C10.7675 4.49992 11.0808 4.81324 11.0808 5.61324V11.9858L11.0806 11.9999L11.0808 12.0141V13.0533C11.0808 13.8533 10.7675 14.1666 9.97412 14.1666H8.50065ZM9.43392 2.7666V3.49992H9.97412C11.3141 3.49992 12.0808 4.27324 12.0808 5.61324V11.4999H13.2339C13.9139 11.4999 14.1672 11.2466 14.1672 10.5666V2.7666C14.1672 2.0866 13.9139 1.83325 13.2339 1.83325H10.3672C9.68723 1.83325 9.43392 2.0866 9.43392 2.7666ZM6.66732 7.83325H9.33398C9.60732 7.83325 9.83398 7.60659 9.83398 7.33325C9.83398 7.05992 9.60732 6.83325 9.33398 6.83325H6.66732C6.39398 6.83325 6.16732 7.05992 6.16732 7.33325C6.16732 7.60659 6.39398 7.83325 6.66732 7.83325ZM9.33398 9.83325H6.66732C6.39398 9.83325 6.16732 9.60659 6.16732 9.33325C6.16732 9.05992 6.39398 8.83325 6.66732 8.83325H9.33398C9.60732 8.83325 9.83398 9.05992 9.83398 9.33325C9.83398 9.60659 9.60732 9.83325 9.33398 9.83325Z" fill="#64748B"/>
</g>
</g>
</svg>
