<svg width="16" height="17" viewBox="0 0 16 17" fill="none" xmlns="http://www.w3.org/2000/svg">
<g id="vuesax/outline/calendar-circle">
<g id="calendar-circle">
<path id="Vector" d="M8.00065 15.7148C4.04732 15.7148 0.833984 12.5015 0.833984 8.54814C0.833984 4.5948 4.04732 1.38147 8.00065 1.38147C11.954 1.38147 15.1673 4.5948 15.1673 8.54814C15.1673 12.5015 11.954 15.7148 8.00065 15.7148ZM8.00065 2.38147C4.60065 2.38147 1.83398 5.14814 1.83398 8.54814C1.83398 11.9481 4.60065 14.7148 8.00065 14.7148C11.4007 14.7148 14.1673 11.9481 14.1673 8.54814C14.1673 5.14814 11.4007 2.38147 8.00065 2.38147Z" fill="#64748B"/>
<path id="Vector_2" d="M6.59375 6.26803C6.32042 6.26803 6.09375 6.04136 6.09375 5.76803V4.43469C6.09375 4.16136 6.32042 3.93469 6.59375 3.93469C6.86708 3.93469 7.09375 4.16136 7.09375 4.43469V5.76803C7.09375 6.04136 6.87375 6.26803 6.59375 6.26803Z" fill="#64748B"/>
<path id="Vector_3" d="M9.40625 6.26803C9.13292 6.26803 8.90625 6.04136 8.90625 5.76803V4.43469C8.90625 4.16136 9.13292 3.93469 9.40625 3.93469C9.67958 3.93469 9.90625 4.16136 9.90625 4.43469V5.76803C9.90625 6.04136 9.67958 6.26803 9.40625 6.26803Z" fill="#64748B"/>
<path id="Vector_4" d="M10.9803 7.80811H5.01367C4.74034 7.80811 4.51367 7.58144 4.51367 7.30811C4.51367 7.03477 4.74034 6.80811 5.01367 6.80811H10.9803C11.2537 6.80811 11.4803 7.03477 11.4803 7.30811C11.4803 7.58144 11.2603 7.80811 10.9803 7.80811Z" fill="#64748B"/>
<path id="Vector_5" d="M9.00065 12.8281H7.00065C5.16732 12.8281 3.83398 11.4948 3.83398 9.66142V7.66142C3.83398 5.82808 5.16732 4.49475 7.00065 4.49475H9.00065C10.834 4.49475 12.1673 5.82808 12.1673 7.66142V9.66142C12.1673 11.4948 10.834 12.8281 9.00065 12.8281ZM7.00065 5.49475C5.50065 5.49475 4.83398 6.58142 4.83398 7.66142V9.66142C4.83398 10.7414 5.50065 11.8281 7.00065 11.8281H9.00065C10.5007 11.8281 11.1673 10.7414 11.1673 9.66142V7.66142C11.1673 6.58142 10.5007 5.49475 9.00065 5.49475H7.00065Z" fill="#64748B"/>
</g>
</g>
</svg>
