<svg width="16" height="17" viewBox="0 0 16 17" fill="none" xmlns="http://www.w3.org/2000/svg">
<g id="vuesax/outline/calendar">
<g id="calendar">
<path id="Vector" d="M5.33398 4.38147C5.06065 4.38147 4.83398 4.1548 4.83398 3.88147V1.88147C4.83398 1.60814 5.06065 1.38147 5.33398 1.38147C5.60732 1.38147 5.83398 1.60814 5.83398 1.88147V3.88147C5.83398 4.1548 5.60732 4.38147 5.33398 4.38147Z" fill="#64748B"/>
<path id="Vector_2" d="M10.666 4.38147C10.3927 4.38147 10.166 4.1548 10.166 3.88147V1.88147C10.166 1.60814 10.3927 1.38147 10.666 1.38147C10.9393 1.38147 11.166 1.60814 11.166 1.88147V3.88147C11.166 4.1548 10.9393 4.38147 10.666 4.38147Z" fill="#64748B"/>
<path id="Vector_3" d="M5.66667 10.2148C5.58 10.2148 5.49333 10.1948 5.41333 10.1614C5.32667 10.1281 5.26 10.0814 5.19333 10.0214C5.07333 9.89476 5 9.7281 5 9.5481C5 9.46143 5.02 9.37476 5.05333 9.29476C5.08667 9.21476 5.13333 9.14144 5.19333 9.07477C5.26 9.01477 5.32667 8.96809 5.41333 8.93476C5.65333 8.83476 5.95333 8.88811 6.14 9.07477C6.26 9.20144 6.33333 9.37477 6.33333 9.5481C6.33333 9.5881 6.32667 9.63477 6.32 9.68144C6.31333 9.72144 6.3 9.76144 6.28 9.80144C6.26667 9.84144 6.24667 9.88143 6.22 9.92143C6.2 9.95476 6.16667 9.98809 6.14 10.0214C6.01333 10.1414 5.84 10.2148 5.66667 10.2148Z" fill="#64748B"/>
<path id="Vector_4" d="M8.00065 10.2148C7.91398 10.2148 7.82732 10.1948 7.74732 10.1615C7.66065 10.1281 7.59399 10.0815 7.52732 10.0215C7.40732 9.89479 7.33398 9.72813 7.33398 9.54813C7.33398 9.46147 7.35399 9.3748 7.38732 9.2948C7.42065 9.2148 7.46732 9.14147 7.52732 9.07481C7.59399 9.01481 7.66065 8.96812 7.74732 8.93479C7.98732 8.82812 8.28732 8.88814 8.47398 9.07481C8.59398 9.20147 8.66732 9.3748 8.66732 9.54813C8.66732 9.58813 8.66065 9.63481 8.65398 9.68147C8.64732 9.72147 8.63398 9.76147 8.61398 9.80147C8.60065 9.84147 8.58065 9.88146 8.55399 9.92146C8.53399 9.9548 8.50065 9.98813 8.47398 10.0215C8.34732 10.1415 8.17398 10.2148 8.00065 10.2148Z" fill="#64748B"/>
<path id="Vector_5" d="M10.3327 10.2148C10.246 10.2148 10.1593 10.1948 10.0793 10.1615C9.99268 10.1281 9.92602 10.0815 9.85935 10.0215C9.83268 9.98813 9.80601 9.9548 9.77935 9.92146C9.75268 9.88146 9.73268 9.84147 9.71935 9.80147C9.69935 9.76147 9.68602 9.72147 9.67935 9.68147C9.67268 9.63481 9.66602 9.58813 9.66602 9.54813C9.66602 9.3748 9.73935 9.20147 9.85935 9.07481C9.92602 9.01481 9.99268 8.96812 10.0793 8.93479C10.326 8.82812 10.6193 8.88814 10.806 9.07481C10.926 9.20147 10.9993 9.3748 10.9993 9.54813C10.9993 9.58813 10.9927 9.63481 10.986 9.68147C10.9793 9.72147 10.966 9.76147 10.946 9.80147C10.9327 9.84147 10.9127 9.88146 10.886 9.92146C10.866 9.9548 10.8327 9.98813 10.806 10.0215C10.6793 10.1415 10.506 10.2148 10.3327 10.2148Z" fill="#64748B"/>
<path id="Vector_6" d="M5.66667 12.5481C5.58 12.5481 5.49333 12.5281 5.41333 12.4948C5.33333 12.4615 5.26 12.4148 5.19333 12.3548C5.07333 12.2281 5 12.0548 5 11.8815C5 11.7948 5.02 11.7081 5.05333 11.6281C5.08667 11.5415 5.13333 11.4681 5.19333 11.4081C5.44 11.1615 5.89333 11.1615 6.14 11.4081C6.26 11.5348 6.33333 11.7081 6.33333 11.8815C6.33333 12.0548 6.26 12.2281 6.14 12.3548C6.01333 12.4748 5.84 12.5481 5.66667 12.5481Z" fill="#64748B"/>
<path id="Vector_7" d="M8.00065 12.5481C7.82732 12.5481 7.65399 12.4748 7.52732 12.3548C7.40732 12.2281 7.33398 12.0548 7.33398 11.8815C7.33398 11.7948 7.35399 11.7081 7.38732 11.6281C7.42065 11.5415 7.46732 11.4681 7.52732 11.4081C7.77399 11.1615 8.22732 11.1615 8.47398 11.4081C8.53398 11.4681 8.58065 11.5415 8.61398 11.6281C8.64732 11.7081 8.66732 11.7948 8.66732 11.8815C8.66732 12.0548 8.59398 12.2281 8.47398 12.3548C8.34732 12.4748 8.17398 12.5481 8.00065 12.5481Z" fill="#64748B"/>
<path id="Vector_8" d="M10.3327 12.5482C10.1593 12.5482 9.98602 12.4748 9.85935 12.3548C9.79935 12.2948 9.75268 12.2215 9.71935 12.1348C9.68602 12.0548 9.66602 11.9682 9.66602 11.8815C9.66602 11.7948 9.68602 11.7082 9.71935 11.6282C9.75268 11.5415 9.79935 11.4682 9.85935 11.4082C10.0127 11.2548 10.246 11.1815 10.4593 11.2282C10.506 11.2348 10.546 11.2482 10.586 11.2682C10.626 11.2815 10.666 11.3015 10.706 11.3282C10.7393 11.3482 10.7727 11.3815 10.806 11.4082C10.926 11.5348 10.9993 11.7082 10.9993 11.8815C10.9993 12.0548 10.926 12.2282 10.806 12.3548C10.6793 12.4748 10.506 12.5482 10.3327 12.5482Z" fill="#64748B"/>
<path id="Vector_9" d="M13.6673 7.10803H2.33398C2.06065 7.10803 1.83398 6.88137 1.83398 6.60803C1.83398 6.3347 2.06065 6.10803 2.33398 6.10803H13.6673C13.9407 6.10803 14.1673 6.3347 14.1673 6.60803C14.1673 6.88137 13.9407 7.10803 13.6673 7.10803Z" fill="#64748B"/>
<path id="Vector_10" d="M10.6667 15.7148H5.33333C2.9 15.7148 1.5 14.3148 1.5 11.8815V6.2148C1.5 3.78147 2.9 2.38147 5.33333 2.38147H10.6667C13.1 2.38147 14.5 3.78147 14.5 6.2148V11.8815C14.5 14.3148 13.1 15.7148 10.6667 15.7148ZM5.33333 3.38147C3.42667 3.38147 2.5 4.30814 2.5 6.2148V11.8815C2.5 13.7881 3.42667 14.7148 5.33333 14.7148H10.6667C12.5733 14.7148 13.5 13.7881 13.5 11.8815V6.2148C13.5 4.30814 12.5733 3.38147 10.6667 3.38147H5.33333Z" fill="#64748B"/>
</g>
</g>
</svg>
