<svg width="16" height="17" viewBox="0 0 16 17" fill="none" xmlns="http://www.w3.org/2000/svg">
<path d="M11.6359 15.515C10.8826 15.515 10.0893 15.335 9.26927 14.9883C8.46927 14.6483 7.6626 14.1816 6.87594 13.615C6.09594 13.0416 5.3426 12.4016 4.62927 11.7016C3.9226 10.9883 3.2826 10.235 2.71594 9.46164C2.1426 8.66164 1.6826 7.86164 1.35594 7.08831C1.00927 6.26164 0.835938 5.46164 0.835938 4.70831C0.835938 4.18831 0.929271 3.69497 1.10927 3.23497C1.29594 2.76164 1.59594 2.32164 2.0026 1.94164C2.51594 1.43497 3.1026 1.18164 3.72927 1.18164C3.98927 1.18164 4.25594 1.24164 4.4826 1.34831C4.7426 1.46831 4.9626 1.64831 5.1226 1.88831L6.66927 4.06831C6.80927 4.26164 6.91594 4.44831 6.98927 4.63497C7.07594 4.83497 7.1226 5.03497 7.1226 5.22831C7.1226 5.48164 7.04927 5.72831 6.90927 5.96164C6.80927 6.14164 6.65594 6.33497 6.4626 6.52831L6.00927 7.00164C6.01594 7.02164 6.0226 7.03497 6.02927 7.04831C6.10927 7.18831 6.26927 7.42831 6.57594 7.78831C6.9026 8.16164 7.20927 8.50164 7.51594 8.81497C7.90927 9.20164 8.23594 9.50831 8.5426 9.76164C8.9226 10.0816 9.16927 10.2416 9.31594 10.315L9.3026 10.3483L9.78927 9.86831C9.99594 9.66164 10.1959 9.50831 10.3893 9.40831C10.7559 9.18164 11.2226 9.14164 11.6893 9.33497C11.8626 9.40831 12.0493 9.50831 12.2493 9.64831L14.4626 11.2216C14.7093 11.3883 14.8893 11.6016 14.9959 11.855C15.0959 12.1083 15.1426 12.3416 15.1426 12.575C15.1426 12.895 15.0693 13.215 14.9293 13.515C14.7893 13.815 14.6159 14.075 14.3959 14.315C14.0159 14.735 13.6026 15.035 13.1226 15.2283C12.6626 15.415 12.1626 15.515 11.6359 15.515ZM3.72927 2.18164C3.3626 2.18164 3.0226 2.34164 2.69594 2.66164C2.38927 2.94831 2.17594 3.26164 2.0426 3.60164C1.9026 3.94831 1.83594 4.31497 1.83594 4.70831C1.83594 5.32831 1.9826 6.00164 2.27594 6.69497C2.57594 7.40164 2.99594 8.13497 3.52927 8.86831C4.0626 9.60164 4.66927 10.315 5.33594 10.9883C6.0026 11.6483 6.7226 12.2616 7.4626 12.8016C8.1826 13.3283 8.9226 13.755 9.65594 14.0616C10.7959 14.5483 11.8626 14.6616 12.7426 14.295C13.0826 14.155 13.3826 13.9416 13.6559 13.635C13.8093 13.4683 13.9293 13.2883 14.0293 13.075C14.1093 12.9083 14.1493 12.735 14.1493 12.5616C14.1493 12.455 14.1293 12.3483 14.0759 12.2283C14.0559 12.1883 14.0159 12.115 13.8893 12.0283L11.6759 10.455C11.5426 10.3616 11.4226 10.295 11.3093 10.2483C11.1626 10.1883 11.1026 10.1283 10.8759 10.2683C10.7426 10.335 10.6226 10.435 10.4893 10.5683L9.9826 11.0683C9.7226 11.3216 9.32261 11.3816 9.01594 11.2683L8.83594 11.1883C8.5626 11.0416 8.2426 10.815 7.88927 10.515C7.56927 10.2416 7.2226 9.92164 6.8026 9.50831C6.47594 9.17497 6.14927 8.82164 5.80927 8.42831C5.49594 8.06164 5.26927 7.74831 5.12927 7.48831L5.04927 7.28831C5.00927 7.13497 4.99594 7.04831 4.99594 6.95497C4.99594 6.71497 5.0826 6.50164 5.24927 6.33497L5.74927 5.81497C5.8826 5.68164 5.9826 5.55497 6.04927 5.44164C6.1026 5.35497 6.1226 5.28164 6.1226 5.21497C6.1226 5.16164 6.1026 5.08164 6.06927 5.00164C6.0226 4.89497 5.94927 4.77497 5.85594 4.64831L4.30927 2.46164C4.2426 2.36831 4.1626 2.30164 4.0626 2.25497C3.95594 2.20831 3.8426 2.18164 3.72927 2.18164ZM9.3026 10.355L9.19594 10.8083L9.37594 10.3416C9.3426 10.335 9.31594 10.3416 9.3026 10.355Z" fill="#64748B"/>
<path d="M12.3333 6.847C12.06 6.847 11.8333 6.62034 11.8333 6.34701C11.8333 6.10701 11.5933 5.60701 11.1933 5.18034C10.8 4.76034 10.3667 4.51367 10 4.51367C9.72667 4.51367 9.5 4.28701 9.5 4.01367C9.5 3.74034 9.72667 3.51367 10 3.51367C10.6467 3.51367 11.3267 3.86034 11.92 4.49367C12.4733 5.08701 12.8333 5.81367 12.8333 6.34701C12.8333 6.62034 12.6067 6.847 12.3333 6.847Z" fill="#64748B"/>
<path d="M14.6667 6.84831C14.3933 6.84831 14.1667 6.62164 14.1667 6.34831C14.1667 4.04831 12.3 2.18164 10 2.18164C9.72667 2.18164 9.5 1.95497 9.5 1.68164C9.5 1.40831 9.72667 1.18164 10 1.18164C12.8467 1.18164 15.1667 3.50164 15.1667 6.34831C15.1667 6.62164 14.94 6.84831 14.6667 6.84831Z" fill="#64748B"/>
</svg>
