<svg width="16" height="16" viewBox="0 0 16 16" fill="none" xmlns="http://www.w3.org/2000/svg">
<g id="vuesax/outline/category-2">
<g id="category-2">
<path id="Vector" d="M12.6673 7.16671H11.334C9.72065 7.16671 8.83398 6.28004 8.83398 4.66671V3.33337C8.83398 1.72004 9.72065 0.833374 11.334 0.833374H12.6673C14.2807 0.833374 15.1673 1.72004 15.1673 3.33337V4.66671C15.1673 6.28004 14.2807 7.16671 12.6673 7.16671ZM11.334 1.83337C10.2807 1.83337 9.83398 2.28004 9.83398 3.33337V4.66671C9.83398 5.72004 10.2807 6.16671 11.334 6.16671H12.6673C13.7207 6.16671 14.1673 5.72004 14.1673 4.66671V3.33337C14.1673 2.28004 13.7207 1.83337 12.6673 1.83337H11.334Z" fill="#64748B"/>
<path id="Vector_2" d="M4.66732 15.1667H3.33398C1.72065 15.1667 0.833984 14.28 0.833984 12.6667V11.3334C0.833984 9.72004 1.72065 8.83337 3.33398 8.83337H4.66732C6.28065 8.83337 7.16732 9.72004 7.16732 11.3334V12.6667C7.16732 14.28 6.28065 15.1667 4.66732 15.1667ZM3.33398 9.83337C2.28065 9.83337 1.83398 10.28 1.83398 11.3334V12.6667C1.83398 13.72 2.28065 14.1667 3.33398 14.1667H4.66732C5.72065 14.1667 6.16732 13.72 6.16732 12.6667V11.3334C6.16732 10.28 5.72065 9.83337 4.66732 9.83337H3.33398Z" fill="#64748B"/>
<path id="Vector_3" d="M4.00065 7.16671C2.25398 7.16671 0.833984 5.74671 0.833984 4.00004C0.833984 2.25337 2.25398 0.833374 4.00065 0.833374C5.74732 0.833374 7.16732 2.25337 7.16732 4.00004C7.16732 5.74671 5.74732 7.16671 4.00065 7.16671ZM4.00065 1.83337C2.80732 1.83337 1.83398 2.80671 1.83398 4.00004C1.83398 5.19337 2.80732 6.16671 4.00065 6.16671C5.19398 6.16671 6.16732 5.19337 6.16732 4.00004C6.16732 2.80671 5.19398 1.83337 4.00065 1.83337Z" fill="#64748B"/>
<path id="Vector_4" d="M12.0007 15.1667C10.254 15.1667 8.83398 13.7467 8.83398 12C8.83398 10.2534 10.254 8.83337 12.0007 8.83337C13.7473 8.83337 15.1673 10.2534 15.1673 12C15.1673 13.7467 13.7473 15.1667 12.0007 15.1667ZM12.0007 9.83337C10.8073 9.83337 9.83398 10.8067 9.83398 12C9.83398 13.1934 10.8073 14.1667 12.0007 14.1667C13.194 14.1667 14.1673 13.1934 14.1673 12C14.1673 10.8067 13.194 9.83337 12.0007 9.83337Z" fill="#64748B"/>
</g>
</g>
</svg>
