<svg width="16" height="17" viewBox="0 0 16 17" fill="none" xmlns="http://www.w3.org/2000/svg">
<g id="vuesax/outline/clock">
<g id="clock">
<path id="Vector" d="M8.00065 15.7148C4.04732 15.7148 0.833984 12.5015 0.833984 8.54814C0.833984 4.5948 4.04732 1.38147 8.00065 1.38147C11.954 1.38147 15.1673 4.5948 15.1673 8.54814C15.1673 12.5015 11.954 15.7148 8.00065 15.7148ZM8.00065 2.38147C4.60065 2.38147 1.83398 5.14814 1.83398 8.54814C1.83398 11.9481 4.60065 14.7148 8.00065 14.7148C11.4007 14.7148 14.1673 11.9481 14.1673 8.54814C14.1673 5.14814 11.4007 2.38147 8.00065 2.38147Z" fill="#64748B"/>
<path id="Vector_2" d="M10.4731 11.1681C10.3864 11.1681 10.2998 11.1481 10.2198 11.0948L8.1531 9.86148C7.63977 9.55481 7.25977 8.88148 7.25977 8.28814V5.55481C7.25977 5.28148 7.48643 5.05481 7.75977 5.05481C8.0331 5.05481 8.25977 5.28148 8.25977 5.55481V8.28814C8.25977 8.52814 8.45977 8.88148 8.66643 9.00148L10.7331 10.2348C10.9731 10.3748 11.0464 10.6815 10.9064 10.9215C10.8064 11.0815 10.6398 11.1681 10.4731 11.1681Z" fill="#64748B"/>
</g>
</g>
</svg>
