<svg width="14" height="14" viewBox="0 0 14 14" fill="none" xmlns="http://www.w3.org/2000/svg">
<path d="M7.0013 1.17554C3.78714 1.17554 1.16797 3.79067 1.16797 6.9999C1.16797 10.2091 3.78714 12.8243 7.0013 12.8243C10.2155 12.8243 12.8346 10.2091 12.8346 6.9999C12.8346 3.79067 10.2155 1.17554 7.0013 1.17554ZM8.9613 8.3395C9.13047 8.50841 9.13047 8.78797 8.9613 8.95688C8.8738 9.04425 8.76297 9.08502 8.65213 9.08502C8.5413 9.08502 8.43047 9.04425 8.34297 8.95688L7.0013 7.61728L5.65964 8.95688C5.57213 9.04425 5.4613 9.08502 5.35047 9.08502C5.23964 9.08502 5.1288 9.04425 5.0413 8.95688C4.87214 8.78797 4.87214 8.50841 5.0413 8.3395L6.38297 6.9999L5.0413 5.66029C4.87214 5.49139 4.87214 5.21182 5.0413 5.04291C5.21047 4.87401 5.49047 4.87401 5.65964 5.04291L7.0013 6.38251L8.34297 5.04291C8.51214 4.87401 8.79213 4.87401 8.9613 5.04291C9.13047 5.21182 9.13047 5.49139 8.9613 5.66029L7.61964 6.9999L8.9613 8.3395Z" fill="#5E6874"/>
</svg>
