<svg width="26" height="23" viewBox="0 0 26 23" fill="none" xmlns="http://www.w3.org/2000/svg">
<path id="Icon" d="M17.4303 15.6979L13.0051 11.2727M13.0051 11.2727L8.57999 15.6979M13.0051 11.2727V21.2293M22.2869 18.3419C23.3659 17.7536 24.2183 16.8228 24.7095 15.6963C25.2008 14.5699 25.3029 13.3119 24.9997 12.1209C24.6966 10.9299 24.0055 9.87383 23.0355 9.11927C22.0655 8.36471 20.8718 7.95466 19.6429 7.95385H18.2489C17.9141 6.65866 17.29 5.45623 16.4235 4.43696C15.557 3.41769 14.4708 2.60811 13.2464 2.06908C12.022 1.53005 10.6914 1.27559 9.35452 1.32485C8.01764 1.37411 6.70933 1.72579 5.52794 2.35346C4.34654 2.98113 3.32281 3.86845 2.53371 4.94871C1.74461 6.02898 1.21066 7.27408 0.972027 8.5904C0.73339 9.90673 0.796266 11.26 1.15593 12.5486C1.51559 13.8371 2.16268 15.0273 3.04855 16.0297" stroke="#465468" stroke-width="1.65943" stroke-linecap="round" stroke-linejoin="round"/>
</svg>
