<svg width="16" height="16" viewBox="0 0 16 16" fill="none" xmlns="http://www.w3.org/2000/svg">
<g id="vuesax/outline/document-text">
<g id="document-text">
<path id="Vector" d="M10.6667 15.1666H5.33333C2.9 15.1666 1.5 13.7666 1.5 11.3333V4.66665C1.5 2.23331 2.9 0.833313 5.33333 0.833313H10.6667C13.1 0.833313 14.5 2.23331 14.5 4.66665V11.3333C14.5 13.7666 13.1 15.1666 10.6667 15.1666ZM5.33333 1.83331C3.42667 1.83331 2.5 2.75998 2.5 4.66665V11.3333C2.5 13.24 3.42667 14.1666 5.33333 14.1666H10.6667C12.5733 14.1666 13.5 13.24 13.5 11.3333V4.66665C13.5 2.75998 12.5733 1.83331 10.6667 1.83331H5.33333Z" fill="#64748B"/>
<path id="Vector_2" d="M12.3327 6.16667H10.9993C9.98602 6.16667 9.16602 5.34667 9.16602 4.33333V3C9.16602 2.72667 9.39268 2.5 9.66602 2.5C9.93935 2.5 10.166 2.72667 10.166 3V4.33333C10.166 4.79333 10.5393 5.16667 10.9993 5.16667H12.3327C12.606 5.16667 12.8327 5.39333 12.8327 5.66667C12.8327 5.94 12.606 6.16667 12.3327 6.16667Z" fill="#64748B"/>
<path id="Vector_3" d="M8.00065 9.16669H5.33398C5.06065 9.16669 4.83398 8.94002 4.83398 8.66669C4.83398 8.39335 5.06065 8.16669 5.33398 8.16669H8.00065C8.27398 8.16669 8.50065 8.39335 8.50065 8.66669C8.50065 8.94002 8.27398 9.16669 8.00065 9.16669Z" fill="#64748B"/>
<path id="Vector_4" d="M10.6673 11.8333H5.33398C5.06065 11.8333 4.83398 11.6066 4.83398 11.3333C4.83398 11.06 5.06065 10.8333 5.33398 10.8333H10.6673C10.9407 10.8333 11.1673 11.06 11.1673 11.3333C11.1673 11.6066 10.9407 11.8333 10.6673 11.8333Z" fill="#64748B"/>
</g>
</g>
</svg>
