<svg width="20" height="20" viewBox="0 0 20 20" fill="none" xmlns="http://www.w3.org/2000/svg">
<g id="vuesax/outline/document">
<g id="document">
<path id="Vector" d="M12.5013 18.9584H7.5013C2.9763 18.9584 1.04297 17.0251 1.04297 12.5001V7.50008C1.04297 2.97508 2.9763 1.04175 7.5013 1.04175H11.668C12.0096 1.04175 12.293 1.32508 12.293 1.66675C12.293 2.00841 12.0096 2.29175 11.668 2.29175H7.5013C3.65964 2.29175 2.29297 3.65841 2.29297 7.50008V12.5001C2.29297 16.3417 3.65964 17.7084 7.5013 17.7084H12.5013C16.343 17.7084 17.7096 16.3417 17.7096 12.5001V8.33342C17.7096 7.99175 17.993 7.70842 18.3346 7.70842C18.6763 7.70842 18.9596 7.99175 18.9596 8.33342V12.5001C18.9596 17.0251 17.0263 18.9584 12.5013 18.9584Z" fill="url(#paint0_linear_1932_28215)"/>
<path id="Vector_2" d="M18.3346 8.95841H15.0013C12.1513 8.95841 11.043 7.85007 11.043 5.00007V1.66674C11.043 1.41674 11.193 1.18341 11.4263 1.09174C11.6596 0.991739 11.9263 1.05007 12.1096 1.22507L18.7763 7.89174C18.9513 8.06674 19.0096 8.34174 18.9096 8.57507C18.8096 8.8084 18.5846 8.95841 18.3346 8.95841ZM12.293 3.17507V5.00007C12.293 7.15007 12.8513 7.70841 15.0013 7.70841H16.8263L12.293 3.17507Z" fill="url(#paint1_linear_1932_28215)"/>
</g>
</g>
<defs>
<linearGradient id="paint0_linear_1932_28215" x1="1.04297" y1="10.0001" x2="21.9457" y2="10.0001" gradientUnits="userSpaceOnUse">
<stop stop-color="#5F27CD"/>
<stop offset="1" stop-color="#3366FF"/>
</linearGradient>
<linearGradient id="paint1_linear_1932_28215" x1="11.043" y1="5.00069" x2="20.2776" y2="5.00069" gradientUnits="userSpaceOnUse">
<stop stop-color="#5F27CD"/>
<stop offset="1" stop-color="#3366FF"/>
</linearGradient>
</defs>
</svg>
