<svg width="16" height="16" viewBox="0 0 16 16" fill="none" xmlns="http://www.w3.org/2000/svg">
<path d="M10.0026 15.1663L6.0026 15.1663C2.3826 15.1663 0.835938 13.6197 0.835938 9.99967L0.835938 5.99967C0.835938 2.37967 2.3826 0.833008 6.0026 0.833008L7.33594 0.833008C7.60927 0.833008 7.83594 1.05967 7.83594 1.33301C7.83594 1.60634 7.60927 1.83301 7.33594 1.83301H6.0026C2.92927 1.83301 1.83594 2.92634 1.83594 5.99967L1.83594 9.99967C1.83594 13.073 2.92927 14.1663 6.0026 14.1663L10.0026 14.1663C13.0759 14.1663 14.1693 13.073 14.1693 9.99967V8.66634C14.1693 8.39301 14.3959 8.16634 14.6693 8.16634C14.9426 8.16634 15.1693 8.39301 15.1693 8.66634V9.99967C15.1693 13.6197 13.6226 15.1663 10.0026 15.1663Z" fill="#798594"/>
<path d="M5.66884 11.7934C5.26217 11.7934 4.88884 11.6467 4.6155 11.38C4.28884 11.0534 4.14884 10.58 4.22217 10.08L4.50884 8.07337C4.56217 7.68671 4.8155 7.18671 5.08884 6.91337L10.3422 1.66004C11.6688 0.333372 13.0155 0.333372 14.3422 1.66004C15.0688 2.38671 15.3955 3.12671 15.3288 3.86671C15.2688 4.46671 14.9488 5.05337 14.3422 5.65337L9.08884 10.9067C8.8155 11.18 8.3155 11.4334 7.92884 11.4867L5.92217 11.7734C5.8355 11.7934 5.74884 11.7934 5.66884 11.7934ZM11.0488 2.36671L5.7955 7.62004C5.66884 7.74671 5.52217 8.04004 5.4955 8.21337L5.20884 10.22C5.18217 10.4134 5.22217 10.5734 5.32217 10.6734C5.42217 10.7734 5.58217 10.8134 5.7755 10.7867L7.78217 10.5C7.9555 10.4734 8.2555 10.3267 8.3755 10.2L13.6288 4.94671C14.0622 4.51337 14.2888 4.12671 14.3222 3.76671C14.3622 3.33337 14.1355 2.87337 13.6288 2.36004C12.5622 1.29337 11.8288 1.59337 11.0488 2.36671Z" fill="#798594"/>
<path d="M13.233 6.55319C13.1864 6.55319 13.1397 6.54652 13.0997 6.53319C11.3464 6.03986 9.95305 4.64652 9.45971 2.89319C9.38638 2.62652 9.53971 2.35319 9.80638 2.27319C10.073 2.19986 10.3464 2.35319 10.4197 2.61986C10.8197 4.03986 11.9464 5.16652 13.3664 5.56652C13.633 5.63986 13.7864 5.91985 13.713 6.18652C13.653 6.41319 13.453 6.55319 13.233 6.55319Z" fill="#798594"/>
</svg>
