<svg width="12" height="12" viewBox="0 0 12 12" fill="none" xmlns="http://www.w3.org/2000/svg">
<g id="vuesax/outline/edit">
<g id="edit">
<path id="Vector" d="M7.5 11.375L4.5 11.375C1.785 11.375 0.625 10.215 0.625 7.5L0.625 4.5C0.625 1.785 1.785 0.625 4.5 0.625L5.5 0.625C5.705 0.625 5.875 0.795 5.875 1C5.875 1.205 5.705 1.375 5.5 1.375L4.5 1.375C2.195 1.375 1.375 2.195 1.375 4.5L1.375 7.5C1.375 9.805 2.195 10.625 4.5 10.625L7.5 10.625C9.805 10.625 10.625 9.805 10.625 7.5V6.5C10.625 6.295 10.795 6.125 11 6.125C11.205 6.125 11.375 6.295 11.375 6.5V7.5C11.375 10.215 10.215 11.375 7.5 11.375Z" fill="#5E6874"/>
<path id="Vector_2" d="M4.25163 8.84503C3.94663 8.84503 3.66663 8.73503 3.46163 8.53503C3.21663 8.29003 3.11163 7.93503 3.16663 7.56003L3.38163 6.05503C3.42163 5.76503 3.61163 5.39003 3.81663 5.18503L7.75663 1.24503C8.75163 0.250029 9.76163 0.250029 10.7566 1.24503C11.3016 1.79003 11.5466 2.34503 11.4966 2.90003C11.4516 3.35003 11.2116 3.79003 10.7566 4.24003L6.81663 8.18003C6.61163 8.38503 6.23663 8.57503 5.94663 8.61503L4.44163 8.83003C4.37663 8.84503 4.31163 8.84503 4.25163 8.84503ZM8.28663 1.77503L4.34663 5.71503C4.25163 5.81003 4.14163 6.03003 4.12163 6.16003L3.90663 7.66503C3.88663 7.81003 3.91663 7.93003 3.99163 8.00503C4.06663 8.08003 4.18663 8.11003 4.33163 8.09003L5.83663 7.87503C5.96663 7.85503 6.19163 7.74503 6.28163 7.65003L10.2216 3.71003C10.5466 3.38503 10.7166 3.09503 10.7416 2.82503C10.7716 2.50003 10.6016 2.15503 10.2216 1.77003C9.42163 0.970029 8.87163 1.19503 8.28663 1.77503Z" fill="#5E6874"/>
<path id="Vector_3" d="M9.92576 4.91489C9.89076 4.91489 9.85576 4.90989 9.82576 4.89989C8.51076 4.52989 7.46576 3.48489 7.09576 2.16989C7.04076 1.96989 7.15576 1.76489 7.35576 1.70489C7.55576 1.64989 7.76076 1.76489 7.81576 1.96489C8.11576 3.02989 8.96076 3.87489 10.0258 4.17489C10.2258 4.22989 10.3408 4.43989 10.2858 4.63989C10.2408 4.80989 10.0908 4.91489 9.92576 4.91489Z" fill="#5E6874"/>
</g>
</g>
</svg>
