<svg width="16" height="16" viewBox="0 0 16 16" fill="none" xmlns="http://www.w3.org/2000/svg">
<g id="vuesax/outline/filter-square">
<g id="filter-square">
<path id="Vector" d="M7.58797 12.5999C7.36797 12.5999 7.14797 12.5466 6.94797 12.4332C6.5413 12.2066 6.29464 11.7932 6.29464 11.3266V9.27323C6.29464 9.14656 6.19464 8.89989 6.09464 8.77323L4.64797 7.25323C4.37464 6.97989 4.16797 6.49989 4.16797 6.13323V5.24656C4.16797 4.50656 4.72797 3.93323 5.4413 3.93323H10.5546C11.2546 3.93323 11.828 4.50656 11.828 5.20656V6.05989C11.828 6.52656 11.5613 7.03989 11.2946 7.30656L9.60797 8.79989C9.5013 8.89323 9.38797 9.12656 9.38797 9.31989V10.9866C9.38797 11.4066 9.13464 11.8732 8.79464 12.0732L8.26797 12.4132C8.0613 12.5399 7.82797 12.5999 7.58797 12.5999ZM5.4413 4.93323C5.2813 4.93323 5.16797 5.06656 5.16797 5.24656V6.13323C5.16797 6.21989 5.2613 6.44656 5.36797 6.55323L6.84797 8.11323C7.07464 8.39989 7.29464 8.85989 7.29464 9.27323V11.3266C7.29464 11.4599 7.3813 11.5332 7.43464 11.5599C7.50797 11.5999 7.62797 11.6266 7.73464 11.5599L8.26797 11.2132C8.3213 11.1732 8.38797 11.0399 8.38797 10.9732V9.30656C8.38797 8.83323 8.6213 8.30656 8.95464 8.03323L10.608 6.56656C10.6946 6.47989 10.828 6.21323 10.828 6.04656V5.20656C10.828 5.05989 10.7013 4.93323 10.5546 4.93323H5.4413Z" fill="#64748B"/>
<path id="Vector_2" d="M9.9987 15.1667H5.9987C2.3787 15.1667 0.832031 13.62 0.832031 10V6.00004C0.832031 2.38004 2.3787 0.833374 5.9987 0.833374H9.9987C13.6187 0.833374 15.1654 2.38004 15.1654 6.00004V10C15.1654 13.62 13.6187 15.1667 9.9987 15.1667ZM5.9987 1.83337C2.92536 1.83337 1.83203 2.92671 1.83203 6.00004V10C1.83203 13.0734 2.92536 14.1667 5.9987 14.1667H9.9987C13.072 14.1667 14.1654 13.0734 14.1654 10V6.00004C14.1654 2.92671 13.072 1.83337 9.9987 1.83337H5.9987Z" fill="#64748B"/>
</g>
</g>
</svg>
