<svg width="16" height="17" viewBox="0 0 16 17" fill="none" xmlns="http://www.w3.org/2000/svg">
<g id="vuesax/outline/language-circle">
<g id="language-circle">
<path id="Vector" d="M11.3271 7.02136H4.67383C4.40049 7.02136 4.17383 6.7947 4.17383 6.52136C4.17383 6.24803 4.40049 6.02136 4.67383 6.02136H11.3271C11.6005 6.02136 11.8271 6.24803 11.8271 6.52136C11.8271 6.7947 11.6005 7.02136 11.3271 7.02136Z" fill="#64748B"/>
<path id="Vector_2" d="M8 7.02148C7.72667 7.02148 7.5 6.79482 7.5 6.52148V5.40149C7.5 5.12816 7.72667 4.90149 8 4.90149C8.27333 4.90149 8.5 5.12816 8.5 5.40149V6.52148C8.5 6.79482 8.27333 7.02148 8 7.02148Z" fill="#64748B"/>
<path id="Vector_3" d="M4.66602 12.1947C4.39268 12.1947 4.16602 11.968 4.16602 11.6947C4.16602 11.4214 4.39268 11.1947 4.66602 11.1947C7.14602 11.1947 9.16602 9.09472 9.16602 6.50806C9.16602 6.23472 9.39268 6.00806 9.66602 6.00806C9.93935 6.00806 10.166 6.23472 10.166 6.50806C10.166 9.64806 7.69935 12.1947 4.66602 12.1947Z" fill="#64748B"/>
<path id="Vector_4" d="M11.3335 12.1948C10.0202 12.1948 8.80015 11.5415 7.90682 10.3482C7.74015 10.1282 7.78683 9.81483 8.00683 9.64816C8.22683 9.4815 8.54016 9.52814 8.70682 9.74814C9.41349 10.6815 10.3468 11.1948 11.3402 11.1948C11.6135 11.1948 11.8402 11.4215 11.8402 11.6948C11.8402 11.9681 11.6068 12.1948 11.3335 12.1948Z" fill="#64748B"/>
<path id="Vector_5" d="M8.00065 15.7148C4.04732 15.7148 0.833984 12.5015 0.833984 8.54814C0.833984 4.5948 4.04732 1.38147 8.00065 1.38147C11.954 1.38147 15.1673 4.5948 15.1673 8.54814C15.1673 12.5015 11.954 15.7148 8.00065 15.7148ZM8.00065 2.38147C4.60065 2.38147 1.83398 5.14814 1.83398 8.54814C1.83398 11.9481 4.60065 14.7148 8.00065 14.7148C11.4007 14.7148 14.1673 11.9481 14.1673 8.54814C14.1673 5.14814 11.4007 2.38147 8.00065 2.38147Z" fill="#64748B"/>
</g>
</g>
</svg>
