<svg width="4" height="16" viewBox="0 0 4 16" fill="none" xmlns="http://www.w3.org/2000/svg">
<path d="M2.16732 8.83337C2.62756 8.83337 3.00065 8.46028 3.00065 8.00004C3.00065 7.5398 2.62756 7.16671 2.16732 7.16671C1.70708 7.16671 1.33398 7.5398 1.33398 8.00004C1.33398 8.46028 1.70708 8.83337 2.16732 8.83337Z" stroke="#94A2B8" stroke-width="1.66667" stroke-linecap="round" stroke-linejoin="round"/>
<path d="M2.16732 3.00004C2.62756 3.00004 3.00065 2.62694 3.00065 2.16671C3.00065 1.70647 2.62756 1.33337 2.16732 1.33337C1.70708 1.33337 1.33398 1.70647 1.33398 2.16671C1.33398 2.62694 1.70708 3.00004 2.16732 3.00004Z" stroke="#94A2B8" stroke-width="1.66667" stroke-linecap="round" stroke-linejoin="round"/>
<path d="M2.16732 14.6667C2.62756 14.6667 3.00065 14.2936 3.00065 13.8334C3.00065 13.3731 2.62756 13 2.16732 13C1.70708 13 1.33398 13.3731 1.33398 13.8334C1.33398 14.2936 1.70708 14.6667 2.16732 14.6667Z" stroke="#94A2B8" stroke-width="1.66667" stroke-linecap="round" stroke-linejoin="round"/>
</svg>
