<svg width="16" height="16" viewBox="0 0 16 16" fill="none" xmlns="http://www.w3.org/2000/svg">
<g id="vuesax/outline/percentage-circle">
<g id="percentage-circle">
<path id="Vector" d="M5.71318 10.6804C5.58651 10.6804 5.45984 10.6338 5.35984 10.5338C5.16651 10.3404 5.16651 10.0204 5.35984 9.82709L9.7265 5.46043C9.91984 5.2671 10.2398 5.2671 10.4332 5.46043C10.6265 5.65376 10.6265 5.97376 10.4332 6.16709L6.06651 10.5338C5.96651 10.6338 5.83984 10.6804 5.71318 10.6804Z" fill="#64748B"/>
<path id="Vector_2" d="M5.98798 7.4066C5.26131 7.4066 4.66797 6.81328 4.66797 6.08661C4.66797 5.35994 5.26131 4.7666 5.98798 4.7666C6.71464 4.7666 7.30796 5.35994 7.30796 6.08661C7.30796 6.81328 6.71464 7.4066 5.98798 7.4066ZM5.98798 5.77327C5.81464 5.77327 5.66797 5.91328 5.66797 6.09328C5.66797 6.27328 5.80798 6.41327 5.98798 6.41327C6.16798 6.41327 6.30796 6.27328 6.30796 6.09328C6.30796 5.91328 6.16131 5.77327 5.98798 5.77327Z" fill="#64748B"/>
<path id="Vector_3" d="M10.3473 11.2269C9.62066 11.2269 9.02734 10.6336 9.02734 9.9069C9.02734 9.18023 9.62066 8.58691 10.3473 8.58691C11.074 8.58691 11.6673 9.18023 11.6673 9.9069C11.6673 10.6336 11.074 11.2269 10.3473 11.2269ZM10.3473 9.59359C10.174 9.59359 10.0273 9.73357 10.0273 9.91357C10.0273 10.0936 10.1673 10.2336 10.3473 10.2336C10.5273 10.2336 10.6673 10.0936 10.6673 9.91357C10.6673 9.73357 10.5273 9.59359 10.3473 9.59359Z" fill="#64748B"/>
<path id="Vector_4" d="M7.9987 15.1663C4.04536 15.1663 0.832031 11.953 0.832031 7.99967C0.832031 4.04634 4.04536 0.833008 7.9987 0.833008C11.952 0.833008 15.1654 4.04634 15.1654 7.99967C15.1654 11.953 11.952 15.1663 7.9987 15.1663ZM7.9987 1.83301C4.5987 1.83301 1.83203 4.59967 1.83203 7.99967C1.83203 11.3997 4.5987 14.1663 7.9987 14.1663C11.3987 14.1663 14.1654 11.3997 14.1654 7.99967C14.1654 4.59967 11.3987 1.83301 7.9987 1.83301Z" fill="#64748B"/>
</g>
</g>
</svg>
