<svg width="12" height="12" viewBox="0 0 12 12" fill="none" xmlns="http://www.w3.org/2000/svg">
<g id="vuesax/outline/trash">
<g id="trash">
<path id="Vector" d="M10.5018 3.36499C10.4918 3.36499 10.4768 3.36499 10.4618 3.36499C7.81679 3.09999 5.17679 2.99999 2.56179 3.26499L1.54179 3.36499C1.33179 3.38499 1.14679 3.23499 1.12679 3.02499C1.10679 2.81499 1.25679 2.63499 1.46179 2.61499L2.48179 2.51499C5.14179 2.24499 7.83679 2.34999 10.5368 2.61499C10.7418 2.63499 10.8918 2.81999 10.8718 3.02499C10.8568 3.21999 10.6918 3.36499 10.5018 3.36499Z" fill="#5E6874"/>
<path id="Vector_2" d="M4.25037 2.86C4.23037 2.86 4.21037 2.86 4.18537 2.855C3.98537 2.82 3.84537 2.625 3.88037 2.425L3.99037 1.77C4.07037 1.29 4.18037 0.625 5.34537 0.625L6.65537 0.625C7.82537 0.625 7.93537 1.315 8.01037 1.775L8.12037 2.425C8.15537 2.63 8.01537 2.825 7.81537 2.855C7.61037 2.89 7.41537 2.75 7.38537 2.55L7.27537 1.9C7.20537 1.465 7.19037 1.38 6.66037 1.38L5.35037 1.38C4.82037 1.38 4.81037 1.45 4.73537 1.895L4.62037 2.545C4.59037 2.73 4.43037 2.86 4.25037 2.86Z" fill="#5E6874"/>
<path id="Vector_3" d="M7.6052 11.375H4.39519C2.65019 11.375 2.58019 10.41 2.52519 9.63004L2.20019 4.59504C2.18519 4.39004 2.34519 4.21004 2.55019 4.19504C2.76019 4.18504 2.93519 4.34004 2.95019 4.54504L3.27519 9.58004C3.33019 10.34 3.35019 10.625 4.39519 10.625H7.6052C8.6552 10.625 8.6752 10.34 8.7252 9.58004L9.0502 4.54504C9.0652 4.34004 9.24519 4.18504 9.4502 4.19504C9.6552 4.21004 9.8152 4.38504 9.8002 4.59504L9.4752 9.63004C9.4202 10.41 9.3502 11.375 7.6052 11.375Z" fill="#5E6874"/>
<path id="Vector_4" d="M6.82906 8.625H5.16406C4.95906 8.625 4.78906 8.455 4.78906 8.25C4.78906 8.045 4.95906 7.875 5.16406 7.875H6.82906C7.03406 7.875 7.20406 8.045 7.20406 8.25C7.20406 8.455 7.03406 8.625 6.82906 8.625Z" fill="#5E6874"/>
<path id="Vector_5" d="M7.25 6.625H4.75C4.545 6.625 4.375 6.455 4.375 6.25C4.375 6.045 4.545 5.875 4.75 5.875L7.25 5.875C7.455 5.875 7.625 6.045 7.625 6.25C7.625 6.455 7.455 6.625 7.25 6.625Z" fill="#5E6874"/>
</g>
</g>
</svg>
