<svg width="16" height="16" viewBox="0 0 16 16" fill="none" xmlns="http://www.w3.org/2000/svg">
<path d="M13.9985 4.48633C13.9851 4.48633 13.9651 4.48633 13.9451 4.48633C10.4185 4.13299 6.89848 3.99966 3.41181 4.35299L2.05181 4.48633C1.77181 4.51299 1.52515 4.31299 1.49848 4.03299C1.47181 3.75299 1.67181 3.51299 1.94515 3.48633L3.30515 3.35299C6.85181 2.99299 10.4451 3.13299 14.0451 3.48633C14.3185 3.51299 14.5185 3.75966 14.4918 4.03299C14.4718 4.29299 14.2518 4.48633 13.9985 4.48633Z" fill="#798594"/>
<path d="M5.66456 3.81301C5.63789 3.81301 5.61122 3.81301 5.57789 3.80634C5.31122 3.75967 5.12456 3.49967 5.17122 3.23301L5.31789 2.35967C5.42456 1.71967 5.57122 0.833008 7.12456 0.833008L8.87122 0.833008C10.4312 0.833008 10.5779 1.75301 10.6779 2.36634L10.8246 3.23301C10.8712 3.50634 10.6846 3.76634 10.4179 3.80634C10.1446 3.85301 9.88456 3.66634 9.84456 3.39967L9.69789 2.53301C9.60456 1.95301 9.58456 1.83967 8.87789 1.83967L7.13122 1.83967C6.42456 1.83967 6.41122 1.93301 6.31122 2.52634L6.15789 3.39301C6.11789 3.63967 5.90456 3.81301 5.66456 3.81301Z" fill="#798594"/>
<path d="M10.1416 15.1667L5.86156 15.1667C3.53489 15.1667 3.44156 13.88 3.36823 12.84L2.93489 6.12672C2.91489 5.85338 3.12823 5.61338 3.40156 5.59338C3.68156 5.58005 3.91489 5.78672 3.93489 6.06005L4.36823 12.7734C4.44156 13.7867 4.46823 14.1667 5.86156 14.1667L10.1416 14.1667C11.5416 14.1667 11.5682 13.7867 11.6349 12.7734L12.0682 6.06005C12.0882 5.78672 12.3282 5.58005 12.6016 5.59338C12.8749 5.61338 13.0882 5.84672 13.0682 6.12672L12.6349 12.84C12.5616 13.88 12.4682 15.1667 10.1416 15.1667Z" fill="#798594"/>
<path d="M9.10672 11.5H6.88672C6.61339 11.5 6.38672 11.2733 6.38672 11C6.38672 10.7267 6.61339 10.5 6.88672 10.5H9.10672C9.38005 10.5 9.60672 10.7267 9.60672 11C9.60672 11.2733 9.38005 11.5 9.10672 11.5Z" fill="#798594"/>
<path d="M9.66536 8.83301H6.33203C6.0587 8.83301 5.83203 8.60634 5.83203 8.33301C5.83203 8.05967 6.0587 7.83301 6.33203 7.83301L9.66536 7.83301C9.9387 7.83301 10.1654 8.05967 10.1654 8.33301C10.1654 8.60634 9.9387 8.83301 9.66536 8.83301Z" fill="#798594"/>
</svg>
