<svg width="16" height="16" viewBox="0 0 16 16" fill="none" xmlns="http://www.w3.org/2000/svg">
<g clip-path="url(#clip0_439_16896)">
<rect width="16" height="15.9754" rx="7.98769" fill="#5E6874"/>
<path d="M7.98014 1.3313C4.30014 1.3313 1.31348 4.31337 1.31348 7.98771C1.31348 11.662 4.30014 14.6441 7.98014 14.6441C11.6601 14.6441 14.6468 11.662 14.6468 7.98771C14.6468 4.31337 11.6668 1.3313 7.98014 1.3313ZM8.00014 10.8034C6.44014 10.8034 5.18014 9.54531 5.18014 7.98771C5.18014 6.43011 6.44014 5.17205 8.00014 5.17205C9.56014 5.17205 10.8201 6.43011 10.8201 7.98771C10.8201 9.54531 9.56014 10.8034 8.00014 10.8034Z" fill="white"/>
</g>
<defs>
<clipPath id="clip0_439_16896">
<rect width="16" height="15.9754" rx="7.98769" fill="white"/>
</clipPath>
</defs>
</svg>
