<svg width="20" height="20" viewBox="0 0 20 20" fill="none" xmlns="http://www.w3.org/2000/svg">
<path d="M10.0007 10.208C9.63398 10.208 9.26732 10.1165 8.93398 9.94178L3.50898 7.02128C3.01732 6.75502 2.70898 6.23083 2.70898 5.64839C2.70898 5.06596 3.01732 4.54176 3.50898 4.27551L8.93398 1.35501C9.60065 0.997224 10.4007 0.997224 11.059 1.35501L16.484 4.27551C16.9757 4.54176 17.284 5.06596 17.284 5.64839C17.284 6.23083 16.9757 6.75502 16.484 7.02128L11.059 9.94178C10.734 10.1248 10.3673 10.208 10.0007 10.208ZM10.0007 2.32851C9.84232 2.32851 9.67565 2.37011 9.52565 2.45331L4.10898 5.36549C3.96732 5.44038 3.95898 5.59847 3.95898 5.64839C3.95898 5.69831 3.96732 5.8564 4.10898 5.92297L9.53398 8.84347C9.83398 9.00156 10.1757 9.00156 10.4757 8.84347L15.9007 5.92297C16.034 5.84808 16.0507 5.68999 16.0507 5.64839C16.0507 5.59847 16.0423 5.44038 15.9007 5.37381L10.4757 2.45331C10.3257 2.37011 10.159 2.32851 10.0007 2.32851Z" fill="#64748B"/>
<path d="M8.14935 18.9196C7.91602 18.9196 7.67435 18.8613 7.45768 18.7532L2.40768 16.2404C1.56602 15.816 1.04102 14.9673 1.04102 14.0271V9.26779C1.04102 8.72696 1.31602 8.23605 1.77435 7.95315C2.24102 7.67026 2.79935 7.64529 3.28268 7.88659L8.33268 10.3994C9.17435 10.8237 9.69935 11.6641 9.69935 12.6126V17.372C9.69935 17.9128 9.42435 18.4037 8.96602 18.6866C8.71602 18.8447 8.43268 18.9196 8.14935 18.9196ZM2.59102 8.96826C2.52435 8.96826 2.46602 8.99322 2.43268 9.00986C2.38268 9.04314 2.29102 9.11803 2.29102 9.26779V14.0271C2.29102 14.4931 2.54935 14.9174 2.96602 15.1254L8.00768 17.6466C8.14102 17.7131 8.24935 17.6632 8.29935 17.6382C8.34935 17.6049 8.44102 17.5301 8.44102 17.3803V12.621C8.44102 12.155 8.18268 11.7307 7.76602 11.5227L2.72435 9.00154C2.67435 8.97658 2.63268 8.96826 2.59102 8.96826Z" fill="#64748B"/>
<path d="M11.8508 18.9196C11.5674 18.9196 11.2841 18.8447 11.0341 18.6866C10.5758 18.4037 10.3008 17.9128 10.3008 17.372V12.6127C10.3008 11.6724 10.8258 10.8238 11.6674 10.3994L16.7091 7.87829C17.1924 7.63699 17.7591 7.66196 18.2175 7.94485C18.6758 8.22775 18.9508 8.71866 18.9508 9.25949V14.0188C18.9508 14.959 18.4258 15.8077 17.5841 16.2321L12.5424 18.7532C12.3258 18.8697 12.0841 18.9196 11.8508 18.9196ZM17.4091 8.96828C17.3674 8.96828 17.3258 8.9766 17.2758 9.00156L12.2341 11.5227C11.8174 11.7307 11.5591 12.1467 11.5591 12.621V17.3803C11.5591 17.5301 11.6508 17.605 11.7008 17.6383C11.7508 17.6715 11.8591 17.7131 11.9924 17.6466L17.0341 15.1255C17.4508 14.9174 17.7091 14.4931 17.7091 14.0271V9.26781C17.7091 9.11805 17.6174 9.04316 17.5674 9.00988C17.5341 8.99324 17.4758 8.96828 17.4091 8.96828Z" fill="#64748B"/>
</svg>
