<svg width="20" height="20" viewBox="0 0 20 20" fill="none" xmlns="http://www.w3.org/2000/svg">
<path d="M7.42565 17.2139C7.26732 17.2139 7.10898 17.1557 6.98398 17.0308C6.74232 16.7896 6.74232 16.3902 6.98398 16.1489L12.4173 10.7239C12.8173 10.3245 12.8173 9.67551 12.4173 9.27613L6.98398 3.85115C6.74232 3.60986 6.74232 3.21047 6.98398 2.96918C7.22565 2.72788 7.62565 2.72788 7.86732 2.96918L13.3007 8.39415C13.7257 8.8185 13.9673 9.39262 13.9673 10C13.9673 10.6074 13.734 11.1815 13.3007 11.6059L7.86732 17.0308C7.74232 17.1473 7.58398 17.2139 7.42565 17.2139Z" fill="#64748B"/>
</svg>
