<svg width="12" height="12" viewBox="0 0 12 12" fill="none" xmlns="http://www.w3.org/2000/svg">
<path d="M8 8.375H4C3.795 8.375 3.625 8.205 3.625 8L3.625 4C3.625 3.795 3.795 3.625 4 3.625L8 3.625C8.205 3.625 8.375 3.795 8.375 4V8C8.375 8.205 8.205 8.375 8 8.375ZM4.375 7.625L7.625 7.625L7.625 4.375L4.375 4.375L4.375 7.625Z" fill="#8592A3"/>
<path d="M2.5 11.375C1.465 11.375 0.625 10.535 0.625 9.5C0.625 8.465 1.465 7.625 2.5 7.625L4 7.625C4.205 7.625 4.375 7.795 4.375 8V9.5C4.375 10.535 3.535 11.375 2.5 11.375ZM2.5 8.375C1.88 8.375 1.375 8.88 1.375 9.5C1.375 10.12 1.88 10.625 2.5 10.625C3.12 10.625 3.625 10.12 3.625 9.5L3.625 8.375H2.5Z" fill="#8592A3"/>
<path d="M4 4.375H2.5C1.465 4.375 0.625 3.535 0.625 2.5C0.625 1.465 1.465 0.625 2.5 0.625C3.535 0.625 4.375 1.465 4.375 2.5V4C4.375 4.205 4.205 4.375 4 4.375ZM2.5 1.375C1.88 1.375 1.375 1.88 1.375 2.5C1.375 3.12 1.88 3.625 2.5 3.625H3.625V2.5C3.625 1.88 3.12 1.375 2.5 1.375Z" fill="#8592A3"/>
<path d="M9.5 4.375H8C7.795 4.375 7.625 4.205 7.625 4L7.625 2.5C7.625 1.465 8.465 0.625 9.5 0.625C10.535 0.625 11.375 1.465 11.375 2.5C11.375 3.535 10.535 4.375 9.5 4.375ZM8.375 3.625L9.5 3.625C10.12 3.625 10.625 3.12 10.625 2.5C10.625 1.88 10.12 1.375 9.5 1.375C8.88 1.375 8.375 1.88 8.375 2.5V3.625Z" fill="#8592A3"/>
<path d="M9.5 11.375C8.465 11.375 7.625 10.535 7.625 9.5V8C7.625 7.795 7.795 7.625 8 7.625H9.5C10.535 7.625 11.375 8.465 11.375 9.5C11.375 10.535 10.535 11.375 9.5 11.375ZM8.375 8.375V9.5C8.375 10.12 8.88 10.625 9.5 10.625C10.12 10.625 10.625 10.12 10.625 9.5C10.625 8.88 10.12 8.375 9.5 8.375H8.375Z" fill="#8592A3"/>
</svg>
