<svg width="20" height="20" viewBox="0 0 20 20" fill="none" xmlns="http://www.w3.org/2000/svg">
<path d="M12.4993 18.9445H7.49935C2.97435 18.9445 1.04102 17.0142 1.04102 12.4961V7.50382C1.04102 2.98578 2.97435 1.05542 7.49935 1.05542H11.666C12.0077 1.05542 12.291 1.33832 12.291 1.67946C12.291 2.0206 12.0077 2.3035 11.666 2.3035H7.49935C3.65768 2.3035 2.29102 3.66806 2.29102 7.50382V12.4961C2.29102 16.3319 3.65768 17.6964 7.49935 17.6964H12.4993C16.341 17.6964 17.7077 16.3319 17.7077 12.4961V8.33587C17.7077 7.99473 17.991 7.71183 18.3327 7.71183C18.6744 7.71183 18.9577 7.99473 18.9577 8.33587V12.4961C18.9577 17.0142 17.0243 18.9445 12.4993 18.9445Z" fill="#64748B"/>
<path d="M18.3327 8.95996H14.9993C12.1493 8.95996 11.041 7.85333 11.041 5.00772V1.67951C11.041 1.4299 11.191 1.19692 11.4243 1.1054C11.6577 1.00555 11.9243 1.06379 12.1077 1.23852L18.7743 7.89494C18.9493 8.06967 19.0077 8.34424 18.9077 8.57722C18.8077 8.81019 18.5827 8.95996 18.3327 8.95996ZM12.291 3.18552V5.00772C12.291 7.15441 12.8493 7.71188 14.9993 7.71188H16.8243L12.291 3.18552Z" fill="#64748B"/>
<path d="M10.834 11.4561H5.83398C5.49232 11.4561 5.20898 11.1732 5.20898 10.832C5.20898 10.4909 5.49232 10.208 5.83398 10.208H10.834C11.1757 10.208 11.459 10.4909 11.459 10.832C11.459 11.1732 11.1757 11.4561 10.834 11.4561Z" fill="#64748B"/>
<path d="M9.16732 14.7843H5.83398C5.49232 14.7843 5.20898 14.5014 5.20898 14.1602C5.20898 13.8191 5.49232 13.5362 5.83398 13.5362H9.16732C9.50898 13.5362 9.79232 13.8191 9.79232 14.1602C9.79232 14.5014 9.50898 14.7843 9.16732 14.7843Z" fill="#64748B"/>
</svg>
