<svg width="20" height="20" viewBox="0 0 20 20" fill="none" xmlns="http://www.w3.org/2000/svg">
<path d="M10 13.1201C8.275 13.1201 6.875 11.7223 6.875 9.99995C6.875 8.27761 8.275 6.87976 10 6.87976C11.725 6.87976 13.125 8.27761 13.125 9.99995C13.125 11.7223 11.725 13.1201 10 13.1201ZM10 8.12784C8.96667 8.12784 8.125 8.96821 8.125 9.99995C8.125 11.0317 8.96667 11.8721 10 11.8721C11.0333 11.8721 11.875 11.0317 11.875 9.99995C11.875 8.96821 11.0333 8.12784 10 8.12784Z" fill="#64748B"/>
<path d="M12.6743 18.4786C12.4993 18.4786 12.3243 18.4536 12.1493 18.412C11.6327 18.2705 11.1993 17.946 10.9243 17.4884L10.8243 17.322C10.3327 16.4733 9.65768 16.4733 9.16602 17.322L9.07435 17.4801C8.79935 17.946 8.36602 18.2789 7.84935 18.412C7.32435 18.5534 6.78268 18.4786 6.32435 18.204L4.89102 17.3803C4.38268 17.089 4.01602 16.6148 3.85768 16.0406C3.70768 15.4665 3.78268 14.8758 4.07435 14.3682C4.31602 13.9439 4.38268 13.5611 4.24102 13.3198C4.09935 13.0785 3.74102 12.9371 3.24935 12.9371C2.03268 12.9371 1.04102 11.947 1.04102 10.7322V9.26775C1.04102 8.05295 2.03268 7.06281 3.24935 7.06281C3.74102 7.06281 4.09935 6.92137 4.24102 6.68007C4.38268 6.43878 4.32435 6.05603 4.07435 5.63169C3.78268 5.12413 3.70768 4.52506 3.85768 3.95926C4.00768 3.38515 4.37435 2.91088 4.89102 2.61966L6.33268 1.79593C7.27435 1.23845 8.51602 1.56295 9.08268 2.51981L9.18268 2.68622C9.67435 3.53492 10.3493 3.53492 10.841 2.68622L10.9327 2.52813C11.4993 1.56295 12.741 1.23845 13.691 1.80425L15.1243 2.62798C15.6327 2.9192 15.9993 3.39347 16.1577 3.96758C16.3077 4.5417 16.2327 5.13245 15.941 5.64001C15.6993 6.06435 15.6327 6.4471 15.7744 6.68839C15.916 6.92969 16.2744 7.07113 16.766 7.07113C17.9827 7.07113 18.9743 8.06128 18.9743 9.27607V10.7405C18.9743 11.9553 17.9827 12.9454 16.766 12.9454C16.2744 12.9454 15.916 13.0869 15.7744 13.3282C15.6327 13.5695 15.691 13.9522 15.941 14.3765C16.2327 14.8841 16.316 15.4832 16.1577 16.049C16.0077 16.6231 15.641 17.0974 15.1243 17.3886L13.6827 18.2123C13.366 18.387 13.0243 18.4786 12.6743 18.4786ZM9.99935 15.4C10.741 15.4 11.4327 15.8659 11.9077 16.6896L11.9993 16.8477C12.0993 17.0225 12.266 17.1473 12.466 17.1972C12.666 17.2471 12.866 17.2222 13.0327 17.1223L14.4743 16.2903C14.691 16.1655 14.8577 15.9574 14.9243 15.7078C14.991 15.4582 14.9577 15.2003 14.8327 14.9839C14.3577 14.1685 14.2993 13.3282 14.666 12.6875C15.0327 12.0468 15.791 11.6807 16.741 11.6807C17.2743 11.6807 17.6994 11.2564 17.6994 10.7238V9.25943C17.6994 8.73524 17.2743 8.30257 16.741 8.30257C15.791 8.30257 15.0327 7.93647 14.666 7.29579C14.2993 6.65511 14.3577 5.81474 14.8327 4.99933C14.9577 4.78299 14.991 4.52506 14.9243 4.27544C14.8577 4.02583 14.6993 3.82613 14.4827 3.69301L13.041 2.86927C12.6827 2.65294 12.2077 2.77775 11.991 3.14385L11.8993 3.30194C11.4243 4.12567 10.7327 4.59162 9.99102 4.59162C9.24935 4.59162 8.55768 4.12567 8.08268 3.30194L7.99102 3.13553C7.78268 2.78607 7.31602 2.66126 6.95768 2.86927L5.51602 3.70133C5.29935 3.82613 5.13268 4.03415 5.06602 4.28376C4.99935 4.53338 5.03268 4.79131 5.15768 5.00765C5.63268 5.82306 5.69102 6.66343 5.32435 7.30411C4.95768 7.94479 4.19935 8.31089 3.24935 8.31089C2.71602 8.31089 2.29102 8.73524 2.29102 9.26775V10.7322C2.29102 11.2564 2.71602 11.689 3.24935 11.689C4.19935 11.689 4.95768 12.0551 5.32435 12.6958C5.69102 13.3365 5.63268 14.1769 5.15768 14.9923C5.03268 15.2086 4.99935 15.4665 5.06602 15.7161C5.13268 15.9658 5.29102 16.1655 5.50768 16.2986L6.94935 17.1223C7.12435 17.2305 7.33268 17.2554 7.52435 17.2055C7.72435 17.1556 7.89102 17.0225 7.99935 16.8477L8.09102 16.6896C8.56602 15.8742 9.25768 15.4 9.99935 15.4Z" fill="#64748B"/>
</svg>
