<svg width="20" height="20" viewBox="0 0 20 20" fill="none" xmlns="http://www.w3.org/2000/svg">
<path d="M12.6991 18.5452H12.5908C8.89078 18.5452 7.10745 17.0891 6.79912 13.8274C6.76578 13.4863 7.01578 13.1784 7.36578 13.1452C7.69912 13.1119 8.01578 13.3698 8.04912 13.7109C8.29078 16.3236 9.52412 17.2971 12.5991 17.2971H12.7075C16.0991 17.2971 17.2991 16.0989 17.2991 12.7125V7.28751C17.2991 3.90106 16.0991 2.70291 12.7075 2.70291H12.5991C9.50745 2.70291 8.27412 3.69305 8.04912 6.35562C8.00745 6.69676 7.71578 6.95469 7.36578 6.92141C7.01578 6.89645 6.76578 6.58859 6.79078 6.24745C7.07412 2.93589 8.86578 1.45483 12.5908 1.45483H12.6991C16.7908 1.45483 18.5408 3.20214 18.5408 7.28751V12.7125C18.5408 16.7979 16.7908 18.5452 12.6991 18.5452Z" fill="#64748B"/>
<path d="M12.5009 10.6241H3.01758C2.67591 10.6241 2.39258 10.3412 2.39258 10C2.39258 9.65887 2.67591 9.37598 3.01758 9.37598H12.5009C12.8426 9.37598 13.1259 9.65887 13.1259 10C13.1259 10.3412 12.8426 10.6241 12.5009 10.6241Z" fill="#64748B"/>
<path d="M4.87552 13.4114C4.71719 13.4114 4.55885 13.3532 4.43385 13.2284L1.64219 10.441C1.40052 10.1997 1.40052 9.80034 1.64219 9.55904L4.43385 6.77167C4.67552 6.53037 5.07552 6.53037 5.31719 6.77167C5.55885 7.01296 5.55885 7.41235 5.31719 7.65364L2.96719 10L5.31719 12.3464C5.55885 12.5877 5.55885 12.9871 5.31719 13.2284C5.20052 13.3532 5.03385 13.4114 4.87552 13.4114Z" fill="#64748B"/>
</svg>
