<svg width="20" height="20" viewBox="0 0 20 20" fill="none" xmlns="http://www.w3.org/2000/svg">
<path d="M1.66406 8.12435C1.3224 8.12435 1.03906 7.84102 1.03906 7.49935V5.41602C1.03906 3.00768 3.00573 1.04102 5.41406 1.04102H7.4974C7.83906 1.04102 8.1224 1.32435 8.1224 1.66602C8.1224 2.00768 7.83906 2.29102 7.4974 2.29102H5.41406C3.68906 2.29102 2.28906 3.69102 2.28906 5.41602V7.49935C2.28906 7.84102 2.00573 8.12435 1.66406 8.12435Z" fill="#465468"/>
<path d="M18.3333 8.12435C17.9917 8.12435 17.7083 7.84102 17.7083 7.49935V5.41602C17.7083 3.69102 16.3083 2.29102 14.5833 2.29102H12.5C12.1583 2.29102 11.875 2.00768 11.875 1.66602C11.875 1.32435 12.1583 1.04102 12.5 1.04102H14.5833C16.9917 1.04102 18.9583 3.00768 18.9583 5.41602V7.49935C18.9583 7.84102 18.675 8.12435 18.3333 8.12435Z" fill="#465468"/>
<path d="M14.5859 18.959H13.3359C12.9943 18.959 12.7109 18.6757 12.7109 18.334C12.7109 17.9923 12.9943 17.709 13.3359 17.709H14.5859C16.3109 17.709 17.7109 16.309 17.7109 14.584V13.334C17.7109 12.9923 17.9943 12.709 18.3359 12.709C18.6776 12.709 18.9609 12.9923 18.9609 13.334V14.584C18.9609 16.9923 16.9943 18.959 14.5859 18.959Z" fill="#465468"/>
<path d="M7.4974 18.9583H5.41406C3.00573 18.9583 1.03906 16.9917 1.03906 14.5833V12.5C1.03906 12.1583 1.3224 11.875 1.66406 11.875C2.00573 11.875 2.28906 12.1583 2.28906 12.5V14.5833C2.28906 16.3083 3.68906 17.7083 5.41406 17.7083H7.4974C7.83906 17.7083 8.1224 17.9917 8.1224 18.3333C8.1224 18.675 7.83906 18.9583 7.4974 18.9583Z" fill="#465468"/>
</svg>
