<svg width="20" height="20" viewBox="0 0 20 20" fill="none" xmlns="http://www.w3.org/2000/svg">
<path d="M6.94155 18.5286C4.79988 18.5286 3.43321 17.2472 2.55821 14.5431L1.49155 11.2565C0.308214 7.59544 1.36655 5.53195 5.01655 4.35044L6.33321 3.92609C6.76655 3.79296 7.09155 3.70144 7.38321 3.65151C7.62488 3.60159 7.85821 3.69312 7.99988 3.88449C8.14155 4.07586 8.16655 4.32548 8.06655 4.54181C7.84988 4.9828 7.65821 5.54027 7.49988 6.23919L6.68321 9.72549C5.94155 12.8706 6.79988 14.2435 9.94988 14.9924L11.3499 15.3252C11.7999 15.4334 12.2249 15.4999 12.6082 15.5332C12.8749 15.5582 13.0915 15.7412 13.1665 15.9992C13.2332 16.2571 13.1332 16.5233 12.9165 16.6731C12.3665 17.0475 11.6749 17.3637 10.7999 17.6466L9.48321 18.0793C8.52488 18.3788 7.69155 18.5286 6.94155 18.5286ZM6.48321 5.19081L5.40821 5.54027C2.43321 6.49713 1.72488 7.89498 2.68321 10.8737L3.74988 14.1603C4.71655 17.1307 6.11655 17.8463 9.09155 16.8895L10.4082 16.4568C10.4582 16.4401 10.4999 16.4235 10.5499 16.4069L9.66655 16.1988C5.82488 15.2919 4.56655 13.2617 5.46655 9.43427L6.28321 5.94798C6.34155 5.68172 6.40821 5.42378 6.48321 5.19081Z" fill="#64748B"/>
<path d="M13.1741 16.8062C12.9574 16.8062 12.7324 16.7978 12.4907 16.7729C12.0574 16.7396 11.5658 16.6564 11.0574 16.5316L9.65742 16.1988C5.81575 15.2918 4.55742 13.2616 5.45742 9.43418L6.27408 5.94789C6.45742 5.15744 6.67408 4.51676 6.94075 3.98424C8.37408 1.03046 11.1157 1.29672 13.0657 1.75435L14.4574 2.07885C16.4074 2.53648 17.6407 3.26036 18.3324 4.36699C19.0157 5.47362 19.1241 6.89642 18.6657 8.84342L17.8491 12.3214C17.1324 15.3667 15.6407 16.8062 13.1741 16.8062ZM10.9324 2.71953C9.54075 2.71953 8.65742 3.29364 8.06575 4.52508C7.84908 4.97439 7.65742 5.53186 7.49075 6.23078L6.67408 9.71708C5.93242 12.8622 6.79075 14.2351 9.94075 14.984L11.3407 15.3168C11.7907 15.4249 12.2157 15.4915 12.5991 15.5248C14.8657 15.7494 15.9908 14.7593 16.6241 12.0385L17.4408 8.56053C17.8158 6.95467 17.7657 5.8314 17.2657 5.02431C16.7657 4.21722 15.7824 3.66807 14.1657 3.29364L12.7741 2.96914C12.0824 2.80273 11.4657 2.71953 10.9324 2.71953Z" fill="#64748B"/>
<path d="M14.5751 8.76027C14.5251 8.76027 14.4751 8.75195 14.4168 8.74363L10.3751 7.72021C10.0418 7.637 9.84181 7.29586 9.92514 6.96304C10.0085 6.63022 10.3501 6.43053 10.6835 6.51373L14.7251 7.53716C15.0585 7.62036 15.2585 7.9615 15.1751 8.29432C15.1085 8.5689 14.8501 8.76027 14.5751 8.76027Z" fill="#64748B"/>
<path d="M12.1343 11.5725C12.0843 11.5725 12.0343 11.5642 11.9759 11.5559L9.55092 10.9402C9.21759 10.857 9.01759 10.5158 9.10092 10.183C9.18425 9.85019 9.52592 9.6505 9.85925 9.7337L12.2843 10.3494C12.6176 10.4326 12.8176 10.7738 12.7343 11.1066C12.6676 11.3895 12.4176 11.5725 12.1343 11.5725Z" fill="#64748B"/>
</svg>
