<svg width="20" height="20" viewBox="0 0 20 20" fill="none" xmlns="http://www.w3.org/2000/svg">
<path d="M10.1322 9.68379C10.1072 9.68379 10.0905 9.68379 10.0655 9.68379C10.0238 9.67547 9.96549 9.67547 9.91549 9.68379C7.49883 9.60891 5.67383 7.71183 5.67383 5.37377C5.67383 2.9941 7.61549 1.05542 9.99883 1.05542C12.3822 1.05542 14.3238 2.9941 14.3238 5.37377C14.3155 7.71183 12.4822 9.60891 10.1572 9.68379C10.1488 9.68379 10.1405 9.68379 10.1322 9.68379ZM9.99883 2.3035C8.30716 2.3035 6.92383 3.6847 6.92383 5.37377C6.92383 7.03787 8.22383 8.37747 9.88216 8.43572C9.92383 8.42739 10.0405 8.42739 10.1488 8.43572C11.7822 8.36083 13.0655 7.02123 13.0738 5.37377C13.0738 3.6847 11.6905 2.3035 9.99883 2.3035Z" fill="#64748B"/>
<path d="M10.1404 18.7781C8.50703 18.7781 6.86536 18.3621 5.6237 17.5301C4.46536 16.7646 3.83203 15.7162 3.83203 14.5763C3.83203 13.4364 4.46536 12.3797 5.6237 11.6059C8.1237 9.95007 12.1737 9.95007 14.657 11.6059C15.807 12.3713 16.4487 13.4197 16.4487 14.5596C16.4487 15.6995 15.8154 16.7562 14.657 17.5301C13.407 18.3621 11.7737 18.7781 10.1404 18.7781ZM6.31536 12.6542C5.51536 13.1867 5.08203 13.869 5.08203 14.5846C5.08203 15.2918 5.5237 15.9741 6.31536 16.4983C8.39036 17.8878 11.8904 17.8878 13.9654 16.4983C14.7654 15.9658 15.1987 15.2835 15.1987 14.568C15.1987 13.8607 14.757 13.1784 13.9654 12.6542C11.8904 11.273 8.39036 11.273 6.31536 12.6542Z" fill="#64748B"/>
</svg>
