<svg width="20" height="20" viewBox="0 0 20 20" fill="none" xmlns="http://www.w3.org/2000/svg">
<path d="M9.99935 18.9445C9.34935 18.9445 8.71602 18.6117 8.28268 18.0293L7.44102 16.906C7.26602 16.673 7.03268 16.5399 6.78268 16.5233C6.53268 16.5149 6.28268 16.6231 6.08268 16.8311L5.60768 16.4068L6.06602 16.8311C4.86602 18.1125 3.94102 18.0126 3.49935 17.8379C3.04935 17.6632 2.29102 17.089 2.29102 15.2419V5.873C2.29102 2.17869 3.35768 1.05542 6.84935 1.05542H13.1493C16.641 1.05542 17.7077 2.17869 17.7077 5.873V15.2419C17.7077 17.0807 16.9493 17.6548 16.4993 17.8379C16.0577 18.0126 15.141 18.1125 13.9327 16.8311C13.7327 16.6148 13.4827 16.4983 13.2243 16.5233C12.9743 16.5399 12.7327 16.673 12.5577 16.906L11.716 18.0293C11.2827 18.6117 10.6493 18.9445 9.99935 18.9445ZM6.73268 15.2669C6.76602 15.2669 6.80768 15.2669 6.84102 15.2669C7.45768 15.3001 8.04102 15.6246 8.43268 16.1488L9.27435 17.2721C9.68268 17.8129 10.3077 17.8129 10.716 17.2721L11.5577 16.1488C11.9577 15.6246 12.5327 15.3001 13.1577 15.2669C13.7743 15.2336 14.391 15.4915 14.841 15.9741C15.4743 16.6481 15.8827 16.7313 16.0327 16.673C16.2327 16.5898 16.4493 16.1072 16.4493 15.2419V5.873C16.4493 2.86929 15.9243 2.3035 13.141 2.3035H6.84935C4.06602 2.3035 3.54102 2.86929 3.54102 5.873V15.2419C3.54102 16.1155 3.75768 16.5981 3.95768 16.673C4.09935 16.7313 4.51602 16.6481 5.14935 15.9741C5.59935 15.5165 6.15768 15.2669 6.73268 15.2669Z" fill="#64748B"/>
<path d="M13.5247 9.79202H8.94141C8.59974 9.79202 8.31641 9.50913 8.31641 9.16798C8.31641 8.82684 8.59974 8.54395 8.94141 8.54395H13.5247C13.8664 8.54395 14.1497 8.82684 14.1497 9.16798C14.1497 9.50913 13.8664 9.79202 13.5247 9.79202Z" fill="#64748B"/>
<path d="M13.5247 6.46378H8.94141C8.59974 6.46378 8.31641 6.18088 8.31641 5.83974C8.31641 5.4986 8.59974 5.2157 8.94141 5.2157H13.5247C13.8664 5.2157 14.1497 5.4986 14.1497 5.83974C14.1497 6.18088 13.8664 6.46378 13.5247 6.46378Z" fill="#64748B"/>
<path d="M6.48372 6.67179C6.02539 6.67179 5.65039 6.29737 5.65039 5.83974C5.65039 5.38211 6.02539 5.00769 6.48372 5.00769C6.94206 5.00769 7.31706 5.38211 7.31706 5.83974C7.31706 6.29737 6.94206 6.67179 6.48372 6.67179Z" fill="#64748B"/>
<path d="M6.48372 10C6.02539 10 5.65039 9.62562 5.65039 9.16799C5.65039 8.71036 6.02539 8.33594 6.48372 8.33594C6.94206 8.33594 7.31706 8.71036 7.31706 9.16799C7.31706 9.62562 6.94206 10 6.48372 10Z" fill="#64748B"/>
</svg>
