<svg width="20" height="20" viewBox="0 0 20 20" fill="none" xmlns="http://www.w3.org/2000/svg">
<path d="M9.99935 18.9445C5.05768 18.9445 1.04102 14.934 1.04102 9.99997C1.04102 5.06591 5.05768 1.05542 9.99935 1.05542C14.941 1.05542 18.9577 5.06591 18.9577 9.99997C18.9577 14.934 14.941 18.9445 9.99935 18.9445ZM9.99935 2.3035C5.74935 2.3035 2.29102 5.75651 2.29102 9.99997C2.29102 14.2434 5.74935 17.6964 9.99935 17.6964C14.2493 17.6964 17.7077 14.2434 17.7077 9.99997C17.7077 5.75651 14.2493 2.3035 9.99935 2.3035Z" fill="#64748B"/>
<path d="M9.99987 14.5514C8.8332 14.5514 7.66654 14.1104 6.77487 13.2201C6.54154 12.9871 6.3332 12.7292 6.14153 12.4213C5.9582 12.1301 6.04986 11.7474 6.34152 11.5643C6.63319 11.3813 7.01655 11.4728 7.19988 11.764C7.34155 11.997 7.49154 12.18 7.6582 12.3464C8.94987 13.6361 11.0499 13.6361 12.3415 12.3464C12.8415 11.8472 13.1582 11.1982 13.2665 10.4743C13.3165 10.1332 13.6332 9.88356 13.9749 9.94181C14.3165 9.99173 14.5499 10.3079 14.5082 10.6491C14.3665 11.6392 13.9249 12.5295 13.2332 13.2284C12.3332 14.1104 11.1665 14.5514 9.99987 14.5514Z" fill="#64748B"/>
<path d="M6.11593 10.0666C6.0826 10.0666 6.05761 10.0666 6.02427 10.0583C5.68261 10.0084 5.44093 9.69219 5.49093 9.35105C5.6326 8.3609 6.07426 7.47063 6.76593 6.77171C8.54093 4.99944 11.4326 4.99944 13.2159 6.77171C13.4493 7.00468 13.6576 7.26264 13.8493 7.57882C14.0326 7.87004 13.9409 8.25276 13.6493 8.43581C13.3576 8.61886 12.9743 8.52734 12.7909 8.23613C12.6493 8.01147 12.4993 7.82009 12.3326 7.65368C11.0409 6.364 8.94093 6.364 7.64926 7.65368C7.14926 8.15291 6.83261 8.80191 6.72427 9.52579C6.69094 9.84197 6.42426 10.0666 6.11593 10.0666Z" fill="#64748B"/>
<path d="M6.51758 14.9341C6.17591 14.9341 5.89258 14.6512 5.89258 14.31V12.0885C5.89258 11.7473 6.17591 11.4644 6.51758 11.4644H8.74256C9.08423 11.4644 9.36756 11.7473 9.36756 12.0885C9.36756 12.4296 9.08423 12.7125 8.74256 12.7125H7.14258V14.31C7.14258 14.6512 6.86758 14.9341 6.51758 14.9341Z" fill="#64748B"/>
<path d="M13.4828 8.53562H11.2578C10.9161 8.53562 10.6328 8.25272 10.6328 7.91158C10.6328 7.57044 10.9161 7.28754 11.2578 7.28754H12.8578V5.69002C12.8578 5.34888 13.1411 5.06598 13.4828 5.06598C13.8245 5.06598 14.1078 5.34888 14.1078 5.69002V7.91158C14.1078 8.26104 13.8245 8.53562 13.4828 8.53562Z" fill="#64748B"/>
</svg>
