<svg width="20" height="20" viewBox="0 0 20 20" fill="none" xmlns="http://www.w3.org/2000/svg">
<path d="M9.97591 18.9445C5.04258 18.9445 1.01758 14.934 1.01758 9.99997C1.01758 5.06591 5.04258 1.05542 9.97591 1.05542C14.9092 1.05542 18.9342 5.06591 18.9342 9.99997C18.9342 14.934 14.9176 18.9445 9.97591 18.9445ZM9.97591 2.3035C5.72591 2.3035 2.26758 5.75651 2.26758 9.99997C2.26758 14.2434 5.72591 17.6964 9.97591 17.6964C14.2259 17.6964 17.6842 14.2434 17.6842 9.99997C17.6842 5.75651 14.2259 2.3035 9.97591 2.3035Z" fill="#64748B"/>
<path d="M10 14.3683C7.58333 14.3683 5.625 12.4046 5.625 9.99998C5.625 7.59535 7.58333 5.63171 10 5.63171C12.4167 5.63171 14.375 7.59535 14.375 9.99998C14.375 12.4046 12.4167 14.3683 10 14.3683ZM10 6.87979C8.275 6.87979 6.875 8.27764 6.875 9.99998C6.875 11.7223 8.275 13.1202 10 13.1202C11.725 13.1202 13.125 11.7223 13.125 9.99998C13.125 8.27764 11.725 6.87979 10 6.87979Z" fill="#64748B"/>
<path d="M7.03385 7.67862C6.87552 7.67862 6.70885 7.62038 6.59219 7.50389L3.64219 4.55843C3.40052 4.31713 3.40052 3.91775 3.64219 3.67645C3.88385 3.43516 4.28385 3.43516 4.52552 3.67645L7.47552 6.62192C7.71719 6.86321 7.71719 7.25428 7.47552 7.50389C7.35052 7.62038 7.19219 7.67862 7.03385 7.67862Z" fill="#64748B"/>
<path d="M4.08385 16.5066C3.92552 16.5066 3.76719 16.4484 3.64219 16.3236C3.40052 16.0823 3.40052 15.6829 3.64219 15.4416L6.59219 12.4962C6.83385 12.2549 7.23385 12.2549 7.47552 12.4962C7.71719 12.7375 7.71719 13.1368 7.47552 13.3781L4.52552 16.3236C4.40885 16.4484 4.24219 16.5066 4.08385 16.5066Z" fill="#64748B"/>
<path d="M15.8659 16.5066C15.7076 16.5066 15.5492 16.4484 15.4242 16.3236L12.4742 13.3781C12.2326 13.1368 12.2326 12.7375 12.4742 12.4962C12.7159 12.2549 13.1159 12.2549 13.3576 12.4962L16.3076 15.4416C16.5492 15.6829 16.5492 16.0823 16.3076 16.3236C16.1909 16.4484 16.0326 16.5066 15.8659 16.5066Z" fill="#64748B"/>
<path d="M12.9257 7.67852C12.7673 7.67852 12.609 7.62028 12.484 7.49547C12.2423 7.25417 12.2423 6.85479 12.484 6.61349L15.434 3.66803C15.6757 3.42674 16.0757 3.42674 16.3173 3.66803C16.559 3.90933 16.559 4.30871 16.3173 4.55001L13.3673 7.50379C13.2423 7.62028 13.084 7.67852 12.9257 7.67852Z" fill="#64748B"/>
</svg>
