<svg width="20" height="20" viewBox="0 0 20 20" fill="none" xmlns="http://www.w3.org/2000/svg">
<path d="M10.8328 12.2881H9.99949C9.65782 12.2881 9.37449 12.0052 9.37449 11.6641C9.37449 11.3229 9.65782 11.04 9.99949 11.04H10.8328C11.4078 11.04 11.8745 10.5741 11.8745 9.99997V2.3035H4.99949C4.01616 2.3035 3.11613 2.836 2.6328 3.69301C2.46613 3.99255 2.08283 4.10075 1.78283 3.93434C1.48283 3.76793 1.37447 3.38517 1.54114 3.08563C2.24114 1.83755 3.56616 1.05542 4.99949 1.05542H12.4995C12.8412 1.05542 13.1245 1.33832 13.1245 1.67946V9.99997C13.1245 11.2647 12.0995 12.2881 10.8328 12.2881Z" fill="#64748B"/>
<path d="M15.8327 17.2805H14.9993C14.6577 17.2805 14.3743 16.9976 14.3743 16.6564C14.3743 16.0823 13.9077 15.6164 13.3327 15.6164C12.7577 15.6164 12.291 16.0823 12.291 16.6564C12.291 16.9976 12.0077 17.2805 11.666 17.2805H8.33268C7.99102 17.2805 7.70768 16.9976 7.70768 16.6564C7.70768 16.0823 7.24102 15.6164 6.66602 15.6164C6.09102 15.6164 5.62435 16.0823 5.62435 16.6564C5.62435 16.9976 5.34102 17.2805 4.99935 17.2805H4.16602C2.44102 17.2805 1.04102 15.8826 1.04102 14.1603C1.04102 13.8191 1.32435 13.5363 1.66602 13.5363C2.00768 13.5363 2.29102 13.8191 2.29102 14.1603C2.29102 15.192 3.13268 16.0324 4.16602 16.0324H4.45766C4.73266 15.0755 5.61602 14.3683 6.66602 14.3683C7.71602 14.3683 8.59937 15.0755 8.87437 16.0324H11.1327C11.4077 15.0755 12.291 14.3683 13.341 14.3683C14.391 14.3683 15.2743 15.0755 15.5493 16.0324H15.8327C16.866 16.0324 17.7077 15.192 17.7077 14.1603V12.2882H15.8327C15.0327 12.2882 14.3743 11.6309 14.3743 10.8321V8.33593C14.3743 7.53716 15.0243 6.87984 15.8327 6.87984L14.941 5.32391C14.7577 4.99941 14.4077 4.79971 14.0327 4.79971H13.1243V10C13.1243 11.2648 12.0993 12.2882 10.8327 12.2882H9.99935C9.65768 12.2882 9.37435 12.0053 9.37435 11.6641C9.37435 11.323 9.65768 11.0401 9.99935 11.0401H10.8327C11.4077 11.0401 11.8743 10.5741 11.8743 10V4.17567C11.8743 3.83453 12.1577 3.55164 12.4993 3.55164H14.0327C14.8577 3.55164 15.616 3.99264 16.0243 4.7082L17.4494 7.19602C17.5577 7.3874 17.5577 7.62869 17.4494 7.82006C17.341 8.01143 17.1327 8.12792 16.9077 8.12792H15.8327C15.716 8.12792 15.6243 8.21944 15.6243 8.33593V10.8321C15.6243 10.9486 15.716 11.0401 15.8327 11.0401H18.3327C18.6744 11.0401 18.9577 11.323 18.9577 11.6641V14.1603C18.9577 15.8826 17.5577 17.2805 15.8327 17.2805Z" fill="#64748B"/>
<path d="M6.66667 18.9446C5.4 18.9446 4.375 17.9211 4.375 16.6564C4.375 15.3917 5.4 14.3683 6.66667 14.3683C7.93333 14.3683 8.95833 15.3917 8.95833 16.6564C8.95833 17.9211 7.93333 18.9446 6.66667 18.9446ZM6.66667 15.6164C6.09167 15.6164 5.625 16.0823 5.625 16.6564C5.625 17.2305 6.09167 17.6965 6.66667 17.6965C7.24167 17.6965 7.70833 17.2305 7.70833 16.6564C7.70833 16.0823 7.24167 15.6164 6.66667 15.6164Z" fill="#64748B"/>
<path d="M13.3327 18.9446C12.066 18.9446 11.041 17.9211 11.041 16.6564C11.041 15.3917 12.066 14.3683 13.3327 14.3683C14.5993 14.3683 15.6243 15.3917 15.6243 16.6564C15.6243 17.9211 14.5993 18.9446 13.3327 18.9446ZM13.3327 15.6164C12.7577 15.6164 12.291 16.0823 12.291 16.6564C12.291 17.2305 12.7577 17.6965 13.3327 17.6965C13.9077 17.6965 14.3743 17.2305 14.3743 16.6564C14.3743 16.0823 13.9077 15.6164 13.3327 15.6164Z" fill="#64748B"/>
<path d="M18.3333 12.2881H15.8333C15.0333 12.2881 14.375 11.6308 14.375 10.832V8.33585C14.375 7.53708 15.0333 6.87976 15.8333 6.87976H16.9083C17.1333 6.87976 17.3417 6.99625 17.45 7.19594L18.875 9.6921C18.925 9.78362 18.9583 9.89179 18.9583 9.99995V11.6641C18.9583 12.0052 18.675 12.2881 18.3333 12.2881ZM15.8333 8.12784C15.7167 8.12784 15.625 8.21936 15.625 8.33585V10.832C15.625 10.9485 15.7167 11.04 15.8333 11.04H17.7083V10.1664L16.5416 8.12784H15.8333Z" fill="#64748B"/>
<path d="M6.66602 7.29581H1.66602C1.32435 7.29581 1.04102 7.01291 1.04102 6.67177C1.04102 6.33063 1.32435 6.04773 1.66602 6.04773H6.66602C7.00768 6.04773 7.29102 6.33063 7.29102 6.67177C7.29102 7.01291 7.00768 7.29581 6.66602 7.29581Z" fill="#64748B"/>
<path d="M4.99935 9.79202H1.66602C1.32435 9.79202 1.04102 9.50913 1.04102 9.16798C1.04102 8.82684 1.32435 8.54395 1.66602 8.54395H4.99935C5.34102 8.54395 5.62435 8.82684 5.62435 9.16798C5.62435 9.50913 5.34102 9.79202 4.99935 9.79202Z" fill="#64748B"/>
<path d="M3.33268 12.2881H1.66602C1.32435 12.2881 1.04102 12.0052 1.04102 11.6641C1.04102 11.3229 1.32435 11.04 1.66602 11.04H3.33268C3.67435 11.04 3.95768 11.3229 3.95768 11.6641C3.95768 12.0052 3.67435 12.2881 3.33268 12.2881Z" fill="#64748B"/>
</svg>
