<svg width="12" height="12" viewBox="0 0 12 12" fill="none" xmlns="http://www.w3.org/2000/svg">
<g id="Icons/Solid/windows">
<g id="vuesax/bold/windows">
<g id="windows">
<path id="Vector" fill-rule="evenodd" clip-rule="evenodd" d="M10.4 1.11999L6.39999 1.91999C6.16499 1.96499 6 2.17 6 2.41L6 4.99999C6 5.27499 6.225 5.49999 6.5 5.49999L10.5 5.49999C10.775 5.49999 11 5.27499 11 4.99999V1.60999C11 1.29499 10.71 1.05999 10.4 1.11999Z" fill="#8592A3"/>
<path id="Vector_2" fill-rule="evenodd" clip-rule="evenodd" d="M10.4 10.88L6.39999 10.08C6.16499 10.035 6 9.83 6 9.59L6 7C6 6.725 6.225 6.5 6.5 6.5L10.5 6.5C10.775 6.5 11 6.725 11 7V10.39C11 10.705 10.71 10.94 10.4 10.88Z" fill="#8592A3"/>
<path id="Vector_3" fill-rule="evenodd" clip-rule="evenodd" d="M4.39499 2.28004L1.39499 2.91503C1.16499 2.96503 1 3.17004 1 3.40504L1 5.00004C1 5.27504 1.225 5.50004 1.5 5.50004H4.5C4.775 5.50004 5 5.27504 5 5.00004V2.76504C5 2.45004 4.70499 2.21004 4.39499 2.28004Z" fill="#8592A3"/>
<path id="Vector_4" fill-rule="evenodd" clip-rule="evenodd" d="M4.39499 9.72L1.39499 9.08501C1.16499 9.03501 1 8.83 1 8.595L1 7C1 6.725 1.225 6.5 1.5 6.5L4.5 6.5C4.775 6.5 5 6.725 5 7V9.235C5 9.55 4.70499 9.79 4.39499 9.72Z" fill="#8592A3"/>
</g>
</g>
</g>
</svg>
