<svg width="113" height="24" viewBox="0 0 113 24" fill="none" xmlns="http://www.w3.org/2000/svg">
<path d="M29.0664 13.6653C29.0664 12.2961 29.4895 11.1664 30.3304 10.2808C31.174 9.39524 32.3116 8.95125 33.7411 8.95125C34.9892 8.99594 35.9169 9.31908 36.5187 9.92094V8.88832H38.7577V18.2903H36.5714V17.36C36.2482 17.6388 35.896 17.8646 35.5176 18.0328C35.1365 18.2036 34.5452 18.3033 33.7411 18.3297C32.4324 18.3271 31.371 17.9619 30.5589 17.2286C29.5657 16.3195 29.0664 15.134 29.0664 13.6653ZM31.3051 13.7309C31.3051 14.5351 31.5809 15.1866 32.1302 15.6833C32.5768 16.0852 33.2495 16.2981 34.1483 16.3242C34.8631 16.2454 35.4279 16.0037 35.8434 15.5989C36.2585 15.1917 36.4976 14.6057 36.5581 13.8356C36.5922 13.0762 36.4479 12.4743 36.1247 12.0277C35.5834 11.3314 34.8372 10.9819 33.8857 10.9819C33.0475 11.0607 32.4012 11.3338 31.949 11.8069C31.4945 12.2773 31.2789 12.9186 31.3051 13.7304V13.7309ZM48.6587 14.8582C48.5273 15.9329 48.0753 16.7791 47.3027 17.3992C46.53 18.0193 45.5841 18.3162 44.4674 18.2901C43.1481 18.2795 42.1549 17.9878 41.4875 17.4124C40.82 16.8343 40.389 15.9881 40.1973 14.8714V8.80925H42.4254V14.0858C42.4254 14.8267 42.6542 15.326 43.1114 15.5836C43.5712 15.8411 44.0258 15.9593 44.4804 15.9331C45.0217 15.949 45.4841 15.7911 45.8678 15.4601C46.2515 15.129 46.4433 14.593 46.4433 13.8494V8.83569H48.6584L48.6587 14.8582ZM51.4493 6.17627L53.6618 5.08838V8.69105L55.6906 8.70427L55.6773 10.8512H53.6618V14.7403C53.6436 15.4733 53.78 15.9752 54.0667 16.246C54.2951 16.4826 54.7 16.6744 55.286 16.8216L55.822 16.966L54.8261 18.9448L53.9879 18.6952C53.2916 18.4691 52.7109 18.1065 52.2481 17.6073C51.9512 17.2683 51.7333 16.8796 51.5913 16.4432C51.4966 16.086 51.4493 15.6103 51.4493 15.0163V10.9303L50.1118 10.9435V8.67835L51.4493 8.69158V6.1768V6.17627ZM56.555 13.6021C56.555 12.2226 56.9781 11.0847 57.824 10.1888C58.6702 9.29528 59.8184 8.84865 61.2691 8.84865C62.9089 8.84865 64.1544 9.3717 65.0005 10.4199C65.6733 11.2661 66.0096 12.304 66.0096 13.5363C66.0096 14.9317 65.5892 16.0746 64.7509 16.9602C63.9153 17.8458 62.7539 18.2898 61.2694 18.2898C59.9501 18.2898 58.8807 17.922 58.061 17.1889C57.0572 16.2719 56.555 15.0761 56.555 13.6021ZM58.7017 13.6653C58.7017 14.4772 58.9804 15.1369 59.54 15.6441C59.9866 16.0461 60.6619 16.2589 61.5711 16.2851C62.2858 16.1984 62.8533 15.954 63.2711 15.5521C63.6916 15.1501 63.9306 14.5612 63.9912 13.7835C64.028 13.0164 63.8836 12.4093 63.5602 11.9653C63.0189 11.2558 62.2673 10.9036 61.3082 10.9036C60.462 10.9824 59.8078 11.2585 59.3506 11.7339C58.8908 12.2094 58.6755 12.8533 58.7017 13.6653ZM67.4363 12.5801C67.4283 11.4631 67.6333 10.6146 68.0511 10.0391C68.4715 9.46373 68.9708 9.08268 69.5515 8.89863C70.1322 8.71749 70.8128 8.66222 71.5958 8.73574C72.3762 8.80925 73.1147 9.21384 73.8136 9.94712C74.6783 9.20617 75.5322 8.80925 76.3731 8.75663C77.2167 8.70401 77.8944 8.76694 78.4042 8.9457C78.9141 9.12446 79.3554 9.44495 79.7259 9.90745C80.0964 10.3699 80.2646 11.2056 80.2304 12.409V18.2504H78.0573V12.9582C78.0573 12.2617 77.9494 11.7783 77.7368 11.5128C77.5213 11.2447 77.1482 11.103 76.6095 11.0794C76.0735 11.0583 75.6425 11.1976 75.3193 11.4999C74.9962 11.7995 74.8439 12.3249 74.8621 13.0764V18.303H72.7284V13.1158C72.744 12.3749 72.6179 11.8677 72.3474 11.5969C72.0768 11.3264 71.6958 11.1921 71.2018 11.1921C70.7079 11.1921 70.3347 11.3261 70.0825 11.5969C69.8302 11.8674 69.6726 12.3773 69.612 13.1288V18.3027H67.4363V12.5796V12.5801ZM81.5682 13.6024C81.5682 12.2228 81.9913 11.085 82.8372 10.1891C83.6834 9.29555 84.8316 8.84892 86.2823 8.84892C87.9221 8.84892 89.1676 9.37197 90.0138 10.4202C90.6865 11.2664 91.0228 12.3043 91.0228 13.5366C91.0228 14.932 90.6024 16.0749 89.7641 16.9605C88.9285 17.8461 87.7671 18.2901 86.2826 18.2901C84.9633 18.2901 83.8939 17.9222 83.0742 17.1892C82.0704 16.2721 81.5682 15.0764 81.5682 13.6024ZM83.7149 13.6656C83.7149 14.4774 83.9936 15.1372 84.5532 15.6444C84.9998 16.0463 85.6752 16.2592 86.5843 16.2854C87.2991 16.1986 87.8665 15.9543 88.2844 15.5524C88.7048 15.1504 88.9439 14.5615 89.0044 13.7838C89.0412 13.0167 88.8968 12.4095 88.5734 11.9656C88.0321 11.2561 87.2805 10.9038 86.3214 10.9038C85.4752 10.9826 84.821 11.2587 84.3638 11.7342C83.904 12.2096 83.6887 12.8535 83.7149 13.6656ZM92.4365 13.613C92.4365 12.2178 92.8596 11.0694 93.7005 10.1708C94.5441 9.27201 95.6817 8.82274 97.1112 8.82274C98.362 8.87536 99.287 9.20643 99.8888 9.81596V5.141H102.141V18.3033H99.9544V17.3733C99.631 17.6517 99.2791 17.8778 98.9006 18.046C98.5196 18.2168 97.9283 18.3191 97.1242 18.3562C95.8075 18.3562 94.7461 17.983 93.9419 17.2421C92.9382 16.3171 92.4365 15.1084 92.4365 13.613ZM94.7279 13.563C94.7279 14.3748 95.0037 15.0319 95.5529 15.5389C95.9995 15.9487 96.667 16.1722 97.5578 16.2063C98.2832 16.1196 98.8507 15.8699 99.2605 15.4601C99.6704 15.0502 99.9097 14.4563 99.9806 13.6786C100.007 12.8929 99.8571 12.2779 99.534 11.8339C99.0032 11.1164 98.2597 10.7592 97.3082 10.7592C96.47 10.838 95.8237 11.1194 95.3715 11.6054C94.9169 12.0888 94.7043 12.7406 94.7279 13.563ZM112.499 14.4013H105.257C105.31 14.9661 105.533 15.4339 105.925 15.8017C106.413 16.2798 107.044 16.5006 107.811 16.4559C108.397 16.4559 108.865 16.3718 109.22 16.2063C109.572 16.0408 109.89 15.7779 110.168 15.4207L112.197 16.0487C111.7 16.8343 111.13 17.415 110.489 17.7855C109.848 18.156 108.986 18.3427 107.903 18.3427C106.942 18.3585 106.14 18.1904 105.494 17.8381C104.847 17.4833 104.274 16.9316 103.778 16.1799C103.281 15.431 103.032 14.548 103.032 13.5363C103.032 12.0174 103.492 10.8007 104.414 9.88894C105.334 8.97717 106.414 8.54085 107.654 8.58554C108.623 8.55909 109.478 8.75107 110.221 9.16095C110.962 9.57082 111.527 10.1542 111.916 10.9083C112.305 11.6652 112.5 12.6925 112.5 13.9932V14.4005L112.499 14.4013ZM110.247 12.7247C110.213 12.0861 109.969 11.5633 109.514 11.1532C109.059 10.7407 108.471 10.5357 107.745 10.5357C107.005 10.554 106.411 10.7669 105.964 11.1796C105.52 11.5895 105.291 12.1046 105.283 12.7247H110.247Z" fill="white"/>
<path fill-rule="evenodd" clip-rule="evenodd" d="M9.8447 0.0100742C6.33564 -0.120557 2.88555 1.02101 0.165039 3.33033L2.20516 5.59151C2.67797 4.94603 3.19996 4.33703 3.76612 3.77088C5.48284 2.05363 7.56289 0.770326 9.8447 0.0100742ZM23.876 3.33032L19.777 7.87385C16.4597 5.16815 11.5777 5.51508 8.54513 8.54842C5.51311 11.5812 5.16379 16.4603 7.87372 19.7806C6.3593 21.1475 4.84541 22.5141 3.33125 23.8809C-1.5296 18.1607 -0.961595 9.61093 4.32156 4.32618C9.60604 -0.959618 18.1613 -1.52234 23.876 3.33032ZM15.496 8.5482C14.8405 7.89267 14.0874 7.35031 13.2637 6.93911H13.2639C15.5008 6.5496 17.822 7.16071 19.5501 8.71295L19.8415 8.97447L21.7507 6.8582C23.3847 9.42851 24.1851 12.4597 24.0201 15.5084C23.853 18.5957 22.7077 21.5272 20.7099 23.8807C19.1955 22.5138 17.6816 21.1472 16.1674 19.7804C18.8774 16.4601 18.5281 11.581 15.496 8.5482ZM7.00951 16.2504C6.64776 14.6469 6.82123 12.9616 7.48152 11.4639C8.4364 12.9965 10.1967 13.8927 12.0208 13.8927C13.8452 13.8927 15.6055 12.9965 16.5601 11.4639C17.2207 12.9616 17.3942 14.6469 17.0321 16.2504C15.5151 17.1447 13.782 17.5982 12.0208 17.5982C10.2597 17.5982 8.52657 17.1447 7.00951 16.2504Z" fill="white"/>
</svg>
