<svg width="14" height="14" viewBox="0 0 14 14" fill="none" xmlns="http://www.w3.org/2000/svg">
<path d="M5.58625 10.9786C5.47542 10.9786 5.36458 10.9378 5.27708 10.8503L1.73625 7.30948C1.56708 7.14031 1.56708 6.86031 1.73625 6.69115L5.27708 3.15031C5.44625 2.98115 5.72625 2.98115 5.89542 3.15031C6.06458 3.31948 6.06458 3.59948 5.89542 3.76865L2.66375 7.00031L5.89542 10.232C6.06458 10.4011 6.06458 10.6811 5.89542 10.8503C5.81375 10.9378 5.69708 10.9786 5.58625 10.9786Z" fill="#8592A3"/>
<path d="M11.9581 7.4375L2.14062 7.4375C1.90146 7.4375 1.70312 7.23917 1.70312 7C1.70312 6.76083 1.90146 6.5625 2.14062 6.5625L11.9581 6.5625C12.1973 6.5625 12.3956 6.76083 12.3956 7C12.3956 7.23917 12.1973 7.4375 11.9581 7.4375Z" fill="#8592A3"/>
</svg>
