<svg width="24" height="25" viewBox="0 0 24 25" fill="none" xmlns="http://www.w3.org/2000/svg">
<path d="M20.21 8.06331L12.51 12.5164C12.2 12.6962 11.81 12.6962 11.49 12.5164L3.78997 8.06331C3.23997 7.7438 3.09997 6.99496 3.51997 6.52568C3.80997 6.19619 4.13997 5.9266 4.48997 5.7369L9.90997 2.74151C11.07 2.09251 12.95 2.09251 14.11 2.74151L19.53 5.7369C19.88 5.9266 20.21 6.20617 20.5 6.52568C20.9 6.99496 20.76 7.7438 20.21 8.06331Z" fill="#64748b"/>
<path d="M11.43 14.3736V21.1831C11.43 21.942 10.66 22.4412 9.97998 22.1117C7.91998 21.1033 4.44998 19.2162 4.44998 19.2162C3.22998 18.5272 2.22998 16.7899 2.22998 15.3621V10.21C2.22998 9.42126 3.05998 8.92203 3.73998 9.31143L10.93 13.475C11.23 13.6647 11.43 14.0042 11.43 14.3736Z" fill="#64748b"/>
<path d="M12.57 14.3736V21.1831C12.57 21.942 13.34 22.4412 14.02 22.1117C16.08 21.1033 19.55 19.2162 19.55 19.2162C20.77 18.5272 21.77 16.7899 21.77 15.3621V10.21C21.77 9.42126 20.94 8.92203 20.26 9.31143L13.07 13.475C12.77 13.6647 12.57 14.0042 12.57 14.3736Z" fill="#465468"/>
</svg>
