<svg width="16" height="17" viewBox="0 0 16 17" fill="none" xmlns="http://www.w3.org/2000/svg">
<path d="M11.6359 15.679C10.8826 15.679 10.0893 15.499 9.26927 15.1524C8.46927 14.8124 7.6626 14.3457 6.87594 13.779C6.09594 13.2057 5.3426 12.5657 4.62927 11.8657C3.9226 11.1524 3.2826 10.399 2.71594 9.6257C2.1426 8.8257 1.6826 8.0257 1.35594 7.25237C1.00927 6.4257 0.835938 5.6257 0.835938 4.87237C0.835938 4.35237 0.929271 3.85904 1.10927 3.39904C1.29594 2.9257 1.59594 2.4857 2.0026 2.1057C2.51594 1.59904 3.1026 1.3457 3.72927 1.3457C3.98927 1.3457 4.25594 1.4057 4.4826 1.51237C4.7426 1.63237 4.9626 1.81237 5.1226 2.05237L6.66927 4.23237C6.80927 4.4257 6.91594 4.61237 6.98927 4.79904C7.07594 4.99904 7.1226 5.19904 7.1226 5.39237C7.1226 5.6457 7.04927 5.89237 6.90927 6.1257C6.80927 6.3057 6.65594 6.49904 6.4626 6.69237L6.00927 7.1657C6.01594 7.1857 6.0226 7.19904 6.02927 7.21237C6.10927 7.35237 6.26927 7.59237 6.57594 7.95237C6.9026 8.3257 7.20927 8.6657 7.51594 8.97904C7.90927 9.3657 8.23594 9.67237 8.5426 9.9257C8.9226 10.2457 9.16927 10.4057 9.31594 10.479L9.3026 10.5124L9.78927 10.0324C9.99594 9.8257 10.1959 9.67237 10.3893 9.57237C10.7559 9.3457 11.2226 9.3057 11.6893 9.49904C11.8626 9.57237 12.0493 9.67237 12.2493 9.81237L14.4626 11.3857C14.7093 11.5524 14.8893 11.7657 14.9959 12.019C15.0959 12.2724 15.1426 12.5057 15.1426 12.739C15.1426 13.059 15.0693 13.379 14.9293 13.679C14.7893 13.979 14.6159 14.239 14.3959 14.479C14.0159 14.899 13.6026 15.199 13.1226 15.3924C12.6626 15.579 12.1626 15.679 11.6359 15.679ZM3.72927 2.3457C3.3626 2.3457 3.0226 2.5057 2.69594 2.8257C2.38927 3.11237 2.17594 3.4257 2.0426 3.7657C1.9026 4.11237 1.83594 4.47904 1.83594 4.87237C1.83594 5.49237 1.9826 6.1657 2.27594 6.85904C2.57594 7.5657 2.99594 8.29904 3.52927 9.03237C4.0626 9.7657 4.66927 10.479 5.33594 11.1524C6.0026 11.8124 6.7226 12.4257 7.4626 12.9657C8.1826 13.4924 8.9226 13.919 9.65594 14.2257C10.7959 14.7124 11.8626 14.8257 12.7426 14.459C13.0826 14.319 13.3826 14.1057 13.6559 13.799C13.8093 13.6324 13.9293 13.4524 14.0293 13.239C14.1093 13.0724 14.1493 12.899 14.1493 12.7257C14.1493 12.619 14.1293 12.5124 14.0759 12.3924C14.0559 12.3524 14.0159 12.279 13.8893 12.1924L11.6759 10.619C11.5426 10.5257 11.4226 10.459 11.3093 10.4124C11.1626 10.3524 11.1026 10.2924 10.8759 10.4324C10.7426 10.499 10.6226 10.599 10.4893 10.7324L9.9826 11.2324C9.7226 11.4857 9.32261 11.5457 9.01594 11.4324L8.83594 11.3524C8.5626 11.2057 8.2426 10.979 7.88927 10.679C7.56927 10.4057 7.2226 10.0857 6.8026 9.67237C6.47594 9.33904 6.14927 8.9857 5.80927 8.59237C5.49594 8.2257 5.26927 7.91237 5.12927 7.65237L5.04927 7.45237C5.00927 7.29904 4.99594 7.21237 4.99594 7.11904C4.99594 6.87904 5.0826 6.6657 5.24927 6.49904L5.74927 5.97904C5.8826 5.8457 5.9826 5.71904 6.04927 5.6057C6.1026 5.51904 6.1226 5.4457 6.1226 5.37904C6.1226 5.3257 6.1026 5.2457 6.06927 5.1657C6.0226 5.05904 5.94927 4.93904 5.85594 4.81237L4.30927 2.6257C4.2426 2.53237 4.1626 2.4657 4.0626 2.41904C3.95594 2.37237 3.8426 2.3457 3.72927 2.3457ZM9.3026 10.519L9.19594 10.9724L9.37594 10.5057C9.3426 10.499 9.31594 10.5057 9.3026 10.519Z" fill="#64748B"/>
<path d="M12.3333 7.01107C12.06 7.01107 11.8333 6.7844 11.8333 6.51107C11.8333 6.27107 11.5933 5.77107 11.1933 5.3444C10.8 4.9244 10.3667 4.67773 10 4.67773C9.72667 4.67773 9.5 4.45107 9.5 4.17773C9.5 3.9044 9.72667 3.67773 10 3.67773C10.6467 3.67773 11.3267 4.0244 11.92 4.65773C12.4733 5.25107 12.8333 5.97773 12.8333 6.51107C12.8333 6.7844 12.6067 7.01107 12.3333 7.01107Z" fill="#64748B"/>
<path d="M14.6667 7.01237C14.3933 7.01237 14.1667 6.7857 14.1667 6.51237C14.1667 4.21237 12.3 2.3457 10 2.3457C9.72667 2.3457 9.5 2.11904 9.5 1.8457C9.5 1.57237 9.72667 1.3457 10 1.3457C12.8467 1.3457 15.1667 3.6657 15.1667 6.51237C15.1667 6.7857 14.94 7.01237 14.6667 7.01237Z" fill="#64748B"/>
</svg>
