<svg width="22" height="21" viewBox="0 0 22 21" fill="none" xmlns="http://www.w3.org/2000/svg">
<path d="M18.79 2.40127C15.83 -0.544196 11.03 -0.544196 8.09002 2.40127C6.02002 4.44811 5.40002 7.39357 6.20002 9.98957L1.50002 14.6823C1.17002 15.0218 0.940024 15.6908 1.01002 16.1701L1.31002 18.3467C1.42002 19.0656 2.09002 19.7445 2.81002 19.8444L4.99002 20.1439C5.47002 20.2138 6.14002 19.9942 6.48002 19.6447L7.30002 18.826C7.50002 18.6362 7.50002 18.3167 7.30002 18.1171L5.36002 16.18C5.07002 15.8905 5.07002 15.4112 5.36002 15.1217C5.65002 14.8321 6.13002 14.8321 6.42002 15.1217L8.37002 17.0687C8.56002 17.2584 8.88002 17.2584 9.07002 17.0687L11.19 14.9619C13.78 15.7707 16.73 15.1416 18.79 13.0948C21.74 10.1493 21.74 5.34673 18.79 2.40127ZM13.5 10.1693C12.12 10.1693 11 9.05102 11 7.67314C11 6.29527 12.12 5.17699 13.5 5.17699C14.88 5.17699 16 6.29527 16 7.67314C16 9.05102 14.88 10.1693 13.5 10.1693Z" fill="#465468"/>
</svg>
