<svg width="20" height="18" viewBox="0 0 20 18" fill="none" xmlns="http://www.w3.org/2000/svg">
<path d="M15 0.15625H5C2 0.15625 0 1.65394 0 5.14856V12.1378C0 15.6324 2 17.1301 5 17.1301H15C18 17.1301 20 15.6324 20 12.1378V5.14856C20 1.65394 18 0.15625 15 0.15625ZM15.47 6.23688L12.34 8.73304C11.68 9.26222 10.84 9.52182 10 9.52182C9.16 9.52182 8.31 9.26222 7.66 8.73304L4.53 6.23688C4.21 5.97728 4.16 5.49802 4.41 5.17851C4.67 4.859 5.14 4.7991 5.46 5.0587L8.59 7.55485C9.35 8.16391 10.64 8.16391 11.4 7.55485L14.53 5.0587C14.85 4.7991 15.33 4.84902 15.58 5.17851C15.84 5.49802 15.79 5.97728 15.47 6.23688Z" fill="#465468"/>
</svg>
