<svg width="16" height="16" viewBox="0 0 16 16" fill="none" xmlns="http://www.w3.org/2000/svg">
<path d="M4.11814 15.1665C4.05147 15.1665 3.97814 15.1598 3.91814 15.1531L2.47147 14.9531C1.77814 14.8598 1.15147 14.2398 1.0448 13.5331L0.844805 12.0731C0.778138 11.6065 0.978138 10.9998 1.31147 10.6598L4.23814 7.73312C3.76481 5.83979 4.31147 3.83979 5.70481 2.45979C7.86481 0.306453 11.3781 0.299786 13.5448 2.45979C14.5915 3.50645 15.1648 4.89979 15.1648 6.37979C15.1648 7.85979 14.5915 9.25312 13.5448 10.2998C12.1448 11.6865 10.1515 12.2331 8.27147 11.7531L5.33814 14.6798C5.05814 14.9731 4.55814 15.1665 4.11814 15.1665ZM9.61814 1.83979C8.45147 1.83979 7.29147 2.27979 6.4048 3.16645C5.2048 4.35979 4.77147 6.10645 5.27147 7.73312C5.3248 7.91312 5.27814 8.09979 5.1448 8.23312L2.01147 11.3665C1.89814 11.4798 1.8048 11.7731 1.8248 11.9265L2.0248 13.3865C2.0648 13.6398 2.33814 13.9265 2.59147 13.9598L4.04481 14.1598C4.2048 14.1865 4.49814 14.0931 4.61147 13.9798L7.75814 10.8398C7.89147 10.7065 8.08481 10.6665 8.25814 10.7198C9.86481 11.2265 11.6181 10.7931 12.8181 9.59312C13.6715 8.73979 14.1448 7.59312 14.1448 6.37979C14.1448 5.15979 13.6715 4.01979 12.8181 3.16645C11.9515 2.28645 10.7848 1.83979 9.61814 1.83979Z" fill="#64748B"/>
<path d="M6.12542 13.6933C5.99875 13.6933 5.87208 13.6466 5.77208 13.5466L4.23875 12.0133C4.04542 11.82 4.04542 11.5 4.23875 11.3066C4.43208 11.1133 4.75208 11.1133 4.94542 11.3066L6.47875 12.84C6.67208 13.0333 6.67208 13.3533 6.47875 13.5466C6.37875 13.6466 6.25208 13.6933 6.12542 13.6933Z" fill="#64748B"/>
<path d="M9.66797 7.8335C8.8413 7.8335 8.16797 7.16016 8.16797 6.3335C8.16797 5.50683 8.8413 4.8335 9.66797 4.8335C10.4946 4.8335 11.168 5.50683 11.168 6.3335C11.168 7.16016 10.4946 7.8335 9.66797 7.8335ZM9.66797 5.8335C9.39464 5.8335 9.16797 6.06016 9.16797 6.3335C9.16797 6.60683 9.39464 6.8335 9.66797 6.8335C9.9413 6.8335 10.168 6.60683 10.168 6.3335C10.168 6.06016 9.9413 5.8335 9.66797 5.8335Z" fill="#465468"/>
</svg>
